SplineFontDB: 3.2
FontName: Garuda
FullName: Garuda
FamilyName: Garuda
Weight: Regular
Copyright: Generated by NECTEC for Public Domain\n\nModified under GNU General Public License by TLWG
Version: 004.002
ItalicAngle: 0
UnderlinePosition: -27
UnderlineWidth: 10
Ascent: 840
Descent: 160
InvalidEm: 0
LayerCount: 3
Layer: 0 0 "Back" 1
Layer: 1 0 "Fore" 0
Layer: 2 1 "Quad" 0
FSType: 0
OS2Version: 4
OS2_WeightWidthSlopeOnly: 0
OS2_UseTypoMetrics: 1
CreationTime: 1153661488
ModificationTime: 1587792091
PfmFamily: 33
TTFWeight: 400
TTFWidth: 5
LineGap: 0
VLineGap: 0
Panose: 2 11 6 4 2 2 2 2 2 4
OS2TypoAscent: 1284
OS2TypoAOffset: 0
OS2TypoDescent: -591
OS2TypoDOffset: 0
OS2TypoLinegap: 0
OS2WinAscent: 1284
OS2WinAOffset: 0
OS2WinDescent: 591
OS2WinDOffset: 0
HheadAscent: 1284
HheadAOffset: 0
HheadDescent: -591
HheadDOffset: 0
OS2Vendor: 'PfEd'
Lookup: 6 0 0 "'ccmp' Thai Tone Tilde Reordering" { "'ccmp' Thai Tone Tilde Reordering"  } ['ccmp' ('DFLT' <'dflt' > 'latn' <'dflt' > 'thai' <'KUY ' 'MLY ' 'PAL ' 'SAN ' 'THA ' 'dflt' > ) ]
Lookup: 6 0 0 "'ccmp' Thai Tone Macron Reordering" { "'ccmp' Thai Tone Macron Reordering"  } ['ccmp' ('DFLT' <'dflt' > 'latn' <'dflt' > 'thai' <'KUY ' 'MLY ' 'PAL ' 'SAN ' 'THA ' 'dflt' > ) ]
Lookup: 6 0 0 "'ccmp' Thai Below Vowel Macron Reordering" { "'ccmp' Thai Below Vowel Macron Reordering"  } ['ccmp' ('DFLT' <'dflt' > 'latn' <'dflt' > 'thai' <'KUY ' 'MLY ' 'PAL ' 'SAN ' 'THA ' 'dflt' > ) ]
Lookup: 4 0 0 "'ccmp' Patani Malay Ligatures" { "'ccmp' Patani Malay Ligatures"  } ['ccmp' ('DFLT' <'dflt' > 'thai' <'KUY ' 'MLY ' 'PAL ' 'SAN ' 'THA ' 'dflt' > ) ]
Lookup: 6 0 0 "'ccmp' Thai Conditional Descender Removal" { "'ccmp' Thai Conditional Descender Removal"  } ['ccmp' ('DFLT' <'dflt' > 'thai' <'KUY ' 'MLY ' 'THA ' 'dflt' > ) ]
Lookup: 1 0 0 "'ccmp' Pali-Sanskrit Descender Removal" { "'ccmp' Pali-Sanskrit Descender Removal"  } ['ccmp' ('thai' <'PAL ' 'SAN ' > ) ]

StartChar: .notdef
Encoding: 65536 -1 0
Width: 766
VWidth: 2048
Flags: W
HStem: 0 95<192 575> 1193 95<192 575>
VStem: 95 97<95 1193> 575 96<95 1193>
LayerCount: 3
Fore
SplineSet
95 0 m 1
 95 1288 l 1
 671 1288 l 1
 671 0 l 1
 95 0 l 1
192 95 m 1
 575 95 l 1
 575 1193 l 1
 192 1193 l 1
 192 95 l 1
EndSplineSet
Validated: 1
Layer: 2
SplineSet
95 0 m 1,0,-1
 95 1288 l 1,1,-1
 671 1288 l 1,2,-1
 671 0 l 1,3,-1
 95 0 l 1,0,-1
192 95 m 1,4,-1
 575 95 l 1,5,-1
 575 1193 l 1,6,-1
 192 1193 l 1,7,-1
 192 95 l 1,4,-1
EndSplineSet
EndChar

StartChar: exclam
Encoding: 33 33 2
Width: 277
VWidth: 2048
Flags: W
HStem: 0 100<90 192> 696 20G<86 195>
VStem: 86 109<0 100 459.481 716>
LayerCount: 3
Fore
SplineSet
113 178 m 1
 86 558 l 1
 86 716 l 1
 195 716 l 1
 195 558 l 1
 170 178 l 1
 113 178 l 1
90 0 m 1
 90 100 l 1
 192 100 l 1
 192 0 l 1
 90 0 l 1
EndSplineSet
Validated: 1
Layer: 2
SplineSet
113 178 m 1,0,-1
 86 558 l 1,1,-1
 86 716 l 1,2,-1
 195 716 l 1,3,-1
 195 558 l 1,4,-1
 170 178 l 1,5,-1
 113 178 l 1,0,-1
90 0 m 1,6,-1
 90 100 l 1,7,-1
 192 100 l 1,8,-1
 192 0 l 1,9,-1
 90 0 l 1,6,-1
EndSplineSet
EndChar

StartChar: quotedbl
Encoding: 34 34 3
Width: 354
VWidth: 2048
Flags: W
HStem: 463 253<71 124 231 285>
VStem: 46 100<560.92 716> 71 53<463 501.08> 208 100<557.609 716> 231 54<463 504.391>
LayerCount: 3
Fore
SplineSet
71 463 m 1xa0
 46 599 l 1
 46 716 l 1
 146 716 l 1
 146 599 l 1xc0
 124 463 l 1
 71 463 l 1xa0
231 463 m 1x88
 208 599 l 1
 208 716 l 1
 308 716 l 1
 308 599 l 1x90
 285 463 l 1
 231 463 l 1x88
EndSplineSet
Validated: 1
Layer: 2
SplineSet
71 463 m 1,0,-1
 46 599 l 1,1,-1
 46 716 l 1,2,-1
 146 716 l 1,3,-1
 146 599 l 1,4,-1
 124 463 l 1,5,-1
 71 463 l 1,0,-1
231 463 m 1,6,-1
 208 599 l 1,7,-1
 208 716 l 1,8,-1
 308 716 l 1,9,-1
 308 599 l 1,10,-1
 285 463 l 1,11,-1
 231 463 l 1,6,-1
EndSplineSet
EndChar

StartChar: numbersign
Encoding: 35 35 4
Width: 556
VWidth: 2048
Flags: W
HStem: -12 21G<51 128.038 277 355.135> 196 72<11 94 181 319 408 544> 446 72<11 144 231 371 460 544> 708 20G<197 274 423.905 501>
VStem: 51 73<-12 61> 201 73<655 728> 277 74<-12 62> 428 73<655 728>
DStem2: 51 -12 124 -12 0.198662 0.980068<14.5024 212.397 300.245 467.347 555.195 755.05> 277 -12 351 -12 0.199934 0.979809<14.7951 212.198 300.538 467.546 555.887 755.249>
LayerCount: 3
Fore
SplineSet
51 -12 m 1
 94 196 l 1
 11 196 l 1
 11 268 l 1
 107 268 l 1
 144 446 l 1
 11 446 l 1
 11 518 l 1
 159 518 l 1
 201 728 l 1
 274 728 l 1
 231 518 l 1
 385 518 l 1
 428 728 l 1
 501 728 l 1
 460 518 l 1
 544 518 l 1
 544 446 l 1
 445 446 l 1
 408 268 l 1
 544 268 l 1
 544 196 l 1
 394 196 l 1
 351 -12 l 1
 277 -12 l 1
 319 196 l 1
 166 196 l 1
 124 -12 l 1
 51 -12 l 1
181 268 m 1
 334 268 l 1
 371 446 l 1
 218 446 l 1
 181 268 l 1
EndSplineSet
Validated: 1
Layer: 2
SplineSet
51 -12 m 1,0,-1
 94 196 l 1,1,-1
 11 196 l 1,2,-1
 11 268 l 1,3,-1
 107 268 l 1,4,-1
 144 446 l 1,5,-1
 11 446 l 1,6,-1
 11 518 l 1,7,-1
 159 518 l 1,8,-1
 201 728 l 1,9,-1
 274 728 l 1,10,-1
 231 518 l 1,11,-1
 385 518 l 1,12,-1
 428 728 l 1,13,-1
 501 728 l 1,14,-1
 460 518 l 1,15,-1
 544 518 l 1,16,-1
 544 446 l 1,17,-1
 445 446 l 1,18,-1
 408 268 l 1,19,-1
 544 268 l 1,20,-1
 544 196 l 1,21,-1
 394 196 l 1,22,-1
 351 -12 l 1,23,-1
 277 -12 l 1,24,-1
 319 196 l 1,25,-1
 166 196 l 1,26,-1
 124 -12 l 1,27,-1
 51 -12 l 1,0,-1
181 268 m 1,28,-1
 334 268 l 1,29,-1
 371 446 l 1,30,-1
 218 446 l 1,31,-1
 181 268 l 1,28,-1
EndSplineSet
EndChar

StartChar: dollar
Encoding: 36 36 5
Width: 556
VWidth: 2048
Flags: W
HStem: -15 75<191.399 250 300 358.558> 667 73<191.951 250 300 349.714>
VStem: 35 89<139.254 200.337> 51 87<480.151 613.052> 250 50<-103 -14 60 326 423 667 737.956 782> 402 90<562.911 610.303> 418 92<120.01 265.741>
LayerCount: 3
Fore
SplineSet
510 204 m 3xca
 510 73 419 -8 300 -14 c 1
 300 -103 l 1
 250 -103 l 1
 250 -15 l 1
 115 2 44 74 35 199 c 1
 124 216 l 1xea
 136 121 178 69 250 60 c 1
 250 339 l 1
 116 368 51 435 51 541 c 3
 51 662 130 728 250 740 c 1
 250 782 l 1
 300 782 l 1
 300 740 l 1
 414 730 477 670 492 564 c 1
 402 550 l 1xdc
 391 616 357 655 300 667 c 1
 300 412 l 1
 440 383 510 314 510 204 c 3xca
250 667 m 1
 169 656 138 593 138 547 c 3xd8
 138 487 175 446 250 423 c 1
 250 667 l 1
300 60 m 1
 370 68 418 120 418 198 c 3xca
 418 259 380 302 300 326 c 1
 300 60 l 1
EndSplineSet
Validated: 19457
Layer: 2
SplineSet
510 204 m 259,0,1
 510 108 510 108 451 49.5 c 128,-1,2
 392 -9 392 -9 300 -14 c 1,3,-1
 300 -103 l 1,4,-1
 250 -103 l 1,5,-1
 250 -15 l 1,6,7
 49 10 49 10 35 199 c 1,8,-1
 124 216 l 1,9,10
 142 74 142 74 250 60 c 1,11,-1
 250 339 l 1,12,13
 51 382 51 382 51 541 c 259,14,15
 51 629 51 629 104 680 c 128,-1,16
 157 731 157 731 250 740 c 1,17,-1
 250 782 l 1,18,-1
 300 782 l 1,19,-1
 300 740 l 1,20,21
 469 725 469 725 492 564 c 1,22,-1
 402 550 l 1,23,24
 386 649 386 649 300 667 c 1,25,-1
 300 412 l 1,26,27
 510 369 510 369 510 204 c 259,0,1
250 667 m 1,28,29
 194 659 194 659 166 623 c 128,-1,30
 138 587 138 587 138 547 c 259,31,32
 138 457 138 457 250 423 c 1,33,-1
 250 667 l 1,28,29
300 60 m 1,34,35
 353 66 353 66 385.5 103 c 128,-1,36
 418 140 418 140 418 198 c 259,37,38
 418 291 418 291 300 326 c 1,39,-1
 300 60 l 1,34,35
EndSplineSet
EndChar

StartChar: percent
Encoding: 37 37 6
Width: 889
VWidth: 2048
Flags: W
HStem: -26 60<626.103 721.941> 291 62<625.893 723.968> 349 62<161.194 259.222> 668 60<162.917 259.529>
VStem: 58 77<439.329 638.264> 288 77<440.637 639.971> 521 77<62.1767 261.383> 751 77<64.564 263.406>
DStem2: 212 -26 285 -26 0.461279 0.887255<33.6733 849.812>
LayerCount: 3
Fore
SplineSet
365 540 m 3xbf
 365 436 310 349 210 349 c 3
 109 349 58 431 58 544 c 3
 58 659 118 728 208 728 c 3
 304 728 365 658 365 540 c 3xbf
212 668 m 3
 159 668 135 624 135 535 c 3
 135 452 159 411 212 411 c 3
 262 411 288 454 288 543 c 3
 288 625 262 668 212 668 c 3
212 -26 m 1
 604 728 l 1
 674 728 l 1
 285 -26 l 1
 212 -26 l 1
673 -26 m 3
 577 -26 521 49 521 169 c 3
 521 288 589 353 671 353 c 3xdf
 773 353 828 272 828 162 c 3
 828 53 772 -26 673 -26 c 3
674 291 m 3
 624 291 598 248 598 159 c 3
 598 77 624 34 674 34 c 3
 725 34 751 78 751 166 c 3
 751 250 727 291 674 291 c 3
EndSplineSet
Validated: 19457
Layer: 2
SplineSet
365 540 m 259,0,1
 365 458 365 458 323.5 403.5 c 128,-1,2
 282 349 282 349 210 349 c 259,3,4
 137 349 137 349 97.5 402.5 c 128,-1,5
 58 456 58 456 58 544 c 259,6,7
 58 629 58 629 99 678.5 c 128,-1,8
 140 728 140 728 208 728 c 259,9,10
 280 728 280 728 322.5 678 c 128,-1,11
 365 628 365 628 365 540 c 259,0,1
212 668 m 259,12,13
 135 668 135 668 135 535 c 259,14,15
 135 411 135 411 212 411 c 259,16,17
 288 411 288 411 288 543 c 259,18,19
 288 668 288 668 212 668 c 259,12,13
212 -26 m 1,20,-1
 604 728 l 1,21,-1
 674 728 l 1,22,-1
 285 -26 l 1,23,-1
 212 -26 l 1,20,-1
673 -26 m 259,24,25
 601 -26 601 -26 561 26 c 128,-1,26
 521 78 521 78 521 169 c 259,27,28
 521 255 521 255 564 304 c 128,-1,29
 607 353 607 353 671 353 c 259,30,31
 745 353 745 353 786.5 300 c 128,-1,32
 828 247 828 247 828 162 c 259,33,34
 828 78 828 78 787 26 c 128,-1,35
 746 -26 746 -26 673 -26 c 259,24,25
674 291 m 259,36,37
 598 291 598 291 598 159 c 259,38,39
 598 34 598 34 674 34 c 259,40,41
 751 34 751 34 751 166 c 259,42,43
 751 291 751 291 674 291 c 259,36,37
EndSplineSet
EndChar

StartChar: ampersand
Encoding: 38 38 7
Width: 666
VWidth: 2048
Flags: W
HStem: -12 76<201.444 351.564> 656 72<248.233 362.978>
VStem: 43 95<126.793 268.362> 133 91<520.685 632.518> 388 90<516.264 631.321> 504 92<261.801 318.522>
DStem2: 296 458 213 412 0.625017 -0.780611<-136.02 -15.9683 72.465 281.112>
LayerCount: 3
Fore
SplineSet
311 728 m 3xdc
 422 728 478 652 478 575 c 3
 478 507 432 449 342 402 c 1
 471 238 l 1
 486 267 497 299 504 337 c 1
 596 317 l 1
 581 254 559 204 533 162 c 1
 566 120 602 83 644 54 c 1
 586 -17 l 1
 550 6 513 40 475 84 c 1
 417 20 349 -12 270 -12 c 3
 111 -12 43 109 43 198 c 3xec
 43 287 100 357 213 412 c 1
 159 474 133 526 133 569 c 3
 133 661 210 728 311 728 c 3xdc
307 656 m 3
 276 656 224 640 224 576 c 3xdc
 224 546 233 532 296 458 c 1
 357 494 388 532 388 573 c 3
 388 625 351 656 307 656 c 3
138 202 m 3xec
 138 122 201 64 271 64 c 3
 333 64 382 95 420 155 c 1
 259 354 l 1
 178 305 138 256 138 202 c 3xec
EndSplineSet
Validated: 19457
Layer: 2
SplineSet
311 728 m 259,0,1
 390 728 390 728 434 682.5 c 128,-1,2
 478 637 478 637 478 575 c 259,3,4
 478 473 478 473 342 402 c 1,5,-1
 471 238 l 1,6,7
 494 282 494 282 504 337 c 1,8,-1
 596 317 l 1,9,10
 575 230 575 230 533 162 c 1,11,12
 587 93 587 93 644 54 c 1,13,-1
 586 -17 l 1,14,15
 533 17 533 17 475 84 c 1,16,17
 388 -12 388 -12 270 -12 c 259,18,19
 161 -12 161 -12 102 54 c 128,-1,20
 43 120 43 120 43 198 c 259,21,22
 43 329 43 329 213 412 c 1,23,24
 133 504 133 504 133 569 c 259,25,26
 133 638 133 638 184 683 c 128,-1,27
 235 728 235 728 311 728 c 259,0,1
307 656 m 259,28,29
 276 656 276 656 250 637.5 c 128,-1,30
 224 619 224 619 224 576 c 259,31,32
 224 554 224 554 236 534 c 128,-1,33
 248 514 248 514 296 458 c 1,34,35
 388 512 388 512 388 573 c 259,36,37
 388 611 388 611 364.5 633.5 c 128,-1,38
 341 656 341 656 307 656 c 259,28,29
138 202 m 259,39,40
 138 143 138 143 177.5 103.5 c 128,-1,41
 217 64 217 64 271 64 c 259,42,43
 362 64 362 64 420 155 c 1,44,-1
 259 354 l 1,45,46
 138 281 138 281 138 202 c 259,39,40
EndSplineSet
EndChar

StartChar: quotesingle
Encoding: 39 39 8
Width: 190
VWidth: 2048
Flags: W
HStem: 463 253<66 121>
VStem: 44 100<555.522 716> 66 55<463 503.478>
LayerCount: 3
Fore
SplineSet
66 463 m 1xa0
 44 596 l 1
 44 716 l 1
 144 716 l 1
 144 596 l 1xc0
 121 463 l 1
 66 463 l 1xa0
EndSplineSet
Validated: 1
Layer: 2
SplineSet
66 463 m 1,0,-1
 44 596 l 1,1,-1
 44 716 l 1,2,-1
 144 716 l 1,3,-1
 144 596 l 1,4,-1
 121 463 l 1,5,-1
 66 463 l 1,0,-1
EndSplineSet
EndChar

StartChar: parenleft
Encoding: 40 40 9
Width: 332
VWidth: 2048
Flags: W
HStem: -210 21G<176.5 297> 708 20G<176.5 297>
VStem: 61 91<90.579 423.794>
LayerCount: 3
Fore
SplineSet
235 -210 m 1
 118 -64 61 92 61 259 c 3
 61 418 118 575 235 728 c 1
 297 728 l 1
 199 569 152 412 152 259 c 3
 152 103 199 -54 297 -210 c 1
 235 -210 l 1
EndSplineSet
Validated: 19457
Layer: 2
SplineSet
235 -210 m 1,0,1
 61 7 61 7 61 259 c 259,2,3
 61 500 61 500 235 728 c 1,4,-1
 297 728 l 1,5,6
 152 493 152 493 152 259 c 259,7,8
 152 21 152 21 297 -210 c 1,9,-1
 235 -210 l 1,0,1
EndSplineSet
EndChar

StartChar: parenright
Encoding: 41 41 10
Width: 332
VWidth: 2048
Flags: W
HStem: -210 21G<61 181.5> 708 20G<61 181.5>
VStem: 207 90<91.0231 424.828>
LayerCount: 3
Fore
SplineSet
207 259 m 3
 207 461 147 580 61 728 c 1
 124 728 l 1
 239 575 297 418 297 259 c 3
 297 94 239 -64 124 -210 c 1
 61 -210 l 1
 158 -54 207 103 207 259 c 3
EndSplineSet
Validated: 19457
Layer: 2
SplineSet
207 259 m 259,0,1
 207 397 207 397 172 497 c 128,-1,2
 137 597 137 597 61 728 c 1,3,-1
 124 728 l 1,4,5
 297 498 297 498 297 259 c 259,6,7
 297 10 297 10 124 -210 c 1,8,-1
 61 -210 l 1,9,10
 207 25 207 25 207 259 c 259,0,1
EndSplineSet
EndChar

StartChar: asterisk
Encoding: 42 42 11
Width: 387
VWidth: 2048
Flags: W
HStem: 423 305
VStem: 158 69<609.707 728>
LayerCount: 3
Fore
SplineSet
32 584 m 1
 54 655 l 1
 106 636 144 621 167 607 c 1
 161 665 158 707 158 728 c 1
 227 728 l 1
 227 696 222 656 216 607 c 1
 250 624 288 639 331 655 c 1
 354 584 l 1
 313 572 273 563 233 558 c 1
 253 540 281 509 317 464 c 1
 258 423 l 1
 239 449 216 484 192 529 c 1
 167 483 146 448 127 423 c 1
 69 464 l 1
 107 512 135 543 152 558 c 1
 109 566 69 575 32 584 c 1
EndSplineSet
Validated: 1
Layer: 2
SplineSet
32 584 m 1,0,-1
 54 655 l 1,1,2
 139 624 139 624 167 607 c 1,3,4
 158 694 158 694 158 728 c 1,5,-1
 227 728 l 1,6,7
 227 697 227 697 216 607 c 1,8,9
 257 627 257 627 331 655 c 1,10,-1
 354 584 l 1,11,12
 289 565 289 565 233 558 c 1,13,14
 264 530 264 530 317 464 c 1,15,-1
 258 423 l 1,16,17
 223 471 223 471 192 529 c 1,18,19
 153 457 153 457 127 423 c 1,20,-1
 69 464 l 1,21,22
 124 533 124 533 152 558 c 1,23,24
 96 568 96 568 32 584 c 1,0,-1
EndSplineSet
EndChar

StartChar: plus
Encoding: 43 43 12
Width: 583
VWidth: 2048
Flags: W
HStem: 313 81<55 251 334 529> 569 20G<251 334>
VStem: 251 83<116 313 394 589>
LayerCount: 3
Fore
SplineSet
251 116 m 1
 251 313 l 1
 55 313 l 1
 55 394 l 1
 251 394 l 1
 251 589 l 1
 334 589 l 1
 334 394 l 1
 529 394 l 1
 529 313 l 1
 334 313 l 1
 334 116 l 1
 251 116 l 1
EndSplineSet
Validated: 1
Layer: 2
SplineSet
251 116 m 1,0,-1
 251 313 l 1,1,-1
 55 313 l 1,2,-1
 55 394 l 1,3,-1
 251 394 l 1,4,-1
 251 589 l 1,5,-1
 334 589 l 1,6,-1
 334 394 l 1,7,-1
 529 394 l 1,8,-1
 529 313 l 1,9,-1
 334 313 l 1,10,-1
 334 116 l 1,11,-1
 251 116 l 1,0,-1
EndSplineSet
EndChar

StartChar: comma
Encoding: 44 44 13
Width: 277
VWidth: 2048
Flags: W
HStem: 0 100<89 138>
VStem: 89 101<0 100> 138 52<-77.0449 0>
LayerCount: 3
Fore
SplineSet
89 0 m 1xc0
 89 100 l 1
 190 100 l 1
 190 0 l 2xc0
 190 -71 162 -118 107 -141 c 1
 83 -104 l 1
 118 -89 136 -54 138 0 c 1xa0
 89 0 l 1xc0
EndSplineSet
Validated: 1
Layer: 2
SplineSet
89 0 m 1,0,-1
 89 100 l 1,1,-1
 190 100 l 1,2,-1
 190 0 l 2,3,4
 190 -106 190 -106 107 -141 c 1,5,-1
 83 -104 l 1,6,7
 135 -82 135 -82 138 0 c 1,8,-1
 89 0 l 1,0,-1
EndSplineSet
EndChar

StartChar: hyphen
Encoding: 45 45 14
AltUni2: 002010.ffffffff.0
Width: 332
VWidth: 2048
Flags: W
HStem: 215 88<32 302>
VStem: 32 270<215 303>
LayerCount: 3
Fore
SplineSet
32 215 m 1
 32 303 l 1
 302 303 l 1
 302 215 l 1
 32 215 l 1
EndSplineSet
Validated: 1
Layer: 2
SplineSet
32 215 m 1,0,-1
 32 303 l 1,1,-1
 302 303 l 1,2,-1
 302 215 l 1,3,-1
 32 215 l 1,0,-1
EndSplineSet
EndChar

StartChar: period
Encoding: 46 46 15
Width: 277
VWidth: 2048
Flags: W
HStem: 0 100<90 192>
VStem: 90 102<0 100>
LayerCount: 3
Fore
SplineSet
90 0 m 1
 90 100 l 1
 192 100 l 1
 192 0 l 1
 90 0 l 1
EndSplineSet
Validated: 1
Layer: 2
SplineSet
90 0 m 1,0,-1
 90 100 l 1,1,-1
 192 100 l 1,2,-1
 192 0 l 1,3,-1
 90 0 l 1,0,-1
EndSplineSet
EndChar

StartChar: slash
Encoding: 47 47 16
Width: 277
VWidth: 2048
Flags: W
HStem: -12 21G<0 76.5676> 708 20G<201.405 277>
VStem: 0 71<-12 59> 207 70<658 728>
DStem2: 0 -12 71 -12 0.269389 0.963032<19.1266 768.407>
LayerCount: 3
Fore
SplineSet
0 -12 m 1
 207 728 l 1
 277 728 l 1
 71 -12 l 1
 0 -12 l 1
EndSplineSet
Validated: 1
Layer: 2
SplineSet
0 -12 m 1,0,-1
 207 728 l 1,1,-1
 277 728 l 1,2,-1
 71 -12 l 1,3,-1
 0 -12 l 1,0,-1
EndSplineSet
EndChar

StartChar: zero
Encoding: 48 48 17
Width: 556
VWidth: 2048
Flags: W
HStem: -12 72<208.702 339.365> 658 72<208.306 338.969>
VStem: 41 89<179.379 537.786> 420 89<179.379 537.786>
LayerCount: 3
Fore
SplineSet
41 358 m 3
 41 603 120 730 276 730 c 3
 431 730 509 603 509 358 c 3
 509 115 431 -12 276 -12 c 3
 120 -12 41 115 41 358 c 3
130 358 m 3
 130 163 179 60 276 60 c 3
 371 60 420 163 420 358 c 3
 420 554 371 658 274 658 c 3
 179 658 130 554 130 358 c 3
EndSplineSet
Validated: 19457
Layer: 2
SplineSet
41 358 m 259,0,1
 41 730 41 730 276 730 c 259,2,3
 509 730 509 730 509 358 c 259,4,5
 509 -12 509 -12 276 -12 c 259,6,7
 41 -12 41 -12 41 358 c 259,0,1
130 358 m 259,8,9
 130 60 130 60 276 60 c 259,10,11
 420 60 420 60 420 358 c 259,12,13
 420 658 420 658 274 658 c 259,14,15
 130 658 130 658 130 358 c 259,8,9
EndSplineSet
EndChar

StartChar: one
Encoding: 49 49 18
Width: 556
VWidth: 2048
Flags: W
HStem: 0 21G<285 374> 696 20G<298.5 374>
VStem: 285 89<0 558> 316 58<679.944 716>
LayerCount: 3
Back
SplineSet
372 0 m 1
 285 0 l 1
 285 561 l 1
 238 515 179 480 109 454 c 1
 109 540 l 1
 212 587 281 647 316 719 c 1
 372 719 l 1
 372 0 l 1
EndSplineSet
Fore
SplineSet
374 0 m 1xe0
 285 0 l 1
 285 558 l 1xe0
 238 512 179 477 109 451 c 1
 109 537 l 1
 212 584 281 644 316 716 c 1
 374 716 l 1xd0
 374 0 l 1xe0
EndSplineSet
Validated: 1
Layer: 2
SplineSet
374 0 m 1,0,-1
 285 0 l 1,1,-1
 285 558 l 1,2,3
 216 491 216 491 109 451 c 1,4,-1
 109 537 l 1,5,6
 263 607 263 607 316 716 c 1,7,-1
 374 716 l 1,8,-1
 374 0 l 1,0,-1
EndSplineSet
EndChar

StartChar: two
Encoding: 50 50 19
Width: 556
VWidth: 2048
Flags: W
HStem: 0 72<139 501> 658 72<193.082 353.172>
VStem: 44 91<522.308 598.553> 412 89<461.484 601.805>
LayerCount: 3
Back
SplineSet
501 520 m 0
 501 330 228 213 150 84 c 1
 501 84 l 1
 501 0 l 1
 28 0 l 1
 28 145 247 285 307 348 c 0
 359 402 412 465 412 523 c 0
 412 598 351 647 276 647 c 0
 189 647 135 593 135 503 c 1
 44 512 l 1
 57 650 135 719 277 719 c 0
 408 719 501 643 501 520 c 0
EndSplineSet
Fore
SplineSet
501 531 m 3
 501 447 457 372 302 236 c 0
 182 130 162 110 139 72 c 1
 501 72 l 1
 501 0 l 1
 28 0 l 1
 28 84 85 161 256 307 c 0
 364 399 412 479 412 534 c 3
 412 609 351 658 276 658 c 3
 189 658 135 604 135 514 c 1
 44 523 l 1
 57 661 135 730 277 730 c 3
 408 730 501 654 501 531 c 3
EndSplineSet
Validated: 19457
Layer: 2
SplineSet
501 531 m 259,0,1
 501 466 501 466 458 400.5 c 128,-1,2
 415 335 415 335 302 236 c 256,3,4
 212 156 212 156 184 128 c 128,-1,5
 156 100 156 100 139 72 c 1,6,-1
 501 72 l 1,7,-1
 501 0 l 1,8,-1
 28 0 l 1,9,10
 28 63 28 63 78 130.5 c 128,-1,11
 128 198 128 198 256 307 c 256,12,13
 337 376 337 376 374.5 432.5 c 128,-1,14
 412 489 412 489 412 534 c 259,15,16
 412 589 412 589 373 623.5 c 128,-1,17
 334 658 334 658 276 658 c 259,18,19
 211 658 211 658 173 619.5 c 128,-1,20
 135 581 135 581 135 514 c 1,21,-1
 44 523 l 1,22,23
 54 626 54 626 112 678 c 128,-1,24
 170 730 170 730 277 730 c 259,25,26
 377 730 377 730 439 676 c 128,-1,27
 501 622 501 622 501 531 c 259,0,1
EndSplineSet
EndChar

StartChar: three
Encoding: 51 51 20
Width: 556
VWidth: 2048
Flags: W
HStem: -12 72<198.136 345.908> 344 76<225 276.247> 354 66<225 326.793> 526 21G<51 145> 658 72<195.377 338.232>
VStem: 41 89<140.839 193.865> 385 89<474.608 612.312> 417 89<130.121 291.284>
LayerCount: 3
Back
SplineSet
506 212 m 0xdd
 506 68 399 -12 270 -12 c 0
 130 -12 55 74 41 190 c 1
 130 201 l 1
 149 107 196 60 270 60 c 0
 359 60 417 126 417 210 c 0
 417 293 361 349 277 349 c 0xbd
 261 349 241 345 216 339 c 1
 225 415 l 1
 247 415 l 2
 323 415 385 461 385 535 c 0
 385 606 333 647 268 647 c 0
 195 647 152 604 138 518 c 1
 51 533 l 1
 74 658 146 719 267 719 c 0
 394 719 474 641 474 533 c 0xde
 474 466 440 418 374 388 c 1
 463 368 506 308 506 212 c 0xdd
EndSplineSet
Fore
SplineSet
506 215 m 3xdd
 506 71 399 -12 270 -12 c 3
 130 -12 55 77 41 193 c 1
 130 204 l 1
 149 110 196 60 270 60 c 3
 359 60 417 129 417 213 c 3
 417 296 361 354 277 354 c 3xbd
 261 354 241 350 216 344 c 1
 225 420 l 1
 247 420 l 2
 323 420 385 469 385 543 c 3
 385 614 333 658 268 658 c 3
 195 658 152 612 138 526 c 1
 51 541 l 1
 74 666 146 730 267 730 c 3
 394 730 474 649 474 541 c 3xde
 474 474 440 423 374 393 c 1
 463 373 506 311 506 215 c 3xdd
EndSplineSet
Validated: 19457
Layer: 2
SplineSet
506 215 m 259,0,1
 506 110 506 110 438.5 49 c 128,-1,2
 371 -12 371 -12 270 -12 c 259,3,4
 169 -12 169 -12 110.5 44.5 c 128,-1,5
 52 101 52 101 41 193 c 1,6,-1
 130 204 l 1,7,8
 159 60 159 60 270 60 c 259,9,10
 335 60 335 60 376 104 c 128,-1,11
 417 148 417 148 417 213 c 259,12,13
 417 276 417 276 378.5 315 c 128,-1,14
 340 354 340 354 277 354 c 259,15,16
 258 354 258 354 216 344 c 1,17,-1
 225 420 l 1,18,-1
 247 420 l 2,19,20
 305 420 305 420 345 454.5 c 128,-1,21
 385 489 385 489 385 543 c 259,22,23
 385 595 385 595 351.5 626.5 c 128,-1,24
 318 658 318 658 268 658 c 259,25,26
 159 658 159 658 138 526 c 1,27,-1
 51 541 l 1,28,29
 86 730 86 730 267 730 c 259,30,31
 361 730 361 730 417.5 676.5 c 128,-1,32
 474 623 474 623 474 541 c 259,33,34
 474 438 474 438 374 393 c 1,35,36
 506 363 506 363 506 215 c 259,0,1
EndSplineSet
EndChar

StartChar: four
Encoding: 52 52 21
Width: 556
VWidth: 2048
Flags: W
HStem: 0 21G<323 412> 181 72<100 323 412 509> 696 20G<325.832 412>
VStem: 323 89<0 181 253 575>
DStem2: 12 253 100 253 0.578066 0.81599<50.8698 442.527>
LayerCount: 3
Back
SplineSet
323 0 m 1
 323 172 l 1
 12 172 l 1
 12 253 l 1
 340 716 l 1
 412 716 l 1
 412 253 l 1
 509 253 l 1
 509 172 l 1
 412 172 l 1
 412 0 l 1
 323 0 l 1
323 253 m 1
 323 575 l 1
 100 253 l 1
 323 253 l 1
EndSplineSet
Fore
SplineSet
323 0 m 1
 323 181 l 1
 12 181 l 1
 12 253 l 1
 340 716 l 1
 412 716 l 1
 412 253 l 1
 509 253 l 1
 509 181 l 1
 412 181 l 1
 412 0 l 1
 323 0 l 1
323 253 m 1
 323 575 l 1
 100 253 l 1
 323 253 l 1
EndSplineSet
Validated: 1
Layer: 2
SplineSet
323 0 m 1,0,-1
 323 181 l 1,1,-1
 12 181 l 1,2,-1
 12 253 l 1,3,-1
 340 716 l 1,4,-1
 412 716 l 1,5,-1
 412 253 l 1,6,-1
 509 253 l 1,7,-1
 509 181 l 1,8,-1
 412 181 l 1,9,-1
 412 0 l 1,10,-1
 323 0 l 1,0,-1
323 253 m 1,11,-1
 323 575 l 1,12,-1
 100 253 l 1,13,-1
 323 253 l 1,11,-1
EndSplineSet
EndChar

StartChar: five
Encoding: 53 53 22
Width: 556
VWidth: 2048
Flags: W
HStem: -12 72<193.67 345.171> 404 72<195.242 353.733> 644 72<198 483>
VStem: 41 92<128.319 189.457> 423 89<142.159 330.556>
DStem2: 57 343 159 433 0.184448 0.982842<4.31344 43.0221 107.269 321.843>
LayerCount: 3
Back
SplineSet
423 235 m 0
 423 303 392 397 270 397 c 0
 213 397 170 374 139 328 c 1
 57 339 l 1
 127 707 l 1
 483 707 l 1
 483 622 l 1
 196 622 l 1
 159 429 l 1
 202 460 247 475 293 475 c 0
 434 475 517 374 517 242 c 0
 517 100 423 -12 271 -12 c 0
 143 -12 55 62 41 189 c 1
 133 195 l 1
 147 106 193 60 271 60 c 0
 355 60 423 126 423 235 c 0
EndSplineSet
Fore
SplineSet
423 237 m 3
 423 337 370 404 270 404 c 3
 213 404 170 378 139 332 c 1
 57 343 l 1
 127 716 l 1
 483 716 l 1
 483 644 l 1
 198 644 l 1
 159 433 l 1
 202 464 247 476 293 476 c 3
 434 476 512 376 512 244 c 3
 512 102 423 -12 271 -12 c 3
 143 -12 55 62 41 189 c 1
 133 195 l 1
 147 106 193 60 271 60 c 3
 355 60 423 128 423 237 c 3
EndSplineSet
Validated: 19457
Layer: 2
SplineSet
423 237 m 259,0,1
 423 314 423 314 383.5 359 c 128,-1,2
 344 404 344 404 270 404 c 259,3,4
 188 404 188 404 139 332 c 1,5,-1
 57 343 l 1,6,-1
 127 716 l 1,7,-1
 483 716 l 1,8,-1
 483 644 l 1,9,-1
 198 644 l 1,10,-1
 159 433 l 1,11,12
 219 476 219 476 293 476 c 259,13,14
 396 476 396 476 454 411 c 128,-1,15
 512 346 512 346 512 244 c 259,16,17
 512 134 512 134 447 61 c 128,-1,18
 382 -12 382 -12 271 -12 c 259,19,20
 174 -12 174 -12 112.5 41 c 128,-1,21
 51 94 51 94 41 189 c 1,22,-1
 133 195 l 1,23,24
 154 60 154 60 271 60 c 259,25,26
 336 60 336 60 379.5 108.5 c 128,-1,27
 423 157 423 157 423 237 c 259,0,1
EndSplineSet
EndChar

StartChar: six
Encoding: 54 54 23
Width: 556
VWidth: 2048
Flags: W
HStem: -12 72<213.556 352.845> 394 72<205.407 354.995> 658 72<218.177 356.584>
VStem: 37 89<374 527.589> 411 87<548.517 597.66> 420 89<135.271 327.288>
LayerCount: 3
Back
SplineSet
509 233 m 0xf4
 509 88 422 -12 287 -12 c 0
 121 -12 37 104 37 336 c 0
 37 592 123 719 294 719 c 0
 457 719 489 598 498 541 c 1
 411 535 l 1xf8
 394 609 354 647 288 647 c 0
 169 647 126 519 126 369 c 1
 167 434 225 464 299 464 c 4
 426 464 509 364 509 233 c 0xf4
282 386 m 0
 167 386 138 286 138 231 c 0
 138 134 197 60 285 60 c 0
 369 60 420 132 420 227 c 0xf4
 420 353 342 386 282 386 c 0
EndSplineSet
Fore
SplineSet
509 236 m 3xf4
 509 91 422 -12 287 -12 c 3
 121 -12 37 109 37 341 c 3
 37 597 123 730 294 730 c 3
 457 730 489 606 498 549 c 1
 411 543 l 1xf8
 394 617 354 658 288 658 c 3
 178 658 126 541 126 374 c 1
 167 439 225 466 299 466 c 3
 426 466 509 367 509 236 c 3xf4
282 394 m 3
 191 394 138 322 138 234 c 3
 138 137 197 60 285 60 c 3
 369 60 420 135 420 230 c 3xf4
 420 356 342 394 282 394 c 3
EndSplineSet
Validated: 19457
Layer: 2
SplineSet
509 236 m 259,0,1
 509 126 509 126 448 57 c 128,-1,2
 387 -12 387 -12 287 -12 c 259,3,4
 164 -12 164 -12 100.5 75 c 128,-1,5
 37 162 37 162 37 341 c 259,6,7
 37 538 37 538 102 634 c 128,-1,8
 167 730 167 730 294 730 c 259,9,10
 469 730 469 730 498 549 c 1,11,-1
 411 543 l 1,12,13
 385 658 385 658 288 658 c 259,14,15
 208 658 208 658 167 581 c 128,-1,16
 126 504 126 504 126 374 c 1,17,18
 184 466 184 466 299 466 c 259,19,20
 393 466 393 466 451 401 c 128,-1,21
 509 336 509 336 509 236 c 259,0,1
282 394 m 259,22,23
 216 394 216 394 177 348 c 128,-1,24
 138 302 138 302 138 234 c 259,25,26
 138 160 138 160 179 110 c 128,-1,27
 220 60 220 60 285 60 c 259,28,29
 347 60 347 60 383.5 108.5 c 128,-1,30
 420 157 420 157 420 230 c 259,31,32
 420 316 420 316 378 355 c 128,-1,33
 336 394 336 394 282 394 c 259,22,23
EndSplineSet
EndChar

StartChar: seven
Encoding: 55 55 24
Width: 556
VWidth: 2048
Flags: W
HStem: 0 21G<147 246.5> 644 72<48 399>
VStem: 147 91<0 148.008>
LayerCount: 3
Back
SplineSet
48 622 m 1
 48 707 l 1
 510 707 l 1
 510 639 l 1
 435 558 372 458 322 343 c 0
 273 227 245 112 238 0 c 1
 147 0 l 1
 150 106 175 216 222 331 c 0
 268 443 326 541 399 622 c 1
 48 622 l 1
EndSplineSet
Fore
SplineSet
147 0 m 1
 154 240 277 509 399 644 c 1
 48 644 l 1
 48 716 l 1
 510 716 l 1
 510 661 l 1
 386 528 255 265 238 0 c 1
 147 0 l 1
EndSplineSet
Validated: 19457
Layer: 2
SplineSet
147 0 m 1,0,1
 152 172 152 172 227 354 c 128,-1,2
 302 536 302 536 399 644 c 1,3,-1
 48 644 l 1,4,-1
 48 716 l 1,5,-1
 510 716 l 1,6,-1
 510 661 l 1,7,8
 409 553 409 553 329.5 370.5 c 128,-1,9
 250 188 250 188 238 0 c 1,10,-1
 147 0 l 1,0,1
EndSplineSet
EndChar

StartChar: eight
Encoding: 56 56 25
Width: 556
VWidth: 2048
Flags: W
HStem: -12 72<198.757 356.472> 356 72<206.589 348.525> 658 72<208.781 343.925>
VStem: 41 89<129.899 286.502> 70 89<474.62 611.828> 393 89<472.14 610.296> 423 89<126.537 286.315>
LayerCount: 3
Back
SplineSet
276 -12 m 0xe2
 138 -12 41 76 41 207 c 0xf2
 41 303 86 365 176 388 c 1
 106 415 70 463 70 535 c 0
 70 627 136 719 276 719 c 0
 404 719 482 640 482 532 c 0xec
 482 463 448 415 379 388 c 1
 468 359 512 297 512 205 c 0
 512 69 407 -12 276 -12 c 0xe2
276 647 m 0
 225 647 159 614 159 538 c 0
 159 468 207 422 277 422 c 0
 346 422 393 466 393 533 c 0xec
 393 605 339 647 276 647 c 0
274 351 m 0
 187 351 130 282 130 207 c 0
 130 111 201 60 277 60 c 0
 364 60 423 120 423 204 c 0xf2
 423 292 358 351 274 351 c 0
EndSplineSet
Fore
SplineSet
276 -12 m 3xe2
 138 -12 41 79 41 210 c 3xf2
 41 306 86 370 176 393 c 1
 106 420 70 471 70 543 c 3
 70 635 136 730 276 730 c 3
 404 730 482 648 482 540 c 3xec
 482 471 448 420 379 393 c 1
 468 364 512 300 512 208 c 3
 512 72 407 -12 276 -12 c 3xe2
276 658 m 3
 225 658 159 622 159 546 c 3
 159 476 207 428 277 428 c 3
 346 428 393 474 393 541 c 3xec
 393 613 339 658 276 658 c 3
274 356 m 3
 187 356 130 285 130 210 c 3
 130 114 201 60 277 60 c 3
 364 60 423 123 423 207 c 3xf2
 423 295 358 356 274 356 c 3
EndSplineSet
Validated: 19457
Layer: 2
SplineSet
276 -12 m 259,0,1
 172 -12 172 -12 106.5 50 c 128,-1,2
 41 112 41 112 41 210 c 259,3,4
 41 358 41 358 176 393 c 1,5,6
 70 434 70 434 70 543 c 259,7,8
 70 619 70 619 123.5 674.5 c 128,-1,9
 177 730 177 730 276 730 c 259,10,11
 370 730 370 730 426 676.5 c 128,-1,12
 482 623 482 623 482 540 c 259,13,14
 482 433 482 433 379 393 c 1,15,16
 512 350 512 350 512 208 c 259,17,18
 512 108 512 108 444.5 48 c 128,-1,19
 377 -12 377 -12 276 -12 c 259,0,1
276 658 m 259,20,21
 232 658 232 658 195.5 628.5 c 128,-1,22
 159 599 159 599 159 546 c 259,23,24
 159 494 159 494 191.5 461 c 128,-1,25
 224 428 224 428 277 428 c 259,26,27
 329 428 329 428 361 459.5 c 128,-1,28
 393 491 393 491 393 541 c 259,29,30
 393 593 393 593 359 625.5 c 128,-1,31
 325 658 325 658 276 658 c 259,20,21
274 356 m 259,32,33
 211 356 211 356 170.5 312.5 c 128,-1,34
 130 269 130 269 130 210 c 259,35,36
 130 141 130 141 173.5 100.5 c 128,-1,37
 217 60 217 60 277 60 c 259,38,39
 342 60 342 60 382.5 101.5 c 128,-1,40
 423 143 423 143 423 207 c 259,41,42
 423 272 423 272 380.5 314 c 128,-1,43
 338 356 338 356 274 356 c 259,32,33
EndSplineSet
EndChar

StartChar: nine
Encoding: 57 57 26
Width: 556
VWidth: 2048
Flags: W
HStem: -12 72<188.399 330.815> 250 72<202.977 348.144> 658 72<204.679 346.027>
VStem: 41 89<397.328 574.94> 55 84<114.839 169.583> 423 89<190.411 342>
LayerCount: 3
Back
SplineSet
254 242 m 0xec
 129 242 41 341 41 478 c 0xf4
 41 614 123 719 267 719 c 0
 416 719 512 628 512 372 c 0
 512 116 428 -12 256 -12 c 0
 144 -12 69 53 55 166 c 1
 139 173 l 1
 153 98 192 60 258 60 c 0
 397 60 423 232 423 290 c 2
 423 337 l 1
 383 274 328 242 254 242 c 0xec
276 320 m 0
 365 320 415 392 415 481 c 0
 415 572 363 647 277 647 c 0
 192 647 130 572 130 475 c 0
 130 375 200 320 276 320 c 0
EndSplineSet
Fore
SplineSet
254 250 m 3xec
 129 250 41 349 41 486 c 3xf4
 41 622 123 730 267 730 c 3
 416 730 512 633 512 377 c 0
 512 121 428 -12 256 -12 c 3
 144 -12 69 56 55 169 c 1
 139 176 l 1
 153 101 192 60 258 60 c 3
 362 60 423 169 423 295 c 2
 423 342 l 1
 383 279 328 250 254 250 c 3xec
276 322 m 3
 365 322 415 400 415 489 c 3
 415 580 363 658 277 658 c 3
 192 658 130 580 130 483 c 3
 130 383 200 322 276 322 c 3
EndSplineSet
Validated: 19457
Layer: 2
SplineSet
254 250 m 259,0,1
 160 250 160 250 100.5 316.5 c 128,-1,2
 41 383 41 383 41 486 c 259,3,4
 41 592 41 592 101.5 661 c 128,-1,5
 162 730 162 730 267 730 c 259,6,7
 389 730 389 730 450.5 642.5 c 128,-1,8
 512 555 512 555 512 377 c 259,9,10
 512 185 512 185 449 86.5 c 128,-1,11
 386 -12 386 -12 256 -12 c 259,12,13
 172 -12 172 -12 119 36 c 128,-1,14
 66 84 66 84 55 169 c 1,15,-1
 139 176 l 1,16,17
 150 119 150 119 179.5 89.5 c 128,-1,18
 209 60 209 60 258 60 c 259,19,20
 333 60 333 60 378 128 c 128,-1,21
 423 196 423 196 423 295 c 2,22,-1
 423 342 l 1,23,24
 365 250 365 250 254 250 c 259,0,1
276 322 m 259,25,26
 340 322 340 322 377.5 370.5 c 128,-1,27
 415 419 415 419 415 489 c 259,28,29
 415 560 415 560 377.5 609 c 128,-1,30
 340 658 340 658 277 658 c 259,31,32
 214 658 214 658 172 607 c 128,-1,33
 130 556 130 556 130 483 c 259,34,35
 130 411 130 411 173 366.5 c 128,-1,36
 216 322 216 322 276 322 c 259,25,26
EndSplineSet
EndChar

StartChar: colon
Encoding: 58 58 27
Width: 277
VWidth: 2048
Flags: W
HStem: 0 100<90 192> 418 100<90 192>
VStem: 90 102<0 100 418 518>
LayerCount: 3
Fore
SplineSet
90 418 m 1
 90 518 l 1
 192 518 l 1
 192 418 l 1
 90 418 l 1
90 0 m 1
 90 100 l 1
 192 100 l 1
 192 0 l 1
 90 0 l 1
EndSplineSet
Validated: 19457
Layer: 2
SplineSet
90 418 m 1,0,-1
 90 518 l 1,1,-1
 192 518 l 1,2,-1
 192 418 l 1,3,-1
 90 418 l 1,0,-1
90 0 m 1,4,-1
 90 100 l 1,5,-1
 192 100 l 1,6,-1
 192 0 l 1,7,-1
 90 0 l 1,4,-1
EndSplineSet
EndChar

StartChar: semicolon
Encoding: 59 59 28
Width: 277
VWidth: 2048
Flags: W
HStem: 0 100<89 138> 418 100<89 190>
VStem: 89 101<0 100 418 518> 138 52<-77.0449 0>
LayerCount: 3
Fore
SplineSet
89 418 m 1xe0
 89 518 l 1
 190 518 l 1
 190 418 l 1
 89 418 l 1xe0
89 0 m 1
 89 100 l 1
 190 100 l 1
 190 0 l 2xe0
 190 -71 162 -118 107 -141 c 1
 83 -104 l 1
 118 -89 136 -54 138 0 c 1xd0
 89 0 l 1
EndSplineSet
Validated: 19457
Layer: 2
SplineSet
89 418 m 1,0,-1
 89 518 l 1,1,-1
 190 518 l 1,2,-1
 190 418 l 1,3,-1
 89 418 l 1,0,-1
89 0 m 1,4,-1
 89 100 l 1,5,-1
 190 100 l 1,6,-1
 190 0 l 2,7,8
 190 -106 190 -106 107 -141 c 1,9,-1
 83 -104 l 1,10,11
 135 -82 135 -82 138 0 c 1,12,-1
 89 0 l 1,4,-1
EndSplineSet
EndChar

StartChar: less
Encoding: 60 60 29
Width: 583
VWidth: 2048
Flags: W
HStem: 576 20G<481.836 529>
DStem2: 55 395 153 354 0.920645 0.3904<74.2168 480.891> 153 354 55 313 0.919245 -0.393685<0 407.051>
LayerCount: 3
Fore
SplineSet
55 313 m 1
 55 395 l 1
 529 596 l 1
 529 509 l 1
 153 354 l 1
 529 198 l 1
 529 110 l 1
 55 313 l 1
EndSplineSet
Validated: 1
Layer: 2
SplineSet
55 313 m 1,0,-1
 55 395 l 1,1,-1
 529 596 l 1,2,-1
 529 509 l 1,3,-1
 153 354 l 1,4,-1
 529 198 l 1,5,-1
 529 110 l 1,6,-1
 55 313 l 1,0,-1
EndSplineSet
EndChar

StartChar: equal
Encoding: 61 61 30
Width: 583
VWidth: 2048
Flags: W
HStem: 215 72<55 529> 431 72<55 529>
LayerCount: 3
Fore
SplineSet
529 431 m 1
 55 431 l 1
 55 503 l 1
 529 503 l 1
 529 431 l 1
529 215 m 1
 55 215 l 1
 55 287 l 1
 529 287 l 1
 529 215 l 1
EndSplineSet
Validated: 1
Layer: 2
SplineSet
529 431 m 1,0,-1
 55 431 l 1,1,-1
 55 503 l 1,2,-1
 529 503 l 1,3,-1
 529 431 l 1,0,-1
529 215 m 1,4,-1
 55 215 l 1,5,-1
 55 287 l 1,6,-1
 529 287 l 1,7,-1
 529 215 l 1,4,-1
EndSplineSet
EndChar

StartChar: greater
Encoding: 62 62 31
Width: 583
VWidth: 2048
Flags: W
HStem: 576 20G<55 102.164>
DStem2: 55 596 55 509 0.920645 -0.3904<33.9648 440.639> 55 198 55 110 0.919245 0.393685<0 407.051>
LayerCount: 3
Fore
SplineSet
529 313 m 1
 55 110 l 1
 55 198 l 1
 431 354 l 1
 55 509 l 1
 55 596 l 1
 529 395 l 1
 529 313 l 1
EndSplineSet
Validated: 1
Layer: 2
SplineSet
529 313 m 1,0,-1
 55 110 l 1,1,-1
 55 198 l 1,2,-1
 431 354 l 1,3,-1
 55 509 l 1,4,-1
 55 596 l 1,5,-1
 529 395 l 1,6,-1
 529 313 l 1,0,-1
EndSplineSet
EndChar

StartChar: question
Encoding: 63 63 32
Width: 556
VWidth: 2048
Flags: W
HStem: 0 100<225 325> 656 72<199.09 355.84>
VStem: 44 91<520.154 580.634> 225 100<0 100 176 295.749> 416 89<465.639 597.523>
LayerCount: 3
Fore
SplineSet
416 527 m 3
 416 605 353 656 277 656 c 3
 198 656 150 609 135 510 c 1
 44 521 l 1
 61 659 138 728 276 728 c 3
 402 728 505 660 505 533 c 3
 505 481 483 445 394 355 c 0
 348 308 321 271 319 176 c 1
 230 176 l 1
 230 202 l 2
 230 289 251 324 325 392 c 0
 395 456 416 490 416 527 c 3
225 0 m 1
 225 100 l 1
 325 100 l 1
 325 0 l 1
 225 0 l 1
EndSplineSet
Layer: 2
SplineSet
416 527 m 259,0,1
 416 584 416 584 375.5 620 c 128,-1,2
 335 656 335 656 277 656 c 259,3,4
 217 656 217 656 181.5 620 c 128,-1,5
 146 584 146 584 135 510 c 1,6,-1
 44 521 l 1,7,8
 57 625 57 625 115.5 676.5 c 128,-1,9
 174 728 174 728 276 728 c 259,10,11
 375 728 375 728 440 676.5 c 128,-1,12
 505 625 505 625 505 533 c 259,13,14
 505 494 505 494 482.5 458 c 128,-1,15
 460 422 460 422 394 355 c 256,16,17
 355 315 355 315 337.5 278.5 c 128,-1,18
 320 242 320 242 319 176 c 1,19,-1
 230 176 l 1,20,-1
 230 202 l 2,21,22
 230 266 230 266 249 303 c 128,-1,23
 268 340 268 340 325 392 c 256,24,25
 377 439 377 439 396.5 469 c 128,-1,26
 416 499 416 499 416 527 c 259,0,1
225 0 m 1,27,-1
 225 100 l 1,28,-1
 325 100 l 1,29,-1
 325 0 l 1,30,-1
 225 0 l 1,27,-1
EndSplineSet
EndChar

StartChar: at
Encoding: 64 64 33
Width: 1014
VWidth: 2048
Flags: W
HStem: -210 72<386.781 706.871> -2 72<377.822 495.227 631.5 754.739> 458 72<433.423 563.253> 498 20G<654.385 746> 658 72<401.084 670.331>
VStem: 54 73<103.325 377.005> 241 90<122.598 327.538> 613 48<112 317> 883 73<240.972 460.749>
LayerCount: 3
Fore
SplineSet
979 9 m 1xdf80
 917 -128 741 -210 549 -210 c 3
 225 -210 54 -34 54 228 c 3
 54 515 240 730 538 730 c 3
 779 730 956 578 956 348 c 3
 956 169 821 -2 662 -2 c 3
 601 -2 569 25 567 80 c 1
 521 26 471 -2 417 -2 c 3
 310 -2 241 94 241 218 c 3
 241 381 367 530 494 530 c 3xef80
 556 530 605 500 641 440 c 1
 659 518 l 1
 746 518 l 1
 674 189 l 2
 664 144 661 118 661 112 c 3
 661 90 671 70 694 70 c 3
 777 70 883 210 883 349 c 3
 883 537 737 658 535 658 c 3
 287 658 127 471 127 238 c 3
 127 0 285 -138 547 -138 c 3
 708 -138 823 -89 892 9 c 1
 979 9 l 1xdf80
613 317 m 3
 613 402 568 458 500 458 c 3
 401 458 331 330 331 212 c 3
 331 132 373 70 435 70 c 3
 542 70 613 200 613 317 c 3
EndSplineSet
Layer: 2
SplineSet
979 9 m 1,0,1
 933 -92 933 -92 814.5 -151 c 128,-1,2
 696 -210 696 -210 549 -210 c 259,3,4
 311 -210 311 -210 182.5 -91.5 c 128,-1,5
 54 27 54 27 54 228 c 259,6,7
 54 447 54 447 186 588.5 c 128,-1,8
 318 730 318 730 538 730 c 259,9,10
 721 730 721 730 838.5 624.5 c 128,-1,11
 956 519 956 519 956 348 c 259,12,13
 956 212 956 212 868 105 c 128,-1,14
 780 -2 780 -2 662 -2 c 259,15,16
 570 -2 570 -2 567 80 c 1,17,18
 497 -2 497 -2 417 -2 c 259,19,20
 338 -2 338 -2 289.5 60.5 c 128,-1,21
 241 123 241 123 241 218 c 259,22,23
 241 339 241 339 319.5 434.5 c 128,-1,24
 398 530 398 530 494 530 c 259,25,26
 587 530 587 530 641 440 c 1,27,-1
 659 518 l 1,28,-1
 746 518 l 1,29,-1
 674 189 l 2,30,31
 661 130 661 130 661 112 c 259,32,33
 661 70 661 70 694 70 c 259,34,35
 758 70 758 70 820.5 158.5 c 128,-1,36
 883 247 883 247 883 349 c 259,37,38
 883 488 883 488 785.5 573 c 128,-1,39
 688 658 688 658 535 658 c 259,40,41
 353 658 353 658 240 537.5 c 128,-1,42
 127 417 127 417 127 238 c 259,43,44
 127 60 127 60 238.5 -39 c 128,-1,45
 350 -138 350 -138 547 -138 c 259,46,47
 671 -138 671 -138 756 -100.5 c 128,-1,48
 841 -63 841 -63 892 9 c 1,49,-1
 979 9 l 1,0,1
613 317 m 259,50,51
 613 381 613 381 582 419.5 c 128,-1,52
 551 458 551 458 500 458 c 259,53,54
 429 458 429 458 380 381.5 c 128,-1,55
 331 305 331 305 331 212 c 259,56,57
 331 151 331 151 360 110.5 c 128,-1,58
 389 70 389 70 435 70 c 259,59,60
 512 70 512 70 562.5 147 c 128,-1,61
 613 224 613 224 613 317 c 259,50,51
EndSplineSet
EndChar

StartChar: A
Encoding: 65 65 34
Width: 666
VWidth: 2048
Flags: W
HStem: 0 21G<-2 107.664 558.336 668> 214 84<214 452> 641 75<287 379>
DStem2: -2 0 100 0 0.374292 0.927311<38.1778 267.314 357.186 357.186 577.407 709.242> 379 716 374 504 0.374292 -0.927311<54.4302 414.939>
LayerCount: 3
Back
SplineSet
-2 0 m 1
 274 716 l 1
 376 716 l 1
 670 0 l 1
 561 0 l 1
 478 218 l 1
 178 218 l 1
 100 0 l 1
 -2 0 l 1
205 294 m 1
 448 294 l 1
 374 492 l 2
 349 558 333 607 322 641 c 1
 314 596 300 550 284 504 c 2
 205 294 l 1
EndSplineSet
Fore
SplineSet
287 716 m 1
 379 716 l 1
 668 0 l 1
 566 0 l 1
 484 214 l 1
 182 214 l 1
 100 0 l 1
 -2 0 l 1
 287 716 l 1
214 298 m 1
 452 298 l 1
 374 504 l 2
 357 550 341 596 333 641 c 1
 325 596 309 550 292 504 c 2
 214 298 l 1
EndSplineSet
Layer: 2
SplineSet
287 716 m 1,0,-1
 379 716 l 1,1,-1
 668 0 l 1,2,-1
 566 0 l 1,3,-1
 484 214 l 1,4,-1
 182 214 l 1,5,-1
 100 0 l 1,6,-1
 -2 0 l 1,7,-1
 287 716 l 1,0,-1
214 298 m 1,8,-1
 452 298 l 1,9,-1
 374 504 l 2,10,11
 342 591 342 591 333 641 c 1,12,13
 324 591 324 591 292 504 c 2,14,-1
 214 298 l 1,8,-1
EndSplineSet
EndChar

StartChar: B
Encoding: 66 66 35
Width: 666
VWidth: 2048
Flags: W
HStem: 0 84<169 457.175> 331 84<169 437.946> 632 84<169 438.475>
VStem: 74 95<84 331 415 632> 485 95<455.488 592.43> 517 95<134.904 279.839>
LayerCount: 3
Fore
SplineSet
342 716 m 2xf4
 510 716 580 632 580 533 c 3xf8
 580 464 546 414 478 382 c 1
 569 354 612 297 612 207 c 3
 612 69 526 0 346 0 c 2
 74 0 l 1
 74 716 l 1
 342 716 l 2xf4
323 415 m 2
 449 415 485 457 485 521 c 3
 485 612 430 632 311 632 c 2
 169 632 l 1
 169 415 l 1
 323 415 l 2
517 207 m 3xf4
 517 292 464 331 334 331 c 2
 169 331 l 1
 169 84 l 1
 346 84 l 2
 475 84 517 133 517 207 c 3xf4
EndSplineSet
Layer: 2
SplineSet
342 716 m 2,0,1
 461 716 461 716 520.5 664.5 c 128,-1,2
 580 613 580 613 580 533 c 259,3,4
 580 430 580 430 478 382 c 1,5,6
 612 341 612 341 612 207 c 259,7,8
 612 106 612 106 547.5 53 c 128,-1,9
 483 0 483 0 346 0 c 2,10,-1
 74 0 l 1,11,-1
 74 716 l 1,12,-1
 342 716 l 2,0,1
323 415 m 2,13,14
 412 415 412 415 448.5 442 c 128,-1,15
 485 469 485 469 485 521 c 259,16,17
 485 586 485 586 445 609 c 128,-1,18
 405 632 405 632 311 632 c 2,19,-1
 169 632 l 1,20,-1
 169 415 l 1,21,-1
 323 415 l 2,13,14
517 207 m 259,22,23
 517 271 517 271 474 301 c 128,-1,24
 431 331 431 331 334 331 c 2,25,-1
 169 331 l 1,26,-1
 169 84 l 1,27,-1
 346 84 l 2,28,29
 438 84 438 84 477.5 116 c 128,-1,30
 517 148 517 148 517 207 c 259,22,23
EndSplineSet
EndChar

StartChar: C
Encoding: 67 67 36
Width: 721
VWidth: 2048
Flags: W
HStem: -12 84<275.109 480.618> 646 84<279.712 483.296>
VStem: 52 95<222.514 499.89>
LayerCount: 3
Fore
SplineSet
147 364 m 3
 147 192 219 72 379 72 c 3
 492 72 563 130 589 251 c 1
 684 227 l 1
 642 67 543 -12 386 -12 c 3
 170 -12 52 132 52 364 c 3
 52 591 176 730 388 730 c 3
 536 730 630 660 671 521 c 1
 578 499 l 1
 546 599 481 646 386 646 c 3
 226 646 147 537 147 364 c 3
EndSplineSet
Layer: 2
SplineSet
147 364 m 259,0,1
 147 229 147 229 205 150.5 c 128,-1,2
 263 72 263 72 379 72 c 259,3,4
 551 72 551 72 589 251 c 1,5,-1
 684 227 l 1,6,7
 621 -12 621 -12 386 -12 c 259,8,9
 226 -12 226 -12 139 88 c 128,-1,10
 52 188 52 188 52 364 c 259,11,12
 52 535 52 535 141 632.5 c 128,-1,13
 230 730 230 730 388 730 c 259,14,15
 609 730 609 730 671 521 c 1,16,-1
 578 499 l 1,17,18
 531 646 531 646 386 646 c 259,19,20
 268 646 268 646 207.5 571.5 c 128,-1,21
 147 497 147 497 147 364 c 259,0,1
EndSplineSet
EndChar

StartChar: D
Encoding: 68 68 37
Width: 721
VWidth: 2048
Flags: W
HStem: 0 84<172 449.076> 632 84<172 446.559>
VStem: 77 95<84 632> 573 95<212.695 506.219>
LayerCount: 3
Fore
SplineSet
77 0 m 1
 77 716 l 1
 323 716 l 2
 570 716 668 594 668 362 c 3
 668 121 558 0 336 0 c 2
 77 0 l 1
172 84 m 1
 325 84 l 2
 515 84 573 184 573 363 c 3
 573 544 508 632 322 632 c 2
 172 632 l 1
 172 84 l 1
EndSplineSet
Layer: 2
SplineSet
77 0 m 1,0,-1
 77 716 l 1,1,-1
 323 716 l 2,2,3
 504 716 504 716 586 628 c 128,-1,4
 668 540 668 540 668 362 c 259,5,6
 668 183 668 183 586 91.5 c 128,-1,7
 504 0 504 0 336 0 c 2,8,-1
 77 0 l 1,0,-1
172 84 m 1,9,-1
 325 84 l 2,10,11
 462 84 462 84 517.5 153 c 128,-1,12
 573 222 573 222 573 363 c 259,13,14
 573 502 573 502 515.5 567 c 128,-1,15
 458 632 458 632 322 632 c 2,16,-1
 172 632 l 1,17,-1
 172 84 l 1,9,-1
EndSplineSet
EndChar

StartChar: E
Encoding: 69 69 38
Width: 666
VWidth: 2048
Flags: W
HStem: 0 84<175 613> 328 84<175 570> 632 84<175 598>
VStem: 80 95<84 328 412 632>
LayerCount: 3
Fore
SplineSet
80 0 m 1
 80 716 l 1
 598 716 l 1
 598 632 l 1
 175 632 l 1
 175 412 l 1
 570 412 l 1
 570 328 l 1
 175 328 l 1
 175 84 l 1
 613 84 l 1
 613 0 l 1
 80 0 l 1
EndSplineSet
Validated: 1
Layer: 2
SplineSet
80 0 m 1,0,-1
 80 716 l 1,1,-1
 598 716 l 1,2,-1
 598 632 l 1,3,-1
 175 632 l 1,4,-1
 175 412 l 1,5,-1
 570 412 l 1,6,-1
 570 328 l 1,7,-1
 175 328 l 1,8,-1
 175 84 l 1,9,-1
 613 84 l 1,10,-1
 613 0 l 1,11,-1
 80 0 l 1,0,-1
EndSplineSet
EndChar

StartChar: F
Encoding: 70 70 39
Width: 610
VWidth: 2048
Flags: W
HStem: 0 21G<83 178> 327 84<178 512> 632 84<178 566>
VStem: 83 95<0 327 411 632>
LayerCount: 3
Fore
SplineSet
83 0 m 1
 83 716 l 1
 566 716 l 1
 566 632 l 1
 178 632 l 1
 178 411 l 1
 512 411 l 1
 512 327 l 1
 178 327 l 1
 178 0 l 1
 83 0 l 1
EndSplineSet
Validated: 1
Layer: 2
SplineSet
83 0 m 1,0,-1
 83 716 l 1,1,-1
 566 716 l 1,2,-1
 566 632 l 1,3,-1
 178 632 l 1,4,-1
 178 411 l 1,5,-1
 512 411 l 1,6,-1
 512 327 l 1,7,-1
 178 327 l 1,8,-1
 178 0 l 1,9,-1
 83 0 l 1,0,-1
EndSplineSet
EndChar

StartChar: G
Encoding: 71 71 40
Width: 777
VWidth: 2048
Flags: W
HStem: -12 84<301.461 534.037> 281 84<412 621> 646 84<292.65 516.279>
VStem: 56 95<226.578 494.384> 619 86<514.128 545.739> 621 95<129.709 281>
LayerCount: 3
Fore
SplineSet
151 361 m 3xf8
 151 181 243 72 414 72 c 3
 497 72 566 98 621 147 c 1
 621 281 l 1
 412 281 l 1
 412 365 l 1
 716 365 l 1
 716 100 l 1xf4
 622 25 523 -12 418 -12 c 3
 196 -12 56 124 56 355 c 3
 56 608 205 730 412 730 c 3
 573 730 671 659 705 516 c 1
 619 493 l 1
 590 597 521 646 412 646 c 3
 251 646 151 559 151 361 c 3xf8
EndSplineSet
Layer: 2
SplineSet
151 361 m 259,0,1
 151 225 151 225 219 148.5 c 128,-1,2
 287 72 287 72 414 72 c 259,3,4
 537 72 537 72 621 147 c 1,5,-1
 621 281 l 1,6,-1
 412 281 l 1,7,-1
 412 365 l 1,8,-1
 716 365 l 1,9,-1
 716 100 l 1,10,11
 576 -12 576 -12 418 -12 c 259,12,13
 250 -12 250 -12 153 85.5 c 128,-1,14
 56 183 56 183 56 355 c 259,15,16
 56 539 56 539 153 634.5 c 128,-1,17
 250 730 250 730 412 730 c 259,18,19
 654 730 654 730 705 516 c 1,20,-1
 619 493 l 1,21,22
 576 646 576 646 412 646 c 259,23,24
 287 646 287 646 219 575.5 c 128,-1,25
 151 505 151 505 151 361 c 259,0,1
EndSplineSet
EndChar

StartChar: H
Encoding: 72 72 41
Width: 721
VWidth: 2048
Flags: W
HStem: 0 21G<80 175 547 642> 338 84<175 547> 696 20G<80 175 547 642>
VStem: 80 95<0 338 422 716> 547 95<0 338 422 716>
LayerCount: 3
Fore
SplineSet
80 0 m 1
 80 716 l 1
 175 716 l 1
 175 422 l 1
 547 422 l 1
 547 716 l 1
 642 716 l 1
 642 0 l 1
 547 0 l 1
 547 338 l 1
 175 338 l 1
 175 0 l 1
 80 0 l 1
EndSplineSet
Validated: 1
Layer: 2
SplineSet
80 0 m 1,0,-1
 80 716 l 1,1,-1
 175 716 l 1,2,-1
 175 422 l 1,3,-1
 547 422 l 1,4,-1
 547 716 l 1,5,-1
 642 716 l 1,6,-1
 642 0 l 1,7,-1
 547 0 l 1,8,-1
 547 338 l 1,9,-1
 175 338 l 1,10,-1
 175 0 l 1,11,-1
 80 0 l 1,0,-1
EndSplineSet
EndChar

StartChar: I
Encoding: 73 73 42
Width: 277
VWidth: 2048
Flags: W
HStem: 0 21G<94 189> 696 20G<94 189>
VStem: 94 95<0 716>
LayerCount: 3
Fore
SplineSet
94 0 m 1
 94 716 l 1
 189 716 l 1
 189 0 l 1
 94 0 l 1
EndSplineSet
Validated: 1
Layer: 2
SplineSet
94 0 m 1,0,-1
 94 716 l 1,1,-1
 189 716 l 1,2,-1
 189 0 l 1,3,-1
 94 0 l 1,0,-1
EndSplineSet
EndChar

StartChar: J
Encoding: 74 74 43
Width: 499
VWidth: 2048
Flags: W
HStem: -12 84<155.505 288.907> 696 20G<325 420>
VStem: 28 84<122.556 204> 325 95<111.548 716>
LayerCount: 3
Fore
SplineSet
219 72 m 3
 300 72 325 116 325 224 c 2
 325 716 l 1
 420 716 l 1
 420 228 l 2
 420 67 354 -12 219 -12 c 3
 84 -12 28 61 28 204 c 1
 112 215 l 1
 116 120 152 72 219 72 c 3
EndSplineSet
Layer: 2
SplineSet
219 72 m 259,0,1
 279 72 279 72 302 106.5 c 128,-1,2
 325 141 325 141 325 224 c 2,3,-1
 325 716 l 1,4,-1
 420 716 l 1,5,-1
 420 228 l 2,6,7
 420 111 420 111 371 49.5 c 128,-1,8
 322 -12 322 -12 219 -12 c 259,9,10
 119 -12 119 -12 73.5 41.5 c 128,-1,11
 28 95 28 95 28 204 c 1,12,-1
 112 215 l 1,13,14
 115 140 115 140 143 106 c 128,-1,15
 171 72 171 72 219 72 c 259,0,1
EndSplineSet
EndChar

StartChar: K
Encoding: 75 75 44
Width: 666
VWidth: 2048
Flags: W
HStem: 0 21G<74 169 526.856 665> 696 20G<74 169 504.056 651>
VStem: 74 95<0 248 360 716> 524 127<589 716> 541 124<0 124>
DStem2: 169 360 169 248 0.717449 0.696611<0 84.6174 176.552 502.688>
LayerCount: 3
Fore
SplineSet
74 0 m 1xe8
 74 716 l 1
 169 716 l 1
 169 360 l 1
 524 716 l 1
 651 716 l 1xf0
 351 426 l 1
 665 0 l 1
 541 0 l 1
 285 362 l 1
 169 248 l 1
 169 0 l 1
 74 0 l 1xe8
EndSplineSet
Validated: 1
Layer: 2
SplineSet
74 0 m 1,0,-1
 74 716 l 1,1,-1
 169 716 l 1,2,-1
 169 360 l 1,3,-1
 524 716 l 1,4,-1
 651 716 l 1,5,-1
 351 426 l 1,6,-1
 665 0 l 1,7,-1
 541 0 l 1,8,-1
 285 362 l 1,9,-1
 169 248 l 1,10,-1
 169 0 l 1,11,-1
 74 0 l 1,0,-1
EndSplineSet
EndChar

StartChar: L
Encoding: 76 76 45
Width: 556
VWidth: 2048
Flags: W
HStem: 0 84<169 521> 696 20G<74 169>
VStem: 74 95<84 716>
LayerCount: 3
Fore
SplineSet
74 0 m 1
 74 716 l 1
 169 716 l 1
 169 84 l 1
 521 84 l 1
 521 0 l 1
 74 0 l 1
EndSplineSet
Validated: 1
Layer: 2
SplineSet
74 0 m 1,0,-1
 74 716 l 1,1,-1
 169 716 l 1,2,-1
 169 84 l 1,3,-1
 521 84 l 1,4,-1
 521 0 l 1,5,-1
 74 0 l 1,0,-1
EndSplineSet
EndChar

StartChar: M
Encoding: 77 77 46
Width: 832
VWidth: 2048
Flags: W
HStem: 0 121<312.5 519.5> 696 20G<75 228.521 603.479 757>
VStem: 75 95<0 605> 662 95<0 605>
DStem2: 222 716 170 605 0.318108 -0.948055<88.6925 625.805> 416 121 459 0 0.318108 0.948055<0 537.113>
LayerCount: 3
Back
SplineSet
74 0 m 1
 74 716 l 1
 218 716 l 5
 420 103 l 1
 630 716 l 1
 757 716 l 1
 757 0 l 1
 667 0 l 1
 667 599 l 1
 458 0 l 1
 372 0 l 1
 166 610 l 5
 166 0 l 5
 74 0 l 1
EndSplineSet
Fore
SplineSet
75 0 m 1
 75 716 l 1
 222 716 l 1
 416 121 l 1
 610 716 l 1
 757 716 l 1
 757 0 l 1
 662 0 l 1
 662 605 l 1
 459 0 l 1
 373 0 l 1
 170 605 l 1
 170 0 l 1
 75 0 l 1
EndSplineSet
Validated: 1
Layer: 2
SplineSet
75 0 m 1,0,-1
 75 716 l 1,1,-1
 222 716 l 1,2,-1
 416 121 l 1,3,-1
 610 716 l 1,4,-1
 757 716 l 1,5,-1
 757 0 l 1,6,-1
 662 0 l 1,7,-1
 662 605 l 1,8,-1
 459 0 l 1,9,-1
 373 0 l 1,10,-1
 170 605 l 1,11,-1
 170 0 l 1,12,-1
 75 0 l 1,0,-1
EndSplineSet
EndChar

StartChar: N
Encoding: 78 78 47
Width: 721
VWidth: 2048
Flags: W
HStem: 0 21G<77 172 526.927 641> 696 20G<77 191.119 546 641>
VStem: 77 95<0 563> 546 95<155 716>
DStem2: 178 716 172 563 0.547129 -0.837048<124.786 670.928>
LayerCount: 3
Fore
SplineSet
77 0 m 1
 77 716 l 1
 178 716 l 1
 546 155 l 1
 546 716 l 1
 641 716 l 1
 641 0 l 1
 540 0 l 1
 172 563 l 1
 172 0 l 1
 77 0 l 1
EndSplineSet
Validated: 1
Layer: 2
SplineSet
77 0 m 1,0,-1
 77 716 l 1,1,-1
 178 716 l 1,2,-1
 546 155 l 1,3,-1
 546 716 l 1,4,-1
 641 716 l 1,5,-1
 641 0 l 1,6,-1
 540 0 l 1,7,-1
 172 563 l 1,8,-1
 172 0 l 1,9,-1
 77 0 l 1,0,-1
EndSplineSet
EndChar

StartChar: O
Encoding: 79 79 48
Width: 777
VWidth: 2048
Flags: W
HStem: -12 84<287.755 492.245> 646 84<282.571 497.429>
VStem: 49 95<229.268 492.813> 636 95<229.268 492.813>
LayerCount: 3
Back
SplineSet
390 -12 m 0
 181 -12 49 146 49 349 c 0
 49 570 166 730 390 730 c 0
 565 730 731 609 731 357 c 0
 731 62 521 -12 390 -12 c 0
390 646 m 0
 193 646 144 490 144 349 c 0
 144 191 235 72 390 72 c 0
 547 72 636 193 636 357 c 0
 636 587 495 646 390 646 c 0
EndSplineSet
Fore
SplineSet
390 730 m 3
 614 730 731 570 731 349 c 3
 731 146 599 -12 390 -12 c 3
 181 -12 49 146 49 349 c 3
 49 570 166 730 390 730 c 3
390 72 m 3
 545 72 636 191 636 349 c 3
 636 532 557 646 390 646 c 3
 223 646 144 532 144 349 c 3
 144 191 235 72 390 72 c 3
EndSplineSet
Layer: 2
SplineSet
390 730 m 259,0,1
 553 730 553 730 642 625 c 128,-1,2
 731 520 731 520 731 349 c 259,3,4
 731 193 731 193 637.5 90.5 c 128,-1,5
 544 -12 544 -12 390 -12 c 259,6,7
 236 -12 236 -12 142.5 90.5 c 128,-1,8
 49 193 49 193 49 349 c 259,9,10
 49 520 49 520 138 625 c 128,-1,11
 227 730 227 730 390 730 c 259,0,1
390 72 m 259,12,13
 504 72 504 72 570 149.5 c 128,-1,14
 636 227 636 227 636 349 c 259,15,16
 636 490 636 490 574 568 c 128,-1,17
 512 646 512 646 390 646 c 259,18,19
 268 646 268 646 206 568 c 128,-1,20
 144 490 144 490 144 349 c 259,21,22
 144 227 144 227 210 149.5 c 128,-1,23
 276 72 276 72 390 72 c 259,12,13
EndSplineSet
EndChar

StartChar: P
Encoding: 80 80 49
Width: 666
VWidth: 2048
Flags: W
HStem: 0 21G<77 172> 292 84<172 466.134> 632 84<172 476.302>
VStem: 77 95<0 292 376 632> 526 95<429.022 584.916>
LayerCount: 3
Fore
SplineSet
77 0 m 1
 77 716 l 1
 348 716 l 2
 522 716 621 661 621 509 c 3
 621 363 535 292 356 292 c 2
 172 292 l 1
 172 0 l 1
 77 0 l 1
526 506 m 3
 526 607 465 632 356 632 c 2
 172 632 l 1
 172 376 l 1
 357 376 l 2
 469 376 526 418 526 506 c 3
EndSplineSet
Layer: 2
SplineSet
77 0 m 1,0,-1
 77 716 l 1,1,-1
 348 716 l 2,2,3
 484 716 484 716 552.5 667.5 c 128,-1,4
 621 619 621 619 621 509 c 259,5,6
 621 400 621 400 556 346 c 128,-1,7
 491 292 491 292 356 292 c 2,8,-1
 172 292 l 1,9,-1
 172 0 l 1,10,-1
 77 0 l 1,0,-1
526 506 m 259,11,12
 526 578 526 578 484.5 605 c 128,-1,13
 443 632 443 632 356 632 c 2,14,-1
 172 632 l 1,15,-1
 172 376 l 1,16,-1
 357 376 l 2,17,18
 444 376 444 376 485 409.5 c 128,-1,19
 526 443 526 443 526 506 c 259,11,12
EndSplineSet
EndChar

StartChar: Q
Encoding: 81 81 50
Width: 777
VWidth: 2048
Flags: W
HStem: -12 84<282.566 479.131> 646 84<280.369 489.669>
VStem: 43 95<230.243 493.722> 633 95<227.622 488.07>
LayerCount: 3
Fore
SplineSet
43 359 m 3
 43 583 174 730 386 730 c 3
 600 730 728 589 728 359 c 3
 728 241 691 146 619 77 c 1
 664 46 705 25 742 11 c 1
 714 -55 l 1
 662 -37 612 -8 559 32 c 1
 507 3 448 -12 383 -12 c 3
 180 -12 43 134 43 359 c 3
138 359 m 3
 138 186 228 72 386 72 c 3
 420 72 452 75 481 89 c 1
 452 107 422 121 388 129 c 1
 412 198 l 1
 466 182 510 159 546 129 c 1
 602 181 633 256 633 359 c 3
 633 529 543 646 386 646 c 3
 232 646 138 540 138 359 c 3
EndSplineSet
Layer: 2
SplineSet
43 359 m 259,0,1
 43 528 43 528 135.5 629 c 128,-1,2
 228 730 228 730 386 730 c 259,3,4
 546 730 546 730 637 631 c 128,-1,5
 728 532 728 532 728 359 c 259,6,7
 728 181 728 181 619 77 c 1,8,9
 682 34 682 34 742 11 c 1,10,-1
 714 -55 l 1,11,12
 641 -30 641 -30 559 32 c 1,13,14
 480 -12 480 -12 383 -12 c 259,15,16
 230 -12 230 -12 136.5 89.5 c 128,-1,17
 43 191 43 191 43 359 c 259,0,1
138 359 m 259,18,19
 138 227 138 227 203.5 149.5 c 128,-1,20
 269 72 269 72 386 72 c 259,21,22
 446 72 446 72 481 89 c 1,23,24
 434 118 434 118 388 129 c 1,25,-1
 412 198 l 1,26,27
 491 174 491 174 546 129 c 1,28,29
 633 210 633 210 633 359 c 259,30,31
 633 489 633 489 567.5 567.5 c 128,-1,32
 502 646 502 646 386 646 c 259,33,34
 270 646 270 646 204 570 c 128,-1,35
 138 494 138 494 138 359 c 259,18,19
EndSplineSet
EndChar

StartChar: R
Encoding: 82 82 51
Width: 721
VWidth: 2048
Flags: W
HStem: 0 21G<78 173 577.574 710> 316 84<173 374.216> 632 84<173 502.311>
VStem: 78 95<0 316 400 632> 556 95<450.637 586.471> 590 120<0 120>
DStem2: 586 195 485 169 0.536595 -0.84384<-135.702 166.695>
LayerCount: 3
Fore
SplineSet
78 -0 m 1xf4
 78 716 l 1
 395 716 l 2
 569 716 651 670 651 518 c 3xf8
 651 406 584 343 449 325 c 1
 498 305 543 261 586 195 c 2
 710 -0 l 1
 590 0 l 1
 485 169 l 2
 415 281 366 316 284 316 c 2
 173 316 l 1
 173 -0 l 1
 78 -0 l 1xf4
173 400 m 1
 377 400 l 2
 495 400 556 437 556 518 c 3
 556 595 503 632 400 632 c 2
 173 632 l 1
 173 400 l 1
EndSplineSet
Layer: 2
SplineSet
78 -0 m 1,0,-1
 78 716 l 1,1,-1
 395 716 l 2,2,3
 530 716 530 716 590.5 672.5 c 128,-1,4
 651 629 651 629 651 518 c 259,5,6
 651 435 651 435 601 387 c 128,-1,7
 551 339 551 339 449 325 c 1,8,9
 520 296 520 296 586 195 c 2,10,-1
 710 -0 l 1,11,-1
 590 0 l 1,12,-1
 485 169 l 2,13,14
 433 253 433 253 389.5 284.5 c 128,-1,15
 346 316 346 316 284 316 c 2,16,-1
 173 316 l 1,17,-1
 173 -0 l 1,18,-1
 78 -0 l 1,0,-1
173 400 m 1,19,-1
 377 400 l 2,20,21
 468 400 468 400 512 430 c 128,-1,22
 556 460 556 460 556 518 c 259,23,24
 556 572 556 572 519 602 c 128,-1,25
 482 632 482 632 400 632 c 2,26,-1
 173 632 l 1,27,-1
 173 400 l 1,19,-1
EndSplineSet
EndChar

StartChar: S
Encoding: 83 83 52
Width: 666
VWidth: 2048
Flags: W
HStem: -12 84<232.839 451.087> 644 84<214.463 430.938>
VStem: 44 91<166.515 230.615> 72 95<480.382 599.689> 503 90<513 575.161> 520 95<131.119 257.983>
LayerCount: 3
Fore
SplineSet
615 202 m 3xd4
 615 68 501 -12 351 -12 c 3
 169 -12 54 68 44 230 c 1
 135 238 l 1
 149 127 219 72 346 72 c 3
 448 72 520 118 520 195 c 3xe4
 520 277 456 294 305 331 c 0
 151 369 72 423 72 532 c 3
 72 663 185 728 323 728 c 3
 480 728 587 657 593 513 c 1
 503 507 l 1xd8
 494 599 435 644 328 644 c 3
 219 644 167 609 167 538 c 3
 167 469 223 450 334 423 c 0
 554 370 615 323 615 202 c 3xd4
EndSplineSet
Layer: 2
SplineSet
615 202 m 259,0,1
 615 104 615 104 540.5 46 c 128,-1,2
 466 -12 466 -12 351 -12 c 259,3,4
 212 -12 212 -12 131.5 49.5 c 128,-1,5
 51 111 51 111 44 230 c 1,6,-1
 135 238 l 1,7,8
 145 157 145 157 197 114.5 c 128,-1,9
 249 72 249 72 346 72 c 259,10,11
 424 72 424 72 472 105 c 128,-1,12
 520 138 520 138 520 195 c 259,13,14
 520 252 520 252 476.5 276 c 128,-1,15
 433 300 433 300 305 331 c 256,16,17
 185 361 185 361 128.5 407 c 128,-1,18
 72 453 72 453 72 532 c 259,19,20
 72 626 72 626 143 677 c 128,-1,21
 214 728 214 728 323 728 c 259,22,23
 444 728 444 728 516.5 673 c 128,-1,24
 589 618 589 618 593 513 c 1,25,-1
 503 507 l 1,26,27
 497 575 497 575 453.5 609.5 c 128,-1,28
 410 644 410 644 328 644 c 259,29,30
 246 644 246 644 206.5 617 c 128,-1,31
 167 590 167 590 167 538 c 259,32,33
 167 490 167 490 204 468 c 128,-1,34
 241 446 241 446 334 423 c 256,35,36
 499 383 499 383 557 338 c 128,-1,37
 615 293 615 293 615 202 c 259,0,1
EndSplineSet
EndChar

StartChar: T
Encoding: 84 84 53
Width: 610
VWidth: 2048
Flags: W
HStem: 0 21G<259 354> 632 84<23 259 354 592>
VStem: 259 95<0 632>
LayerCount: 3
Fore
SplineSet
259 0 m 1
 259 632 l 1
 23 632 l 1
 23 716 l 1
 592 716 l 1
 592 632 l 1
 354 632 l 1
 354 0 l 1
 259 0 l 1
EndSplineSet
Validated: 1
Layer: 2
SplineSet
259 0 m 1,0,-1
 259 632 l 1,1,-1
 23 632 l 1,2,-1
 23 716 l 1,3,-1
 592 716 l 1,4,-1
 592 632 l 1,5,-1
 354 632 l 1,6,-1
 354 0 l 1,7,-1
 259 0 l 1,0,-1
EndSplineSet
EndChar

StartChar: U
Encoding: 85 85 54
Width: 721
VWidth: 2048
Flags: W
HStem: -12 84<256.853 463.369> 696 20G<78 173 547 642>
VStem: 78 95<164.432 716> 547 95<161.391 716>
LayerCount: 3
Fore
SplineSet
354 72 m 3
 506 72 547 144 547 303 c 2
 547 716 l 1
 642 716 l 1
 642 302 l 2
 642 85 558 -12 362 -12 c 3
 156 -12 78 85 78 302 c 2
 78 716 l 1
 173 716 l 1
 173 303 l 2
 173 154 215 72 354 72 c 3
EndSplineSet
Layer: 2
SplineSet
354 72 m 259,0,1
 464 72 464 72 505.5 125.5 c 128,-1,2
 547 179 547 179 547 303 c 2,3,-1
 547 716 l 1,4,-1
 642 716 l 1,5,-1
 642 302 l 2,6,7
 642 139 642 139 575.5 63.5 c 128,-1,8
 509 -12 509 -12 362 -12 c 259,9,10
 209 -12 209 -12 143.5 62.5 c 128,-1,11
 78 137 78 137 78 302 c 2,12,-1
 78 716 l 1,13,-1
 173 716 l 1,14,-1
 173 303 l 2,15,16
 173 185 173 185 213.5 128.5 c 128,-1,17
 254 72 254 72 354 72 c 259,0,1
EndSplineSet
EndChar

StartChar: V
Encoding: 86 86 55
Width: 666
VWidth: 2048
Flags: W
HStem: 0 21G<274.263 387.793> 696 20G<5 114.226 555.516 659>
DStem2: 331 96 380 0 0.363074 0.93176<0 661.925>
LayerCount: 3
Fore
SplineSet
282 0 m 1
 5 716 l 1
 107 716 l 1
 331 96 l 1
 563 716 l 1
 659 716 l 1
 380 0 l 1
 282 0 l 1
EndSplineSet
Validated: 1
Layer: 2
SplineSet
282 0 m 1,0,-1
 5 716 l 1,1,-1
 107 716 l 1,2,-1
 331 96 l 1,3,-1
 563 716 l 1,4,-1
 659 716 l 1,5,-1
 380 0 l 1,6,-1
 282 0 l 1,0,-1
EndSplineSet
EndChar

StartChar: W
Encoding: 87 87 56
Width: 944
VWidth: 2048
Flags: W
HStem: 0 21G<196.693 304.492 639.508 741.503> 630 86<417 532>
VStem: 12 97<619 716> 838 95<621 716>
DStem2: 250 132 299 0 0.264801 0.964303<0 539.009> 532 716 472 630 0.264801 -0.964303<67.042 604.992> 690 132 736 0 0.265282 0.964171<0 602.338>
LayerCount: 3
Fore
SplineSet
202 0 m 1
 12 716 l 1
 109 716 l 1
 250 132 l 1
 417 716 l 1
 532 716 l 1
 690 132 l 1
 838 716 l 1
 933 716 l 1
 736 0 l 1
 645 0 l 1
 472 630 l 1
 299 0 l 1
 202 0 l 1
EndSplineSet
Validated: 1
Layer: 2
SplineSet
202 0 m 1,0,-1
 12 716 l 1,1,-1
 109 716 l 1,2,-1
 250 132 l 1,3,-1
 417 716 l 1,4,-1
 532 716 l 1,5,-1
 690 132 l 1,6,-1
 838 716 l 1,7,-1
 933 716 l 1,8,-1
 736 0 l 1,9,-1
 645 0 l 1,10,-1
 472 630 l 1,11,-1
 299 0 l 1,12,-1
 202 0 l 1,0,-1
EndSplineSet
EndChar

StartChar: X
Encoding: 88 88 57
Width: 666
VWidth: 2048
Flags: W
HStem: 0 21G<5 132.43 529.839 661> 696 20G<37 164.007 507 641>
VStem: 5 113<0 113> 37 113<603 716> 538 103<613 716> 544 117<0 117>
DStem2: 5 0 118 0 0.597128 0.802146<67.4755 434.897 558.577 892.606> 150 716 37 716 0.580916 -0.813964<0 325.96 446.544 811.679>
LayerCount: 3
Fore
SplineSet
5 0 m 1xe4
 282 374 l 1
 37 716 l 1
 150 716 l 1
 337 449 l 1
 337 449 476 632 538 716 c 1
 641 716 l 1xd8
 389 379 l 1
 661 0 l 1
 544 0 l 1
 333 298 l 1
 118 0 l 1
 5 0 l 1xe4
EndSplineSet
Validated: 1
Layer: 2
SplineSet
5 0 m 1,0,-1
 282 374 l 1,1,-1
 37 716 l 1,2,-1
 150 716 l 1,3,-1
 337 449 l 1,4,5
 476 632 476 632 538 716 c 1,6,-1
 641 716 l 1,7,-1
 389 379 l 1,8,-1
 661 0 l 1,9,-1
 544 0 l 1,10,-1
 333 298 l 1,11,-1
 118 0 l 1,12,-1
 5 0 l 1,0,-1
EndSplineSet
EndChar

StartChar: Y
Encoding: 89 89 58
Width: 666
VWidth: 2048
Flags: W
HStem: 0 21G<279 374> 696 20G<3 131.15 535.789 659>
VStem: 3 115<601 716> 279 95<0 303> 549 110<606 716>
DStem2: 118 716 3 716 0.555629 -0.83143<0 391.338> 333 389 374 303 0.567966 0.823052<0 391.819>
LayerCount: 3
Fore
SplineSet
279 0 m 1
 279 303 l 1
 3 716 l 1
 118 716 l 1
 333 389 l 1
 549 716 l 1
 659 716 l 1
 374 303 l 1
 374 0 l 1
 279 0 l 1
EndSplineSet
Validated: 1
Layer: 2
SplineSet
279 0 m 1,0,-1
 279 303 l 1,1,-1
 3 716 l 1,2,-1
 118 716 l 1,3,-1
 333 389 l 1,4,-1
 549 716 l 1,5,-1
 659 716 l 1,6,-1
 374 303 l 1,7,-1
 374 0 l 1,8,-1
 279 0 l 1,0,-1
EndSplineSet
EndChar

StartChar: Z
Encoding: 90 90 59
Width: 610
VWidth: 2048
Flags: W
HStem: 0 84<129 586> 632 84<61 455>
DStem2: 20 89 129 84 0.631232 0.775594<64.9263 695.734>
LayerCount: 3
Fore
SplineSet
20 0 m 1
 20 89 l 1
 455 632 l 1
 61 632 l 1
 61 716 l 1
 575 716 l 1
 575 632 l 1
 129 84 l 1
 586 84 l 1
 586 0 l 1
 20 0 l 1
EndSplineSet
Validated: 1
Layer: 2
SplineSet
20 0 m 1,0,-1
 20 89 l 1,1,-1
 455 632 l 1,2,-1
 61 632 l 1,3,-1
 61 716 l 1,4,-1
 575 716 l 1,5,-1
 575 632 l 1,6,-1
 129 84 l 1,7,-1
 586 84 l 1,8,-1
 586 0 l 1,9,-1
 20 0 l 1,0,-1
EndSplineSet
EndChar

StartChar: bracketleft
Encoding: 91 91 60
Width: 277
VWidth: 2048
Flags: W
HStem: -199 72<156 262> 644 72<156 262>
VStem: 67 195<-199 -127 644 716> 67 89<-127 644>
LayerCount: 3
Fore
SplineSet
67 -199 m 1xe0
 67 716 l 1
 262 716 l 1
 262 644 l 1xe0
 156 644 l 1
 156 -127 l 1xd0
 262 -127 l 1
 262 -199 l 1
 67 -199 l 1xe0
EndSplineSet
Validated: 1
Layer: 2
SplineSet
67 -199 m 1,0,-1
 67 716 l 1,1,-1
 262 716 l 1,2,-1
 262 644 l 1,3,-1
 156 644 l 1,4,-1
 156 -127 l 1,5,-1
 262 -127 l 1,6,-1
 262 -199 l 1,7,-1
 67 -199 l 1,0,-1
EndSplineSet
EndChar

StartChar: backslash
Encoding: 92 92 61
Width: 277
VWidth: 2048
Flags: W
HStem: -12 21G<201.405 277> 708 20G<0 76.5676>
VStem: 0 71<657 728> 207 70<-12 58>
DStem2: 71 728 0 728 0.269389 -0.963032<0 749.28>
LayerCount: 3
Fore
SplineSet
207 -12 m 1
 0 728 l 1
 71 728 l 1
 277 -12 l 1
 207 -12 l 1
EndSplineSet
Validated: 1
Layer: 2
SplineSet
207 -12 m 1,0,-1
 0 728 l 1,1,-1
 71 728 l 1,2,-1
 277 -12 l 1,3,-1
 207 -12 l 1,0,-1
EndSplineSet
EndChar

StartChar: bracketright
Encoding: 93 93 62
Width: 277
VWidth: 2048
Flags: W
HStem: -199 72<18 126> 644 72<18 126>
VStem: 18 195<-199 -127 644 716> 126 87<-127 644>
LayerCount: 3
Fore
SplineSet
213 -199 m 1xe0
 18 -199 l 1
 18 -127 l 1xe0
 126 -127 l 1
 126 644 l 1xd0
 18 644 l 1
 18 716 l 1
 213 716 l 1
 213 -199 l 1xe0
EndSplineSet
Validated: 1
Layer: 2
SplineSet
213 -199 m 1,0,-1
 18 -199 l 1,1,-1
 18 -127 l 1,2,-1
 126 -127 l 1,3,-1
 126 644 l 1,4,-1
 18 644 l 1,5,-1
 18 716 l 1,6,-1
 213 716 l 1,7,-1
 213 -199 l 1,0,-1
EndSplineSet
EndChar

StartChar: asciicircum
Encoding: 94 94 63
Width: 469
VWidth: 2048
Flags: W
HStem: 628 100<149 320>
DStem2: 26 337 116 337 0.404619 0.914485<36.4157 350.681>
LayerCount: 3
Fore
SplineSet
116 337 m 1
 26 337 l 1
 199 728 l 1
 270 728 l 1
 443 337 l 1
 354 337 l 1
 235 628 l 1
 116 337 l 1
EndSplineSet
Validated: 1
Layer: 2
SplineSet
116 337 m 1,0,-1
 26 337 l 1,1,-1
 199 728 l 1,2,-1
 270 728 l 1,3,-1
 443 337 l 1,4,-1
 354 337 l 1,5,-1
 235 628 l 1,6,-1
 116 337 l 1,0,-1
EndSplineSet
EndChar

StartChar: underscore
Encoding: 95 95 64
Width: 556
VWidth: 2048
Flags: W
HStem: -199 64<-15 569>
LayerCount: 3
Fore
SplineSet
-15 -199 m 1
 -15 -135 l 1
 569 -135 l 1
 569 -199 l 1
 -15 -199 l 1
EndSplineSet
Validated: 1
Layer: 2
SplineSet
-15 -199 m 1,0,-1
 -15 -135 l 1,1,-1
 569 -135 l 1,2,-1
 569 -199 l 1,3,-1
 -15 -199 l 1,0,-1
EndSplineSet
EndChar

StartChar: grave
Encoding: 96 96 65
Width: 332
VWidth: 2048
Flags: W
HStem: 582 138<156 161>
VStem: 43 184
LayerCount: 3
Fore
SplineSet
227 582 m 1
 156 582 l 1
 43 720 l 1
 161 720 l 1
 227 582 l 1
EndSplineSet
Validated: 1
Layer: 2
SplineSet
227 582 m 1,0,-1
 156 582 l 1,1,-1
 43 720 l 1,2,-1
 161 720 l 1,3,-1
 227 582 l 1,0,-1
EndSplineSet
EndChar

StartChar: a
Encoding: 97 97 66
Width: 556
VWidth: 2048
Flags: W
HStem: -12 72<150.63 316.572> 0 21G<418 513> 259 72<308.069 397> 458 72<184.225 360.174>
VStem: 35 89<86.2409 188.783> 52 84<370 408.266> 397 89<130.398 259 324.705 422.12>
LayerCount: 3
Fore
SplineSet
273 458 m 3xba
 184 458 156 427 136 359 c 1
 52 371 l 1
 74 477 152 530 285 530 c 3
 424 530 486 494 486 334 c 2
 486 106 l 2
 486 69 495 34 513 0 c 1
 422 0 l 1x76
 414 18 408 40 405 64 c 1
 345 14 281 -12 213 -12 c 3
 113 -12 35 41 35 136 c 3
 35 232 98 278 248 300 c 0
 298 307 351 315 397 331 c 1
 397 353 l 2
 397 423 356 458 273 458 c 3xba
235 60 m 3xba
 365 60 397 142 397 228 c 2
 397 259 l 1
 366 246 327 240 288 234 c 0
 160 213 124 190 124 139 c 3
 124 84 166 60 235 60 c 3xba
EndSplineSet
Layer: 2
SplineSet
273 458 m 259,0,1
 209 458 209 458 180.5 435.5 c 128,-1,2
 152 413 152 413 136 359 c 1,3,-1
 52 371 l 1,4,5
 68 450 68 450 126 490 c 128,-1,6
 184 530 184 530 285 530 c 259,7,8
 395 530 395 530 440.5 489.5 c 128,-1,9
 486 449 486 449 486 334 c 2,10,-1
 486 106 l 2,11,12
 486 51 486 51 513 0 c 1,13,-1
 422 0 l 1,14,15
 409 28 409 28 405 64 c 1,16,17
 314 -12 314 -12 213 -12 c 259,18,19
 135 -12 135 -12 85 27.5 c 128,-1,20
 35 67 35 67 35 136 c 259,21,22
 35 208 35 208 85 245.5 c 128,-1,23
 135 283 135 283 248 300 c 256,24,25
 348 314 348 314 397 331 c 1,26,-1
 397 353 l 2,27,28
 397 405 397 405 366 431.5 c 128,-1,29
 335 458 335 458 273 458 c 259,0,1
235 60 m 259,30,31
 314 60 314 60 355.5 101 c 128,-1,32
 397 142 397 142 397 228 c 2,33,-1
 397 259 l 1,34,35
 366 246 366 246 288 234 c 256,36,37
 193 218 193 218 158.5 198 c 128,-1,38
 124 178 124 178 124 139 c 259,39,40
 124 101 124 101 151 80.5 c 128,-1,41
 178 60 178 60 235 60 c 259,30,31
EndSplineSet
EndChar

StartChar: b
Encoding: 98 98 67
Width: 556
VWidth: 2048
Flags: W
HStem: -12 72<215.737 353.36> 0 21G<64 153> 458 72<218.866 360.213> 696 20G<64 153>
VStem: 64 89<0 64 134.872 380.871 461 716> 426 89<144.04 377.267>
LayerCount: 3
Fore
SplineSet
515 267 m 3x7c
 515 108 434 -12 291 -12 c 3xbc
 230 -12 187 14 153 64 c 1
 153 0 l 1
 64 0 l 1
 64 716 l 1
 153 716 l 1
 153 461 l 1
 190 507 238 530 296 530 c 3
 431 530 515 427 515 267 c 3x7c
288 458 m 3
 196 458 153 373 153 264 c 3
 153 108 216 60 284 60 c 3
 373 60 426 141 426 259 c 3
 426 362 391 458 288 458 c 3
EndSplineSet
Layer: 2
SplineSet
515 267 m 259,0,1
 515 144 515 144 455.5 66 c 128,-1,2
 396 -12 396 -12 291 -12 c 259,3,4
 205 -12 205 -12 153 64 c 1,5,-1
 153 0 l 1,6,-1
 64 0 l 1,7,-1
 64 716 l 1,8,-1
 153 716 l 1,9,-1
 153 461 l 1,10,11
 208 530 208 530 296 530 c 259,12,13
 397 530 397 530 456 458.5 c 128,-1,14
 515 387 515 387 515 267 c 259,0,1
288 458 m 259,15,16
 222 458 222 458 187.5 404 c 128,-1,17
 153 350 153 350 153 264 c 259,18,19
 153 155 153 155 189.5 107.5 c 128,-1,20
 226 60 226 60 284 60 c 259,21,22
 350 60 350 60 388 114.5 c 128,-1,23
 426 169 426 169 426 259 c 259,24,25
 426 345 426 345 393 401.5 c 128,-1,26
 360 458 360 458 288 458 c 259,15,16
EndSplineSet
EndChar

StartChar: c
Encoding: 99 99 68
Width: 499
VWidth: 2048
Flags: W
HStem: -12 72<195.548 347.934> 458 72<197.443 350.052>
VStem: 38 89<139.903 377.477> 397 86<364.942 408.371> 405 85<121.741 179.906>
LayerCount: 3
Fore
SplineSet
38 258 m 3xe8
 38 449 142 530 276 530 c 3
 392 530 461 477 483 366 c 1
 397 353 l 1xf0
 382 423 342 458 279 458 c 3
 179 458 127 392 127 259 c 3
 127 127 178 60 274 60 c 3
 349 60 392 104 405 190 c 1
 490 179 l 1
 471 59 403 -12 276 -12 c 3
 122 -12 38 97 38 258 c 3xe8
EndSplineSet
Layer: 2
SplineSet
38 258 m 259,0,1
 38 395 38 395 103.5 462.5 c 128,-1,2
 169 530 169 530 276 530 c 259,3,4
 450 530 450 530 483 366 c 1,5,-1
 397 353 l 1,6,7
 375 458 375 458 279 458 c 259,8,9
 204 458 204 458 165.5 409 c 128,-1,10
 127 360 127 360 127 259 c 259,11,12
 127 156 127 156 165 108 c 128,-1,13
 203 60 203 60 274 60 c 259,14,15
 385 60 385 60 405 190 c 1,16,-1
 490 179 l 1,17,18
 459 -12 459 -12 276 -12 c 259,19,20
 163 -12 163 -12 100.5 61.5 c 128,-1,21
 38 135 38 135 38 258 c 259,0,1
EndSplineSet
EndChar

StartChar: d
Encoding: 100 100 69
Width: 556
VWidth: 2048
Flags: W
HStem: -12 72<195.636 335.91> 0 21G<397 486> 458 72<187.776 332.245> 696 20G<397 486>
VStem: 34 89<144.438 384.044> 397 89<0 64 131.506 381.133 460 716>
LayerCount: 3
Fore
SplineSet
258 -12 m 3xbc
 117 -12 34 106 34 259 c 3
 34 412 104 530 254 530 c 3
 314 530 362 507 397 460 c 1
 397 716 l 1
 486 716 l 1
 486 0 l 1
 397 0 l 1x7c
 397 64 l 1
 363 14 322 -12 258 -12 c 3xbc
397 251 m 3
 397 389 349 458 262 458 c 3
 170 458 123 392 123 259 c 3
 123 101 208 60 265 60 c 3xbc
 348 60 397 125 397 251 c 3
EndSplineSet
Layer: 2
SplineSet
258 -12 m 259,0,1
 155 -12 155 -12 94.5 64.5 c 128,-1,2
 34 141 34 141 34 259 c 259,3,4
 34 380 34 380 90 455 c 128,-1,5
 146 530 146 530 254 530 c 259,6,7
 345 530 345 530 397 460 c 1,8,-1
 397 716 l 1,9,-1
 486 716 l 1,10,-1
 486 0 l 1,11,-1
 397 0 l 1,12,-1
 397 64 l 1,13,14
 345 -12 345 -12 258 -12 c 259,0,1
397 251 m 259,15,16
 397 356 397 356 362.5 407 c 128,-1,17
 328 458 328 458 262 458 c 259,18,19
 194 458 194 458 158.5 409 c 128,-1,20
 123 360 123 360 123 259 c 259,21,22
 123 153 123 153 167 106.5 c 128,-1,23
 211 60 211 60 265 60 c 259,24,25
 328 60 328 60 362.5 109 c 128,-1,26
 397 158 397 158 397 251 c 259,15,16
EndSplineSet
EndChar

StartChar: e
Encoding: 101 101 70
Width: 556
VWidth: 2048
Flags: W
HStem: -12 72<204.486 358.379> 238 72<132 422> 458 72<203.501 358.994>
VStem: 37 90<147.844 238 310 374.208>
LayerCount: 3
Fore
SplineSet
127 238 m 1
 133 134 186 60 285 60 c 3
 351 60 395 97 422 167 c 1
 512 156 l 1
 481 44 406 -12 284 -12 c 3
 128 -12 37 84 37 256 c 3
 37 420 123 530 279 530 c 3
 419 530 502 439 513 296 c 1
 513 238 l 1
 127 238 l 1
132 310 m 1
 422 310 l 1
 414 408 366 458 281 458 c 3
 192 458 138 393 132 310 c 1
EndSplineSet
Layer: 2
SplineSet
127 238 m 1,0,1
 132 157 132 157 172.5 108.5 c 128,-1,2
 213 60 213 60 285 60 c 259,3,4
 381 60 381 60 422 167 c 1,5,-1
 512 156 l 1,6,7
 466 -12 466 -12 284 -12 c 259,8,9
 167 -12 167 -12 102 57.5 c 128,-1,10
 37 127 37 127 37 256 c 259,11,12
 37 381 37 381 100.5 455.5 c 128,-1,13
 164 530 164 530 279 530 c 259,14,15
 383 530 383 530 444 467.5 c 128,-1,16
 505 405 505 405 513 296 c 1,17,-1
 513 238 l 1,18,-1
 127 238 l 1,0,1
132 310 m 1,19,-1
 422 310 l 1,20,21
 416 386 416 386 380 422 c 128,-1,22
 344 458 344 458 281 458 c 259,23,24
 216 458 216 458 176.5 416.5 c 128,-1,25
 137 375 137 375 132 310 c 1,19,-1
EndSplineSet
EndChar

StartChar: f
Encoding: 102 102 71
Width: 277
VWidth: 2048
Flags: W
HStem: 0 21G<87 176> 451 67<9 87 176 276> 656 72<191.202 300.862>
VStem: 87 89<0 451 518 639.469>
LayerCount: 3
Fore
SplineSet
248 656 m 3
 190 656 176 626 176 567 c 2
 176 518 l 1
 276 518 l 1
 276 451 l 1
 176 451 l 1
 176 0 l 1
 87 0 l 1
 87 451 l 1
 9 451 l 1
 9 518 l 1
 87 518 l 1
 87 575 l 2
 87 663 116 728 230 728 c 3
 256 728 284 725 313 720 c 1
 299 650 l 1
 282 655 264 656 248 656 c 3
EndSplineSet
Layer: 2
SplineSet
248 656 m 259,0,1
 206 656 206 656 191 635 c 128,-1,2
 176 614 176 614 176 567 c 2,3,-1
 176 518 l 1,4,-1
 276 518 l 1,5,-1
 276 451 l 1,6,-1
 176 451 l 1,7,-1
 176 0 l 1,8,-1
 87 0 l 1,9,-1
 87 451 l 1,10,-1
 9 451 l 1,11,-1
 9 518 l 1,12,-1
 87 518 l 1,13,-1
 87 575 l 2,14,15
 87 648 87 648 118.5 688 c 128,-1,16
 150 728 150 728 230 728 c 259,17,18
 267 728 267 728 313 720 c 1,19,-1
 299 650 l 1,20,21
 279 656 279 656 248 656 c 259,0,1
EndSplineSet
EndChar

StartChar: g
Encoding: 103 103 72
Width: 556
VWidth: 2048
Flags: W
HStem: -210 72<170.656 346.436> 0 72<188.037 335.92> 458 72<192.713 334.34> 498 20G<400 489>
VStem: 32 89<149.948 376.871> 51 84<-101.487 -55> 400 89<-78.5604 67 146.094 381.08 457 518>
LayerCount: 3
Fore
SplineSet
489 71 m 2xda
 489 -106 442 -210 256 -210 c 3
 130 -210 51 -159 51 -43 c 1
 135 -55 l 1xd6
 143 -110 182 -138 254 -138 c 3
 372 -138 400 -86 400 67 c 1
 362 23 314 0 256 0 c 3
 118 0 32 110 32 262 c 3
 32 418 113 530 256 530 c 3xea
 319 530 360 506 400 457 c 1
 400 518 l 1
 489 518 l 1
 489 71 l 2xda
264 458 m 3xea
 169 458 121 373 121 268 c 3
 121 138 170 72 265 72 c 3
 362 72 400 159 400 265 c 3
 400 373 358 458 264 458 c 3xea
EndSplineSet
Layer: 2
SplineSet
489 71 m 2,0,1
 489 -72 489 -72 438.5 -141 c 128,-1,2
 388 -210 388 -210 256 -210 c 259,3,4
 158 -210 158 -210 104.5 -169 c 128,-1,5
 51 -128 51 -128 51 -43 c 1,6,-1
 135 -55 l 1,7,8
 141 -95 141 -95 170 -116.5 c 128,-1,9
 199 -138 199 -138 254 -138 c 259,10,11
 341 -138 341 -138 370.5 -94 c 128,-1,12
 400 -50 400 -50 400 67 c 1,13,14
 342 0 342 0 256 0 c 259,15,16
 154 0 154 0 93 73 c 128,-1,17
 32 146 32 146 32 262 c 259,18,19
 32 382 32 382 91.5 456 c 128,-1,20
 151 530 151 530 256 530 c 259,21,22
 340 530 340 530 400 457 c 1,23,-1
 400 518 l 1,24,-1
 489 518 l 1,25,-1
 489 71 l 2,0,1
264 458 m 259,26,27
 196 458 196 458 158.5 404.5 c 128,-1,28
 121 351 121 351 121 268 c 259,29,30
 121 168 121 168 157.5 120 c 128,-1,31
 194 72 194 72 265 72 c 259,32,33
 334 72 334 72 367 125.5 c 128,-1,34
 400 179 400 179 400 265 c 259,35,36
 400 351 400 351 365.5 404.5 c 128,-1,37
 331 458 331 458 264 458 c 259,26,27
EndSplineSet
EndChar

StartChar: h
Encoding: 104 104 73
Width: 556
VWidth: 2048
Flags: W
HStem: 0 21G<66 155 400 489> 458 72<216.97 357.699> 696 20G<66 155>
VStem: 66 89<0 399.863 460 716> 400 89<0 415.76>
LayerCount: 3
Fore
SplineSet
291 458 m 3
 182 458 155 385 155 284 c 2
 155 0 l 1
 66 0 l 1
 66 716 l 1
 155 716 l 1
 155 460 l 1
 195 507 247 530 310 530 c 3
 444 530 489 463 489 328 c 2
 489 0 l 1
 400 0 l 1
 400 328 l 2
 400 412 363 458 291 458 c 3
EndSplineSet
Layer: 2
SplineSet
291 458 m 259,0,1
 215 458 215 458 185 413 c 128,-1,2
 155 368 155 368 155 284 c 2,3,-1
 155 0 l 1,4,-1
 66 0 l 1,5,-1
 66 716 l 1,6,-1
 155 716 l 1,7,-1
 155 460 l 1,8,9
 215 530 215 530 310 530 c 259,10,11
 408 530 408 530 448.5 481 c 128,-1,12
 489 432 489 432 489 328 c 2,13,-1
 489 0 l 1,14,-1
 400 0 l 1,15,-1
 400 328 l 2,16,17
 400 394 400 394 372.5 426 c 128,-1,18
 345 458 345 458 291 458 c 259,0,1
EndSplineSet
EndChar

StartChar: i
Encoding: 105 105 74
Width: 222
VWidth: 2048
Flags: W
HStem: 0 21G<66 155> 498 20G<66 155> 615 101<66 155>
VStem: 66 89<0 518 615 716>
LayerCount: 3
Fore
SplineSet
66 615 m 1
 66 716 l 1
 155 716 l 1
 155 615 l 1
 66 615 l 1
66 0 m 1
 66 518 l 1
 155 518 l 1
 155 0 l 1
 66 0 l 1
EndSplineSet
Validated: 1
Layer: 2
SplineSet
66 615 m 1,0,-1
 66 716 l 1,1,-1
 155 716 l 1,2,-1
 155 615 l 1,3,-1
 66 615 l 1,0,-1
66 0 m 1,4,-1
 66 518 l 1,5,-1
 155 518 l 1,6,-1
 155 0 l 1,7,-1
 66 0 l 1,4,-1
EndSplineSet
EndChar

StartChar: j
Encoding: 106 106 75
Width: 222
VWidth: 2048
Flags: W
HStem: -210 72<-31.712 48.5117> 498 20G<64 153> 615 101<64 153>
VStem: 64 89<-124.132 518 615 716>
LayerCount: 3
Fore
SplineSet
64 615 m 1
 64 716 l 1
 153 716 l 1
 153 615 l 1
 64 615 l 1
153 -29 m 2
 153 -177 101 -210 23 -210 c 3
 0 -210 -23 -207 -46 -201 c 1
 -29 -132 l 1
 -12 -135 2 -138 12 -138 c 3
 49 -138 64 -107 64 -26 c 2
 64 518 l 1
 153 518 l 1
 153 -29 l 2
EndSplineSet
Layer: 2
SplineSet
64 615 m 1,0,-1
 64 716 l 1,1,-1
 153 716 l 1,2,-1
 153 615 l 1,3,-1
 64 615 l 1,0,-1
153 -29 m 2,4,5
 153 -133 153 -133 120 -171.5 c 128,-1,6
 87 -210 87 -210 23 -210 c 259,7,8
 -11 -210 -11 -210 -46 -201 c 1,9,-1
 -29 -132 l 1,10,11
 5 -138 5 -138 12 -138 c 259,12,13
 40 -138 40 -138 52 -112 c 128,-1,14
 64 -86 64 -86 64 -26 c 2,15,-1
 64 518 l 1,16,-1
 153 518 l 1,17,-1
 153 -29 l 2,4,5
EndSplineSet
EndChar

StartChar: k
Encoding: 107 107 76
Width: 499
VWidth: 2048
Flags: W
HStem: 0 21G<66 155 375.019 497> 498 20G<342.286 477> 696 20G<66 155>
VStem: 66 89<0 205 308 716> 362 115<403 518> 388 109<0 109>
DStem2: 155 308 216 265 0.717057 0.697015<0 13.7688 100.027 294.804> 277 326 216 265 0.559386 -0.828908<16.4408 332.316>
LayerCount: 3
Fore
SplineSet
66 0 m 1xf4
 66 716 l 1
 155 716 l 1
 155 308 l 1
 362 518 l 1
 477 518 l 1xf8
 277 326 l 1
 497 0 l 1
 388 0 l 1
 216 265 l 1
 155 205 l 1
 155 0 l 1
 66 0 l 1xf4
EndSplineSet
Validated: 1
Layer: 2
SplineSet
66 0 m 1,0,-1
 66 716 l 1,1,-1
 155 716 l 1,2,-1
 155 308 l 1,3,-1
 362 518 l 1,4,-1
 477 518 l 1,5,-1
 277 326 l 1,6,-1
 497 0 l 1,7,-1
 388 0 l 1,8,-1
 216 265 l 1,9,-1
 155 205 l 1,10,-1
 155 0 l 1,11,-1
 66 0 l 1,0,-1
EndSplineSet
EndChar

StartChar: l
Encoding: 108 108 77
Width: 222
VWidth: 2048
Flags: W
HStem: 0 21G<64 153> 696 20G<64 153>
VStem: 64 89<0 716>
LayerCount: 3
Fore
SplineSet
64 0 m 1
 64 716 l 1
 153 716 l 1
 153 0 l 1
 64 0 l 1
EndSplineSet
Validated: 1
Layer: 2
SplineSet
64 0 m 1,0,-1
 64 716 l 1,1,-1
 153 716 l 1,2,-1
 153 0 l 1,3,-1
 64 0 l 1,0,-1
EndSplineSet
EndChar

StartChar: m
Encoding: 109 109 78
Width: 832
VWidth: 2048
Flags: W
HStem: 0 21G<66 155 374 463 680 769> 458 72<210.898 341.802 521.883 646.692> 498 20G<66 155>
VStem: 66 89<0 391.579 446 518> 374 89<0 401.715> 680 89<0 422.133>
LayerCount: 3
Fore
SplineSet
282 458 m 3xdc
 196 458 155 395 155 270 c 2
 155 0 l 1
 66 0 l 1
 66 518 l 1
 155 518 l 1xbc
 155 446 l 1
 181 503 233 530 302 530 c 3
 379 530 426 500 448 440 c 1
 489 500 543 530 609 530 c 3
 716 530 769 472 769 356 c 2
 769 0 l 1
 680 0 l 1
 680 326 l 2
 680 412 651 458 589 458 c 3
 504 458 463 403 463 302 c 2
 463 0 l 1
 374 0 l 1
 374 337 l 2
 374 415 343 458 282 458 c 3xdc
EndSplineSet
Layer: 2
SplineSet
282 458 m 259,0,1
 155 458 155 458 155 270 c 2,2,-1
 155 0 l 1,3,-1
 66 0 l 1,4,-1
 66 518 l 1,5,-1
 155 518 l 1,6,-1
 155 446 l 1,7,8
 193 530 193 530 302 530 c 259,9,10
 415 530 415 530 448 440 c 1,11,12
 510 530 510 530 609 530 c 259,13,14
 769 530 769 530 769 356 c 2,15,-1
 769 0 l 1,16,-1
 680 0 l 1,17,-1
 680 326 l 2,18,19
 680 458 680 458 589 458 c 259,20,21
 463 458 463 458 463 302 c 2,22,-1
 463 0 l 1,23,-1
 374 0 l 1,24,-1
 374 337 l 2,25,26
 374 458 374 458 282 458 c 259,0,1
EndSplineSet
EndChar

StartChar: n
Encoding: 110 110 79
Width: 556
VWidth: 2048
Flags: W
HStem: 0 21G<66 155 398 487> 458 72<214.558 356.706> 498 20G<66 154>
VStem: 66 89<0 392.082 446 518> 398 89<0 410.876>
LayerCount: 3
Fore
SplineSet
66 0 m 1xd8
 66 518 l 1
 154 518 l 1xb8
 154 446 l 1
 181 503 238 530 311 530 c 3
 428 530 487 468 487 342 c 2
 487 0 l 1
 398 0 l 1
 398 316 l 2
 398 408 363 458 291 458 c 3
 201 458 155 397 155 284 c 2
 155 0 l 1
 66 0 l 1xd8
EndSplineSet
Layer: 2
SplineSet
66 0 m 1,0,-1
 66 518 l 1,1,-1
 154 518 l 1,2,-1
 154 446 l 1,3,4
 194 530 194 530 311 530 c 259,5,6
 487 530 487 530 487 342 c 2,7,-1
 487 0 l 1,8,-1
 398 0 l 1,9,-1
 398 316 l 2,10,11
 398 458 398 458 291 458 c 259,12,13
 155 458 155 458 155 284 c 2,14,-1
 155 0 l 1,15,-1
 66 0 l 1,0,-1
EndSplineSet
EndChar

StartChar: o
Encoding: 111 111 80
Width: 556
VWidth: 2048
Flags: W
HStem: -12 72<199.246 352.754> 458 72<199.954 352.046>
VStem: 32 89<148.647 368.9> 431 89<148.647 368.9>
LayerCount: 3
Fore
SplineSet
276 -12 m 3
 116 -12 32 100 32 259 c 3
 32 419 120 530 276 530 c 3
 432 530 520 419 520 259 c 3
 520 100 436 -12 276 -12 c 3
276 458 m 3
 174 458 121 375 121 259 c 3
 121 140 174 60 276 60 c 3
 378 60 431 140 431 259 c 3
 431 375 378 458 276 458 c 3
EndSplineSet
Layer: 2
SplineSet
276 -12 m 259,0,1
 159 -12 159 -12 95.5 62 c 128,-1,2
 32 136 32 136 32 259 c 259,3,4
 32 381 32 381 96.5 455.5 c 128,-1,5
 161 530 161 530 276 530 c 259,6,7
 391 530 391 530 455.5 455.5 c 128,-1,8
 520 381 520 381 520 259 c 259,9,10
 520 136 520 136 456.5 62 c 128,-1,11
 393 -12 393 -12 276 -12 c 259,0,1
276 458 m 259,12,13
 202 458 202 458 161.5 403.5 c 128,-1,14
 121 349 121 349 121 259 c 259,15,16
 121 168 121 168 161 114 c 128,-1,17
 201 60 201 60 276 60 c 259,18,19
 351 60 351 60 391 114 c 128,-1,20
 431 168 431 168 431 259 c 259,21,22
 431 349 431 349 390.5 403.5 c 128,-1,23
 350 458 350 458 276 458 c 259,12,13
EndSplineSet
EndChar

StartChar: p
Encoding: 112 112 81
Width: 556
VWidth: 2048
Flags: W
HStem: -199 21G<66 155> -12 72<215.683 354.828> 458 72<221.361 358.152> 498 20G<66 155>
VStem: 66 89<-199 54 131.103 377.478 451 518> 426 89<143.84 377.464>
LayerCount: 3
Fore
SplineSet
515 264 m 3xec
 515 110 433 -12 290 -12 c 3
 235 -12 189 11 155 54 c 1
 155 -199 l 1
 66 -199 l 1
 66 518 l 1
 155 518 l 1xdc
 155 451 l 1
 184 504 235 530 296 530 c 3
 439 530 515 419 515 264 c 3xec
288 458 m 3xec
 203 458 155 378 155 256 c 3
 155 130 199 60 285 60 c 3
 381 60 426 147 426 264 c 3
 426 375 381 458 288 458 c 3xec
EndSplineSet
Layer: 2
SplineSet
515 264 m 259,0,1
 515 145 515 145 454.5 66.5 c 128,-1,2
 394 -12 394 -12 290 -12 c 259,3,4
 207 -12 207 -12 155 54 c 1,5,-1
 155 -199 l 1,6,-1
 66 -199 l 1,7,-1
 66 518 l 1,8,-1
 155 518 l 1,9,-1
 155 451 l 1,10,11
 198 530 198 530 296 530 c 259,12,13
 401 530 401 530 458 457 c 128,-1,14
 515 384 515 384 515 264 c 259,0,1
288 458 m 259,15,16
 225 458 225 458 190 403.5 c 128,-1,17
 155 349 155 349 155 256 c 259,18,19
 155 161 155 161 188 110.5 c 128,-1,20
 221 60 221 60 285 60 c 259,21,22
 354 60 354 60 390 116 c 128,-1,23
 426 172 426 172 426 264 c 259,24,25
 426 351 426 351 390.5 404.5 c 128,-1,26
 355 458 355 458 288 458 c 259,15,16
EndSplineSet
EndChar

StartChar: q
Encoding: 113 113 82
Width: 556
VWidth: 2048
Flags: W
HStem: -199 21G<396 485> -12 72<197.074 335.963> 458 72<195.729 331.834> 498 20G<396 485>
VStem: 37 89<144.852 376.951> 396 89<-199 55 131.334 380.715 449 518>
LayerCount: 3
Fore
SplineSet
37 264 m 3xdc
 37 418 111 530 254 530 c 3xec
 319 530 368 504 396 449 c 1
 396 518 l 1
 485 518 l 1
 485 -199 l 1
 396 -199 l 1
 396 55 l 1
 364 11 319 -12 261 -12 c 3
 129 -12 37 100 37 264 c 3xdc
262 458 m 3
 179 458 126 384 126 261 c 3
 126 131 183 60 268 60 c 3
 354 60 396 132 396 253 c 3
 396 387 349 458 262 458 c 3
EndSplineSet
Layer: 2
SplineSet
37 264 m 259,0,1
 37 383 37 383 93.5 456.5 c 128,-1,2
 150 530 150 530 254 530 c 259,3,4
 355 530 355 530 396 449 c 1,5,-1
 396 518 l 1,6,-1
 485 518 l 1,7,-1
 485 -199 l 1,8,-1
 396 -199 l 1,9,-1
 396 55 l 1,10,11
 347 -12 347 -12 261 -12 c 259,12,13
 162 -12 162 -12 99.5 64.5 c 128,-1,14
 37 141 37 141 37 264 c 259,0,1
262 458 m 259,15,16
 199 458 199 458 162.5 405.5 c 128,-1,17
 126 353 126 353 126 261 c 259,18,19
 126 165 126 165 164.5 112.5 c 128,-1,20
 203 60 203 60 268 60 c 259,21,22
 331 60 331 60 363.5 110.5 c 128,-1,23
 396 161 396 161 396 253 c 259,24,25
 396 353 396 353 361.5 405.5 c 128,-1,26
 327 458 327 458 262 458 c 259,15,16
EndSplineSet
EndChar

StartChar: r
Encoding: 114 114 83
Width: 332
VWidth: 2048
Flags: W
HStem: 0 21G<64 153> 458 72<200.697 325.403> 498 20G<64 153>
VStem: 64 89<0 398.178 440 518>
LayerCount: 3
Back
SplineSet
64 0 m 1xd0
 64 518 l 1
 153 518 l 1xb0
 153 440 l 1
 178 500 215 530 256 530 c 0
 287 530 316 521 346 503 c 1
 317 420 l 1
 296 434 274 440 253 440 c 0
 198 440 153 402 153 271 c 2
 153 0 l 1
 64 0 l 1xd0
EndSplineSet
Fore
SplineSet
64 0 m 1xd0
 64 518 l 1
 153 518 l 1xb0
 153 440 l 1
 178 500 215 530 256 530 c 3
 287 530 316 521 346 503 c 1
 317 438 l 1
 296 452 274 458 253 458 c 3
 198 458 153 402 153 271 c 2
 153 0 l 1
 64 0 l 1xd0
EndSplineSet
Layer: 2
SplineSet
64 0 m 1,0,-1
 64 518 l 1,1,-1
 153 518 l 1,2,-1
 153 440 l 1,3,4
 190 530 190 530 256 530 c 259,5,6
 301 530 301 530 346 503 c 1,7,-1
 317 438 l 1,8,9
 287 458 287 458 253 458 c 259,10,11
 209 458 209 458 181 411 c 128,-1,12
 153 364 153 364 153 271 c 2,13,-1
 153 0 l 1,14,-1
 64 0 l 1,0,-1
EndSplineSet
EndChar

StartChar: s
Encoding: 115 115 84
Width: 499
VWidth: 2048
Flags: W
HStem: -12 72<167.239 342.844> 458 72<155.354 320.445>
VStem: 46 89<350.442 437.033> 356 87<384.115 424.264> 372 89<87.532 185.543>
LayerCount: 3
Fore
SplineSet
244 222 m 0xe8
 99 258 46 294 46 382 c 3
 46 464 107 530 236 530 c 3
 363 530 425 486 443 385 c 1
 356 374 l 1xf0
 348 429 310 458 242 458 c 3
 167 458 135 435 135 391 c 3
 135 356 152 337 278 307 c 0
 419 273 461 234 461 153 c 3
 461 50 376 -12 253 -12 c 3
 124 -12 51 43 31 155 c 1
 118 169 l 1
 127 97 173 60 253 60 c 3
 331 60 372 87 372 143 c 3
 372 183 355 195 244 222 c 0xe8
EndSplineSet
Layer: 2
SplineSet
244 222 m 256,0,1
 133 250 133 250 89.5 283.5 c 128,-1,2
 46 317 46 317 46 382 c 259,3,4
 46 447 46 447 94.5 488.5 c 128,-1,5
 143 530 143 530 236 530 c 259,6,7
 331 530 331 530 380 495.5 c 128,-1,8
 429 461 429 461 443 385 c 1,9,-1
 356 374 l 1,10,11
 350 416 350 416 321.5 437 c 128,-1,12
 293 458 293 458 242 458 c 259,13,14
 189 458 189 458 162 441.5 c 128,-1,15
 135 425 135 425 135 391 c 259,16,17
 135 363 135 363 161.5 345.5 c 128,-1,18
 188 328 188 328 278 307 c 256,19,20
 383 282 383 282 422 248 c 128,-1,21
 461 214 461 214 461 153 c 259,22,23
 461 77 461 77 403.5 32.5 c 128,-1,24
 346 -12 346 -12 253 -12 c 259,25,26
 154 -12 154 -12 100 31 c 128,-1,27
 46 74 46 74 31 155 c 1,28,-1
 118 169 l 1,29,30
 125 117 125 117 157.5 88.5 c 128,-1,31
 190 60 190 60 253 60 c 259,32,33
 314 60 314 60 343 81.5 c 128,-1,34
 372 103 372 103 372 143 c 259,35,36
 372 173 372 173 349 187.5 c 128,-1,37
 326 202 326 202 244 222 c 256,0,1
EndSplineSet
EndChar

StartChar: t
Encoding: 116 116 85
Width: 277
VWidth: 2048
Flags: W
HStem: -6 72<181.735 258.788> 451 67<18 82 171 258>
VStem: 82 89<73.7344 451 518 647>
LayerCount: 3
Fore
SplineSet
171 147 m 2
 171 84 188 66 219 66 c 3
 230 66 242 67 258 69 c 1
 271 0 l 1
 245 -5 224 -6 204 -6 c 3
 109 -6 82 25 82 152 c 2
 82 451 l 1
 18 451 l 1
 18 518 l 1
 82 518 l 1
 82 647 l 1
 171 700 l 1
 171 518 l 1
 258 518 l 1
 258 451 l 1
 171 451 l 1
 171 147 l 2
EndSplineSet
Layer: 2
SplineSet
171 147 m 2,0,1
 171 102 171 102 182.5 84 c 128,-1,2
 194 66 194 66 219 66 c 259,3,4
 234 66 234 66 258 69 c 1,5,-1
 271 0 l 1,6,7
 240 -6 240 -6 204 -6 c 259,8,9
 132 -6 132 -6 107 26 c 128,-1,10
 82 58 82 58 82 152 c 2,11,-1
 82 451 l 1,12,-1
 18 451 l 1,13,-1
 18 518 l 1,14,-1
 82 518 l 1,15,-1
 82 647 l 1,16,-1
 171 700 l 1,17,-1
 171 518 l 1,18,-1
 258 518 l 1,19,-1
 258 451 l 1,20,-1
 171 451 l 1,21,-1
 171 147 l 2,0,1
EndSplineSet
EndChar

StartChar: u
Encoding: 117 117 86
Width: 556
VWidth: 2048
Flags: W
HStem: -12 72<190.57 332.04> 0 21G<395 484> 498 20G<64 153 395 484>
VStem: 64 89<100.5 518> 395 89<0 77 119.282 518>
LayerCount: 3
Fore
SplineSet
259 60 m 3xb8
 369 60 395 133 395 241 c 2
 395 518 l 1
 484 518 l 1
 484 0 l 1
 395 0 l 1x78
 395 77 l 1
 366 17 311 -12 241 -12 c 3
 111 -12 64 54 64 198 c 2
 64 518 l 1
 153 518 l 1
 153 231 l 2
 153 111 174 60 259 60 c 3xb8
EndSplineSet
Layer: 2
SplineSet
259 60 m 259,0,1
 336 60 336 60 365.5 106 c 128,-1,2
 395 152 395 152 395 241 c 2,3,-1
 395 518 l 1,4,-1
 484 518 l 1,5,-1
 484 0 l 1,6,-1
 395 0 l 1,7,-1
 395 77 l 1,8,9
 352 -12 352 -12 241 -12 c 259,10,11
 145 -12 145 -12 104.5 38 c 128,-1,12
 64 88 64 88 64 198 c 2,13,-1
 64 518 l 1,14,-1
 153 518 l 1,15,-1
 153 231 l 2,16,17
 153 137 153 137 175 98.5 c 128,-1,18
 197 60 197 60 259 60 c 259,0,1
EndSplineSet
EndChar

StartChar: v
Encoding: 118 118 87
Width: 499
VWidth: 2048
Flags: W
HStem: 0 21G<202.355 298.645> 498 20G<12 113.2 391.55 489>
DStem2: 106 518 12 518 0.357045 -0.934087<0 425.049> 250 118 291 0 0.357045 0.934087<0 426.835>
LayerCount: 3
Fore
SplineSet
210 0 m 1
 12 518 l 1
 106 518 l 1
 250 118 l 1
 399 518 l 1
 489 518 l 1
 291 0 l 1
 210 0 l 1
EndSplineSet
Validated: 1
Layer: 2
SplineSet
210 0 m 1,0,-1
 12 518 l 1,1,-1
 106 518 l 1,2,-1
 250 118 l 1,3,-1
 399 518 l 1,4,-1
 489 518 l 1,5,-1
 291 0 l 1,6,-1
 210 0 l 1,0,-1
EndSplineSet
EndChar

StartChar: w
Encoding: 119 119 88
Width: 721
VWidth: 2048
Flags: W
HStem: 0 21G<154.9 259.263 455.887 558.255> 498 20G<3 99.4988 311.647 413.126 623.97 714>
VStem: 3 91<427 518> 630 84<434 518>
DStem2: 94 518 3 518 0.291749 -0.956495<0 426.087> 207 107 254 0 0.25854 0.966<0 321.37> 408 518 359 399 0.247674 -0.968843<103.156 410.862> 510 120 552 0 0.298485 0.954414<0 415.675>
LayerCount: 3
Fore
SplineSet
161 0 m 1
 3 518 l 1
 94 518 l 1
 207 107 l 1
 317 518 l 1
 408 518 l 1
 510 120 l 1
 630 518 l 1
 714 518 l 1
 552 0 l 1
 461 0 l 1
 359 399 l 1
 254 0 l 1
 161 0 l 1
EndSplineSet
Validated: 1
Layer: 2
SplineSet
161 0 m 1,0,-1
 3 518 l 1,1,-1
 94 518 l 1,2,-1
 207 107 l 1,3,-1
 317 518 l 1,4,-1
 408 518 l 1,5,-1
 510 120 l 1,6,-1
 630 518 l 1,7,-1
 714 518 l 1,8,-1
 552 0 l 1,9,-1
 461 0 l 1,10,-1
 359 399 l 1,11,-1
 254 0 l 1,12,-1
 161 0 l 1,0,-1
EndSplineSet
EndChar

StartChar: x
Encoding: 120 120 89
Width: 499
VWidth: 2048
Flags: W
HStem: 0 21G<8 127.093 370.907 494> 498 20G<21 145.953 359.814 478>
VStem: 8 105<0 105> 21 111<407 518> 374 104<414 518> 385 109<0 109>
DStem2: 8 0 113 0 0.577055 0.816706<60.5907 296.694 423.381 634.255> 132 518 21 518 0.574946 -0.818192<0 209.722 333.181 569.285>
LayerCount: 3
Fore
SplineSet
8 0 m 1xe4
 197 268 l 1
 21 518 l 1
 132 518 l 1
 252 346 l 1
 374 518 l 1
 478 518 l 1xd8
 304 271 l 1
 494 0 l 1
 385 0 l 1
 249 193 l 1
 113 0 l 1
 8 0 l 1xe4
EndSplineSet
Validated: 1
Layer: 2
SplineSet
8 0 m 1,0,-1
 197 268 l 1,1,-1
 21 518 l 1,2,-1
 132 518 l 1,3,-1
 252 346 l 1,4,-1
 374 518 l 1,5,-1
 478 518 l 1,6,-1
 304 271 l 1,7,-1
 494 0 l 1,8,-1
 385 0 l 1,9,-1
 249 193 l 1,10,-1
 113 0 l 1,11,-1
 8 0 l 1,0,-1
EndSplineSet
EndChar

StartChar: y
Encoding: 121 121 90
Width: 499
VWidth: 2048
Flags: W
HStem: -210 72<62.9187 159.529> 498 20G<17 117.291 395.715 492>
DStem2: 110 518 17 518 0.353892 -0.935286<0 442.714> 182 -83 294 -9 0.345126 0.938556<-56.0367 88.5991 197.354 640.345>
LayerCount: 3
Fore
SplineSet
63 -199 m 1
 52 -130 l 1
 72 -135 87 -138 103 -138 c 3
 143 -138 171 -112 182 -83 c 2
 213 0 l 1
 17 518 l 1
 110 518 l 1
 219 219 l 2
 235 175 247 135 256 98 c 1
 267 138 278 176 293 216 c 2
 403 518 l 1
 492 518 l 1
 294 -9 l 2
 236 -163 197 -210 120 -210 c 3
 103 -210 83 -207 63 -199 c 1
EndSplineSet
Layer: 2
SplineSet
63 -199 m 1,0,-1
 52 -130 l 1,1,2
 84 -138 84 -138 103 -138 c 259,3,4
 131 -138 131 -138 152 -122 c 128,-1,5
 173 -106 173 -106 182 -83 c 2,6,-1
 213 0 l 1,7,-1
 17 518 l 1,8,-1
 110 518 l 1,9,-1
 219 219 l 2,10,11
 242 156 242 156 256 98 c 1,12,13
 276 171 276 171 293 216 c 2,14,-1
 403 518 l 1,15,-1
 492 518 l 1,16,-1
 294 -9 l 2,17,18
 250 -125 250 -125 213.5 -167.5 c 128,-1,19
 177 -210 177 -210 120 -210 c 259,20,21
 90 -210 90 -210 63 -199 c 1,0,-1
EndSplineSet
EndChar

StartChar: z
Encoding: 122 122 91
Width: 499
VWidth: 2048
Flags: W
HStem: 0 72<125.875 478> 446 72<38 347>
DStem2: 20 71 124 68 0.653168 0.757213<65.6579 499.812>
LayerCount: 3
Fore
SplineSet
20 0 m 1
 20 71 l 1
 347 449 l 1
 311 447 279 446 251 446 c 2
 38 446 l 1
 38 518 l 1
 463 518 l 1
 463 461 l 1
 124 68 l 1
 164 71 204 72 239 72 c 2
 478 72 l 1
 478 0 l 1
 20 0 l 1
EndSplineSet
Validated: 1
Layer: 2
SplineSet
20 0 m 1,0,-1
 20 71 l 1,1,-1
 347 449 l 1,2,3
 293 446 293 446 251 446 c 2,4,-1
 38 446 l 1,5,-1
 38 518 l 1,6,-1
 463 518 l 1,7,-1
 463 461 l 1,8,-1
 124 68 l 1,9,10
 177 72 177 72 239 72 c 2,11,-1
 478 72 l 1,12,-1
 478 0 l 1,13,-1
 20 0 l 1,0,-1
EndSplineSet
EndChar

StartChar: braceleft
Encoding: 123 123 92
Width: 334
VWidth: 2048
Flags: W
HStem: -210 77<228.501 311> 219 80<28 86.5096> 651 77<228.913 311>
VStem: 28 81<178.5 339.5> 135 77<-116.232 153.717 364.283 634.232>
CounterMasks: 1 e0
LayerCount: 3
Fore
SplineSet
28 219 m 1
 28 299 l 1
 94 300 127 354 130 460 c 2
 135 621 l 2
 137 694 200 728 284 728 c 2
 311 728 l 1
 311 651 l 1
 296 651 l 2
 221 651 212 639 212 480 c 3
 212 359 178 287 109 259 c 1
 178 231 212 159 212 38 c 3
 212 -121 221 -133 296 -133 c 2
 311 -133 l 1
 311 -210 l 1
 284 -210 l 2
 199 -210 137 -176 135 -103 c 2
 130 58 l 2
 127 164 94 218 28 219 c 1
EndSplineSet
Layer: 2
SplineSet
28 219 m 1,0,-1
 28 299 l 1,1,2
 125 300 125 300 130 460 c 2,3,-1
 135 621 l 2,4,5
 136 674 136 674 177 701 c 128,-1,6
 218 728 218 728 284 728 c 2,7,-1
 311 728 l 1,8,-1
 311 651 l 1,9,-1
 296 651 l 2,10,11
 255 651 255 651 239.5 640.5 c 128,-1,12
 224 630 224 630 218 597 c 128,-1,13
 212 564 212 564 212 480 c 259,14,15
 212 301 212 301 109 259 c 1,16,17
 212 217 212 217 212 38 c 259,18,19
 212 -46 212 -46 218 -79 c 128,-1,20
 224 -112 224 -112 239.5 -122.5 c 128,-1,21
 255 -133 255 -133 296 -133 c 2,22,-1
 311 -133 l 1,23,-1
 311 -210 l 1,24,-1
 284 -210 l 2,25,26
 217 -210 217 -210 176.5 -183 c 128,-1,27
 136 -156 136 -156 135 -103 c 2,28,-1
 130 58 l 2,29,30
 125 218 125 218 28 219 c 1,0,-1
EndSplineSet
EndChar

StartChar: bar
Encoding: 124 124 93
Width: 259
VWidth: 2048
Flags: W
HStem: -210 21G<92 169> 708 20G<92 169>
VStem: 92 77<-210 728>
LayerCount: 3
Fore
SplineSet
92 -210 m 1
 92 728 l 1
 169 728 l 1
 169 -210 l 1
 92 -210 l 1
EndSplineSet
Validated: 1
Layer: 2
SplineSet
92 -210 m 1,0,-1
 92 728 l 1,1,-1
 169 728 l 1,2,-1
 169 -210 l 1,3,-1
 92 -210 l 1,0,-1
EndSplineSet
EndChar

StartChar: braceright
Encoding: 125 125 94
Width: 334
VWidth: 2048
Flags: W
HStem: -210 77<24 106.087> 219 80<248.49 307> 651 77<24 106.499>
VStem: 123 77<-116.232 153.717 364.283 634.232> 226 81<178.5 339.5>
CounterMasks: 1 e0
LayerCount: 3
Fore
SplineSet
307 219 m 1
 241 218 208 164 205 58 c 2
 200 -103 l 2
 198 -176 135 -210 51 -210 c 2
 24 -210 l 1
 24 -133 l 1
 39 -133 l 2
 114 -133 123 -121 123 38 c 3
 123 159 157 231 226 259 c 1
 157 287 123 359 123 480 c 3
 123 639 114 651 39 651 c 2
 24 651 l 1
 24 728 l 1
 51 728 l 2
 136 728 198 694 200 621 c 2
 205 460 l 2
 208 354 241 300 307 299 c 1
 307 219 l 1
EndSplineSet
Layer: 2
SplineSet
307 219 m 1,0,1
 210 218 210 218 205 58 c 2,2,-1
 200 -103 l 2,3,4
 199 -156 199 -156 158 -183 c 128,-1,5
 117 -210 117 -210 51 -210 c 2,6,-1
 24 -210 l 1,7,-1
 24 -133 l 1,8,-1
 39 -133 l 2,9,10
 80 -133 80 -133 95.5 -122.5 c 128,-1,11
 111 -112 111 -112 117 -79 c 128,-1,12
 123 -46 123 -46 123 38 c 3,13,14
 123 217 123 217 226 259 c 1,15,16
 123 301 123 301 123 480 c 3,17,18
 123 564 123 564 117 597 c 128,-1,19
 111 630 111 630 95.5 640.5 c 128,-1,20
 80 651 80 651 39 651 c 2,21,-1
 24 651 l 1,22,-1
 24 728 l 1,23,-1
 51 728 l 2,24,25
 118 728 118 728 158.5 701 c 128,-1,26
 199 674 199 674 200 621 c 2,27,-1
 205 460 l 2,28,29
 210 300 210 300 307 299 c 1,30,-1
 307 219 l 1,0,1
EndSplineSet
EndChar

StartChar: asciitilde
Encoding: 126 126 95
Width: 583
VWidth: 2048
Flags: W
HStem: 281 84<333.938 487.83> 347 84<100.675 255.446>
LayerCount: 3
Fore
SplineSet
408 281 m 3x80
 366 281 324 297 284 314 c 0
 244 330 205 347 170 347 c 3x40
 130 347 89 324 43 281 c 1x80
 43 372 l 1
 77 411 123 431 178 431 c 3x40
 221 431 265 414 306 398 c 0
 347 381 385 365 415 365 c 3
 460 365 501 388 543 432 c 1
 543 336 l 1
 503 299 458 281 408 281 c 3x80
EndSplineSet
Layer: 2
SplineSet
408 281 m 259,0,1
 362 281 362 281 284 314 c 256,2,3
 202 347 202 347 170 347 c 259,4,5
 114 347 114 347 43 281 c 1,6,-1
 43 372 l 1,7,8
 94 431 94 431 178 431 c 259,9,10
 221 431 221 431 306 398 c 256,11,12
 386 365 386 365 415 365 c 259,13,14
 479 365 479 365 543 432 c 1,15,-1
 543 336 l 1,16,17
 484 281 484 281 408 281 c 259,0,1
EndSplineSet
EndChar

StartChar: ellipsis
Encoding: 8230 8230 100
Width: 570
VWidth: 2048
Flags: W
HStem: 0 118<64.7682 162.165 251.768 349.165 440.18 537.232>
VStem: 55 117<9.76825 108.098> 242 117<9.76825 108.098> 431 116<9.03606 108.845>
LayerCount: 3
Fore
SplineSet
489 0 m 3
 451 0 431 20 431 58 c 3
 431 98 449 118 489 118 c 3
 527 118 547 98 547 58 c 3
 547 20 527 0 489 0 c 3
300 0 m 3
 262 0 242 20 242 58 c 3
 242 98 262 118 300 118 c 3
 339 118 359 98 359 58 c 3
 359 20 339 0 300 0 c 3
113 0 m 3
 75 0 55 20 55 58 c 3
 55 98 75 118 113 118 c 3
 152 118 172 98 172 58 c 3
 172 20 152 0 113 0 c 3
EndSplineSet
Layer: 2
SplineSet
489 0 m 259,0,1
 431 0 431 0 431 58 c 259,2,3
 431 118 431 118 489 118 c 259,4,5
 547 118 547 118 547 58 c 259,6,7
 547 0 547 0 489 0 c 259,0,1
300 0 m 259,8,9
 242 0 242 0 242 58 c 259,10,11
 242 118 242 118 300 118 c 259,12,13
 359 118 359 118 359 58 c 259,14,15
 359 0 359 0 300 0 c 259,8,9
113 0 m 259,16,17
 55 0 55 0 55 58 c 259,18,19
 55 118 55 118 113 118 c 259,20,21
 172 118 172 118 172 58 c 259,22,23
 172 0 172 0 113 0 c 259,16,17
EndSplineSet
EndChar

StartChar: uni0E48.low_left
Encoding: 63237 63237 101
Width: 0
Flags: W
HStem: 665 222<-288 -219>
VStem: -288 69<665 887>
LayerCount: 3
Back
SplineSet
-247 665 m 5
 -316 665 l 5
 -316 887 l 5
 -247 887 l 5
 -247 665 l 5
EndSplineSet
Fore
Refer: 106 63242 N 1 0 0 1 -99 0 2
Validated: 1
Layer: 2
Refer: 106 63242 N 1 0 0 1 -99 0 2
EndChar

StartChar: uni0E49.low_left
Encoding: 63238 63238 102
Width: 0
Flags: W
HStem: 798 42<-529.275 -483.841> 932 43<-529.734 -452.036>
VStem: -585 48<846.859 924.731> -445 48<845.708 925.619>
LayerCount: 3
Back
SplineSet
-447 901 m 0
 -386 901 -364 852 -364 810 c 0
 -364 760 -395 717 -399 717 c 1
 -354 727 -326 740 -290 768 c 0
 -239 803 -215 832 -184 891 c 1
 -184 796 l 1
 -212 757 -241 727 -310 696 c 0
 -358 674 -401 667 -441 667 c 0
 -459 667 -477 669 -494 671 c 1
 -466 687 -440 732 -440 740 c 1
 -445 739 -450 739 -455 739 c 0
 -497 739 -534 767 -534 815 c 0
 -534 845 -517 901 -447 901 c 0
-451 777 m 0
 -423 777 -409 798 -409 819 c 0
 -409 840 -423 861 -451 861 c 0
 -479 861 -493 840 -493 819 c 0
 -493 798 -479 777 -451 777 c 0
EndSplineSet
Fore
Refer: 107 63243 N 1 0 0 1 -199 0 2
Layer: 2
Refer: 107 63243 N 1 0 0 1 -199 0 2
EndChar

StartChar: uni0E4C.low_left
Encoding: 63241 63241 105
Width: 0
Flags: W
HStem: 667 43<-325.703 -247.346> 802 41<-325.775 -250.018>
VStem: -403 70<717.953 830.467> -242 46<715.169 794.796> -110 75<959.165 1006>
LayerCount: 3
Back
SplineSet
-139 972 m 1
 -139 972 l 0
 -143 960 -141 917 -192 889 c 0
 -253 855 -330 877 -382 851 c 0
 -409 837 -411 812 -412 809 c 1
 -399 820 -389 826 -362 826 c 0
 -320 826 -285 794 -285 750 c 0
 -285 699 -322 670 -366 668 c 0
 -441 665 -486 743 -468 812 c 0
 -446 891 -385 912 -284 912 c 0
 -204 912 -213 969 -208 972 c 1
 -139 972 l 1
-368 707 m 0
 -313 707 -314 789 -369 789 c 0
 -423 789 -422 707 -368 707 c 0
EndSplineSet
Fore
Refer: 110 63246 N 1 0 0 1 -99 0 2
Layer: 2
Refer: 110 63246 N 1 0 0 1 -99 0 2
EndChar

StartChar: uni0E48.low
Encoding: 63242 63242 106
Width: 0
Flags: W
HStem: 665 222<-189 -120>
VStem: -189 69<665 887>
AnchorPoint: "AboveMark" -154 988 basemark 0
AnchorPoint: "AboveBase" -113 659 mark 0
LayerCount: 3
Fore
SplineSet
-120 665 m 1
 -189 665 l 1
 -189 887 l 1
 -120 887 l 1
 -120 665 l 1
EndSplineSet
Validated: 1
Layer: 2
SplineSet
-120 665 m 1,0,-1
 -189 665 l 1,1,-1
 -189 887 l 1,2,-1
 -120 887 l 1,3,-1
 -120 665 l 1,0,-1
EndSplineSet
Substitution2: "Thai Phinthu Mai Ek Reordering" uni0E3A
EndChar

StartChar: uni0E49.low
Encoding: 63243 63243 107
Width: 0
Flags: W
HStem: 798 42<-330.275 -284.841> 932 43<-330.734 -253.036>
VStem: -386 48<846.859 924.731> -246 48<845.708 925.619>
AnchorPoint: "AboveMark" -191 988 basemark 0
AnchorPoint: "AboveBase" -13 659 mark 0
LayerCount: 3
Fore
SplineSet
3 820 m 1
 -45 739 -145 686 -262 686 c 3
 -301 686 -337 692 -365 705 c 1
 -332 723 -290 773 -284 799 c 1
 -289 798 -294 798 -299 798 c 3
 -349 798 -386 836 -386 885 c 3
 -386 940 -347 975 -287 975 c 3
 -232 975 -198 934 -198 877 c 3
 -198 840 -216 794 -251 742 c 1
 -133 752 -51 813 3 926 c 1
 3 820 l 1
-291 840 m 3
 -264 840 -246 859 -246 886 c 3
 -246 913 -264 932 -291 932 c 3
 -318 932 -338 913 -338 886 c 3
 -338 859 -318 840 -291 840 c 3
EndSplineSet
Layer: 2
SplineSet
3 820 m 1,0,1
 -33 759 -33 759 -104 722.5 c 128,-1,2
 -175 686 -175 686 -262 686 c 259,3,4
 -324 686 -324 686 -365 705 c 1,5,6
 -341 718 -341 718 -315 748.5 c 128,-1,7
 -289 779 -289 779 -284 799 c 1,8,9
 -289 798 -289 798 -299 798 c 259,10,11
 -336 798 -336 798 -361 823 c 128,-1,12
 -386 848 -386 848 -386 885 c 259,13,14
 -386 926 -386 926 -359 950.5 c 128,-1,15
 -332 975 -332 975 -287 975 c 259,16,17
 -246 975 -246 975 -222 947.5 c 128,-1,18
 -198 920 -198 920 -198 877 c 259,19,20
 -198 821 -198 821 -251 742 c 1,21,22
 -164 750 -164 750 -100.5 796 c 128,-1,23
 -37 842 -37 842 3 926 c 1,24,-1
 3 820 l 1,0,1
-291 840 m 259,25,26
 -271 840 -271 840 -258.5 853 c 128,-1,27
 -246 866 -246 866 -246 886 c 259,28,29
 -246 906 -246 906 -258.5 919 c 128,-1,30
 -271 932 -271 932 -291 932 c 259,31,32
 -311 932 -311 932 -324.5 919 c 128,-1,33
 -338 906 -338 906 -338 886 c 259,34,35
 -338 866 -338 866 -324.5 853 c 128,-1,36
 -311 840 -311 840 -291 840 c 259,25,26
EndSplineSet
Substitution2: "Thai Phinthu Mai Tho Reordering" uni0E3A
EndChar

StartChar: uni0E4A.low
Encoding: 63244 63244 108
Width: 0
Flags: W
HStem: 661 32<-332.897 -280.924> 753 32<-333.411 -280.425> 835 46<-334.813 -254.987 -231.174 -152.726>
VStem: -396 48<771 822.346> -277 33<696.553 749.469> -142 52<711.032 825.771> -25 50<774.915 837.02>
AnchorPoint: "AboveMark" -243 988 basemark 0
AnchorPoint: "AboveBase" -13 659 mark 0
LayerCount: 3
Fore
SplineSet
-172 881 m 3
 -126 881 -90 841 -90 789 c 3
 -90 760 -99 732 -115 705 c 1
 -54 738 -25 795 -25 874 c 1
 25 831 l 1
 3 729 -70 665 -173 665 c 2
 -189 665 l 1
 -161 685 -142 728 -142 768 c 3
 -142 809 -159 835 -190 835 c 3
 -210 835 -234 824 -242 809 c 1
 -250 820 -278 832 -296 832 c 3
 -328 832 -348 808 -348 771 c 1
 -334 780 -317 785 -300 785 c 3
 -268 785 -244 759 -244 726 c 3
 -244 688 -270 661 -310 661 c 3
 -360 661 -396 706 -396 768 c 3
 -396 837 -359 881 -306 881 c 3
 -280 881 -257 867 -244 845 c 1
 -228 868 -202 881 -172 881 c 3
-307 753 m 3
 -324 753 -337 740 -337 723 c 3
 -337 706 -324 693 -307 693 c 3
 -290 693 -277 706 -277 723 c 3
 -277 740 -290 753 -307 753 c 3
EndSplineSet
Layer: 2
SplineSet
-172 881 m 259,0,1
 -137 881 -137 881 -113.5 854.5 c 128,-1,2
 -90 828 -90 828 -90 789 c 259,3,4
 -90 747 -90 747 -115 705 c 1,5,6
 -25 754 -25 754 -25 874 c 1,7,-1
 25 831 l 1,8,9
 8 754 8 754 -44 709.5 c 128,-1,10
 -96 665 -96 665 -173 665 c 2,11,-1
 -189 665 l 1,12,13
 -168 680 -168 680 -155 709 c 128,-1,14
 -142 738 -142 738 -142 768 c 259,15,16
 -142 799 -142 799 -154.5 817 c 128,-1,17
 -167 835 -167 835 -190 835 c 259,18,19
 -205 835 -205 835 -220.5 827.5 c 128,-1,20
 -236 820 -236 820 -242 809 c 1,21,22
 -248 817 -248 817 -265.5 824.5 c 128,-1,23
 -283 832 -283 832 -296 832 c 259,24,25
 -320 832 -320 832 -334 815.5 c 128,-1,26
 -348 799 -348 799 -348 771 c 1,27,28
 -326 785 -326 785 -300 785 c 259,29,30
 -276 785 -276 785 -260 768 c 128,-1,31
 -244 751 -244 751 -244 726 c 259,32,33
 -244 697 -244 697 -262 679 c 128,-1,34
 -280 661 -280 661 -310 661 c 259,35,36
 -347 661 -347 661 -371.5 691 c 128,-1,37
 -396 721 -396 721 -396 768 c 259,38,39
 -396 819 -396 819 -371 850 c 128,-1,40
 -346 881 -346 881 -306 881 c 259,41,42
 -265 881 -265 881 -244 845 c 1,43,44
 -219 881 -219 881 -172 881 c 259,0,1
-307 753 m 259,45,46
 -320 753 -320 753 -328.5 744.5 c 128,-1,47
 -337 736 -337 736 -337 723 c 259,48,49
 -337 710 -337 710 -328.5 701.5 c 128,-1,50
 -320 693 -320 693 -307 693 c 259,51,52
 -294 693 -294 693 -285.5 701.5 c 128,-1,53
 -277 710 -277 710 -277 723 c 259,54,55
 -277 736 -277 736 -285.5 744.5 c 128,-1,56
 -294 753 -294 753 -307 753 c 259,45,46
EndSplineSet
Substitution2: "Thai Phinthu Mai Tri Reordering" uni0E3A
EndChar

StartChar: uni0E4B.low
Encoding: 63245 63245 109
Width: 0
Flags: W
HStem: 752 66<-267 -185 -116 -34>
VStem: -185 69<668 752 818 902>
AnchorPoint: "AboveMark" -150 988 basemark 0
AnchorPoint: "AboveBase" -13 659 mark 0
LayerCount: 3
Fore
SplineSet
-34 818 m 1
 -34 752 l 1
 -116 752 l 1
 -116 668 l 1
 -185 668 l 1
 -185 752 l 1
 -267 752 l 1
 -267 818 l 1
 -185 818 l 1
 -185 902 l 1
 -116 902 l 1
 -116 818 l 1
 -34 818 l 1
EndSplineSet
Validated: 1
Layer: 2
SplineSet
-34 818 m 1,0,-1
 -34 752 l 1,1,-1
 -116 752 l 1,2,-1
 -116 668 l 1,3,-1
 -185 668 l 1,4,-1
 -185 752 l 1,5,-1
 -267 752 l 1,6,-1
 -267 818 l 1,7,-1
 -185 818 l 1,8,-1
 -185 902 l 1,9,-1
 -116 902 l 1,10,-1
 -116 818 l 1,11,-1
 -34 818 l 1,0,-1
EndSplineSet
Substitution2: "Thai Phinthu Mai Chattawa Reordering" uni0E3A
EndChar

StartChar: uni0E4C.low
Encoding: 63246 63246 110
Width: 0
Flags: W
HStem: 667 43<-226.703 -148.346> 802 41<-226.775 -151.018>
VStem: -304 70<717.953 830.467> -143 46<715.169 794.796> -11 75<959.165 1006>
AnchorPoint: "AboveMark" -187 988 basemark 0
AnchorPoint: "AboveBase" -113 659 mark 0
LayerCount: 3
Fore
SplineSet
-97 757 m 3
 -97 706 -136 667 -189 667 c 3
 -254 667 -304 721 -304 791 c 3
 -304 887 -233 939 -95 940 c 0
 -40 941 -17 960 -11 1006 c 1
 64 1006 l 1
 58 930 8 895 -102 889 c 0
 -198 884 -227 870 -238 825 c 1
 -221 837 -203 843 -181 843 c 3
 -132 843 -97 806 -97 757 c 3
-234 756 m 3
 -234 731 -214 710 -189 710 c 3
 -161 710 -143 725 -143 756 c 3
 -143 781 -164 802 -189 802 c 3
 -216 802 -234 783 -234 756 c 3
EndSplineSet
Layer: 2
SplineSet
-97 757 m 0,0,1
 -97 719 -97 719 -123 693 c 128,-1,2
 -149 667 -149 667 -189 667 c 259,3,4
 -238 667 -238 667 -271 702.5 c 128,-1,5
 -304 738 -304 738 -304 791 c 259,6,7
 -304 863 -304 863 -251.5 901 c 128,-1,8
 -199 939 -199 939 -95 940 c 0,9,10
 -55 940 -55 940 -35.5 955.5 c 128,-1,11
 -16 971 -16 971 -11 1006 c 1,12,-1
 64 1006 l 1,13,14
 60 949 60 949 20.5 921.5 c 128,-1,15
 -19 894 -19 894 -102 889 c 0,16,17
 -174 885 -174 885 -202 872 c 128,-1,18
 -230 859 -230 859 -238 825 c 1,19,20
 -212 843 -212 843 -181 843 c 259,21,22
 -144 843 -144 843 -120.5 818.5 c 128,-1,23
 -97 794 -97 794 -97 757 c 0,0,1
-234 756 m 259,24,25
 -234 737 -234 737 -221 723.5 c 128,-1,26
 -208 710 -208 710 -189 710 c 259,27,28
 -166 710 -166 710 -154.5 721.5 c 128,-1,29
 -143 733 -143 733 -143 756 c 259,30,31
 -143 775 -143 775 -156.5 788.5 c 128,-1,32
 -170 802 -170 802 -189 802 c 259,33,34
 -209 802 -209 802 -221.5 789 c 128,-1,35
 -234 776 -234 776 -234 756 c 259,24,25
EndSplineSet
Substitution2: "Thai Phinthu Thanthakhat Reordering" uni0E3A
EndChar

StartChar: uni0E0D.descless
Encoding: 63247 63247 111
Width: 800
Flags: W
HStem: -3 50<148.062 227.627> 0 61<353 395 464 624.13> 138 50<152.31 227.544> 532 61<146.311 356.919>
VStem: 83 69<182 376.373> 83 58<54.5541 131.419> 234 50<53.6478 131.934> 395 69<61 498.016> 627 69<64.1211 590>
LayerCount: 3
Fore
SplineSet
590 61 m 2x7780
 615 61 627 75 627 102 c 2
 627 590 l 1
 696 590 l 1
 696 82 l 2
 696 32 666 0 615 0 c 2
 353 0 l 1
 353 61 l 1
 395 61 l 1
 395 445 l 2
 395 503 344 532 250 532 c 3
 199 532 156 519 129 501 c 1
 162 491 202 465 254 423 c 1
 188 410 152 368 152 308 c 2
 152 182 l 1x7b80
 162 186 177 188 189 188 c 3
 245 188 284 152 284 96 c 3
 284 39 245 -3 184 -3 c 3
 120 -3 83 36 83 100 c 2xb780
 83 322 l 2xbb80
 83 364 106 404 141 426 c 1
 116 450 55 480 6 487 c 1
 71 556 169 593 274 593 c 3
 388 593 464 538 464 448 c 2
 464 61 l 1
 590 61 l 2x7780
188 47 m 3xb780
 219 47 234 70 234 93 c 3
 234 115 219 138 188 138 c 3
 157 138 141 115 141 93 c 3
 141 70 157 47 188 47 c 3xb780
EndSplineSet
Layer: 2
SplineSet
590 61 m 2,0,1
 627 61 627 61 627 102 c 2,2,-1
 627 590 l 1,3,-1
 696 590 l 1,4,-1
 696 82 l 2,5,6
 696 44 696 44 674.5 22 c 128,-1,7
 653 0 653 0 615 0 c 2,8,-1
 353 0 l 1,9,-1
 353 61 l 1,10,-1
 395 61 l 1,11,-1
 395 445 l 2,12,13
 395 489 395 489 358.5 510.5 c 128,-1,14
 322 532 322 532 250 532 c 259,15,16
 176 532 176 532 129 501 c 1,17,18
 174 487 174 487 254 423 c 1,19,20
 205 413 205 413 178.5 383 c 128,-1,21
 152 353 152 353 152 308 c 2,22,-1
 152 182 l 1,23,24
 167 188 167 188 189 188 c 259,25,26
 231 188 231 188 257.5 163 c 128,-1,27
 284 138 284 138 284 96 c 259,28,29
 284 53 284 53 256.5 25 c 128,-1,30
 229 -3 229 -3 184 -3 c 259,31,32
 136 -3 136 -3 109.5 24.5 c 128,-1,33
 83 52 83 52 83 100 c 2,34,-1
 83 322 l 2,35,36
 83 353 83 353 99 381 c 128,-1,37
 115 409 115 409 141 426 c 1,38,39
 121 445 121 445 81 463.5 c 128,-1,40
 41 482 41 482 6 487 c 1,41,42
 106 593 106 593 274 593 c 259,43,44
 360 593 360 593 412 554 c 128,-1,45
 464 515 464 515 464 448 c 2,46,-1
 464 61 l 1,47,-1
 590 61 l 2,0,1
188 47 m 259,48,49
 210 47 210 47 222 60.5 c 128,-1,50
 234 74 234 74 234 93 c 259,51,52
 234 111 234 111 222 124.5 c 128,-1,53
 210 138 210 138 188 138 c 259,54,55
 166 138 166 138 153.5 124.5 c 128,-1,56
 141 111 141 111 141 93 c 259,57,58
 141 74 141 74 153.5 60.5 c 128,-1,59
 166 47 166 47 188 47 c 259,48,49
EndSplineSet
EndChar

StartChar: quoteleft
Encoding: 8216 8216 112
Width: 268
Flags: W
HStem: 446 145<99.0603 164.838> 679 40<132.915 169>
VStem: 31 66<589 628.627>
LayerCount: 3
Fore
SplineSet
108 446 m 3
 59 446 31 481 31 539 c 3
 31 629 88 706 169 719 c 1
 169 679 l 1
 132 671 97 626 97 589 c 1
 103 591 109 591 115 591 c 3
 156 591 184 562 184 521 c 3
 184 474 155 446 108 446 c 3
EndSplineSet
Layer: 2
SplineSet
108 446 m 259,0,1
 71 446 71 446 51 470.5 c 128,-1,2
 31 495 31 495 31 539 c 259,3,4
 31 607 31 607 70 658 c 128,-1,5
 109 709 109 709 169 719 c 1,6,-1
 169 679 l 1,7,8
 141 673 141 673 119 645 c 128,-1,9
 97 617 97 617 97 589 c 1,10,11
 103 591 103 591 115 591 c 259,12,13
 146 591 146 591 165 571.5 c 128,-1,14
 184 552 184 552 184 521 c 259,15,16
 184 486 184 486 163.5 466 c 128,-1,17
 143 446 143 446 108 446 c 259,0,1
EndSplineSet
EndChar

StartChar: quoteright
Encoding: 8217 8217 113
Width: 278
Flags: W
HStem: 455 40<75 108.387> 583 145<79 145.951>
VStem: 147 68<547.489 586>
LayerCount: 3
Fore
SplineSet
137 728 m 3
 186 728 215 696 215 638 c 3
 215 548 158 468 75 455 c 1
 75 495 l 1
 112 503 147 549 147 586 c 1
 141 584 134 583 128 583 c 3
 88 583 60 614 60 654 c 3
 60 701 90 728 137 728 c 3
EndSplineSet
Layer: 2
SplineSet
137 728 m 259,0,1
 174 728 174 728 194.5 704.5 c 128,-1,2
 215 681 215 681 215 638 c 259,3,4
 215 570 215 570 175.5 517.5 c 128,-1,5
 136 465 136 465 75 455 c 1,6,-1
 75 495 l 1,7,8
 102 501 102 501 124.5 529.5 c 128,-1,9
 147 558 147 558 147 586 c 1,10,11
 138 583 138 583 128 583 c 259,12,13
 98 583 98 583 79 603.5 c 128,-1,14
 60 624 60 624 60 654 c 259,15,16
 60 689 60 689 80.5 708.5 c 128,-1,17
 101 728 101 728 137 728 c 259,0,1
EndSplineSet
EndChar

StartChar: quotedblleft
Encoding: 8220 8220 114
Width: 484
Flags: W
HStem: 446 145<116.06 181.838 345.06 410.838> 679 40<149.915 186 378.915 415>
VStem: 48 66<589 628.627> 277 66<589 628.627>
LayerCount: 3
Back
SplineSet
353 444 m 0
 322 444 276 460 276 534 c 0
 276 598 313 695 415 716 c 1
 415 676 l 1
 381 668 343 622 343 586 c 1
 350 588 356 588 362 588 c 0
 387 588 432 574 432 519 c 0
 432 475 405 444 353 444 c 0
125 446 m 0
 94 446 48 463 48 538 c 0
 48 602 85 698 185 719 c 1
 185 679 l 1
 151 671 113 625 113 589 c 1
 119 591 126 591 132 591 c 0
 166 591 202 567 202 520 c 0
 202 490 187 446 125 446 c 0
EndSplineSet
Fore
Refer: 112 8216 N 1 0 0 1 17 0 2
Refer: 112 8216 N 1 0 0 1 246 0 2
Layer: 2
Refer: 112 8216 N 1 0 0 1 17 0 2
Refer: 112 8216 N 1 0 0 1 246 0 2
EndChar

StartChar: quotedblright
Encoding: 8221 8221 115
Width: 531
Flags: W
HStem: 455 40<85 118.387 314 347.387> 583 145<89 155.951 318 384.951>
VStem: 157 68<547.489 586> 386 68<547.489 586>
LayerCount: 3
Back
SplineSet
377 725 m 0
 407 725 453 708 453 631 c 0
 453 563 416 473 316 452 c 1
 316 492 l 1
 349 499 388 544 388 582 c 1
 382 580 375 580 369 580 c 0
 335 580 299 604 299 651 c 0
 299 711 346 725 377 725 c 0
147 728 m 0
 178 728 226 713 226 639 c 0
 226 574 189 477 86 455 c 1
 86 495 l 1
 122 504 158 550 158 586 c 1
 151 584 145 583 139 583 c 0
 116 583 69 598 69 654 c 0
 69 714 116 728 147 728 c 0
EndSplineSet
Fore
Refer: 113 8217 N 1 0 0 1 239 0 2
Refer: 113 8217 N 1 0 0 1 10 0 2
Layer: 2
Refer: 113 8217 N 1 0 0 1 239 0 2
Refer: 113 8217 N 1 0 0 1 10 0 2
EndChar

StartChar: bullet
Encoding: 8226 8226 116
Width: 528
Flags: W
HStem: 98 336<186.709 355.291>
VStem: 104 334<179.336 352.664>
LayerCount: 3
Fore
SplineSet
271 98 m 3
 160 98 104 182 104 266 c 3
 104 350 160 434 271 434 c 3
 382 434 438 350 438 266 c 3
 438 182 382 98 271 98 c 3
EndSplineSet
Layer: 2
SplineSet
271 98 m 259,0,1
 192 98 192 98 148 148 c 128,-1,2
 104 198 104 198 104 266 c 259,3,4
 104 334 104 334 148 384 c 128,-1,5
 192 434 192 434 271 434 c 259,6,7
 350 434 350 434 394 384 c 128,-1,8
 438 334 438 334 438 266 c 259,9,10
 438 198 438 198 394 148 c 128,-1,11
 350 98 350 98 271 98 c 259,0,1
EndSplineSet
EndChar

StartChar: endash
Encoding: 8211 8211 117
Width: 548
Flags: W
HStem: 258 68<41 523>
LayerCount: 3
Fore
SplineSet
523 258 m 1
 41 258 l 1
 41 326 l 1
 523 326 l 1
 523 258 l 1
EndSplineSet
Validated: 1
Layer: 2
SplineSet
523 258 m 1,0,-1
 41 258 l 1,1,-1
 41 326 l 1,2,-1
 523 326 l 1,3,-1
 523 258 l 1,0,-1
EndSplineSet
EndChar

StartChar: emdash
Encoding: 8212 8212 118
Width: 709
Flags: W
HStem: 258 68<41 682>
LayerCount: 3
Fore
SplineSet
682 258 m 1
 41 258 l 1
 41 326 l 1
 682 326 l 1
 682 258 l 1
EndSplineSet
Validated: 1
Layer: 2
SplineSet
682 258 m 1,0,-1
 41 258 l 1,1,-1
 41 326 l 1,2,-1
 682 326 l 1,3,-1
 682 258 l 1,0,-1
EndSplineSet
EndChar

StartChar: uni0E4C.left
Encoding: 63255 63255 126
Width: 0
Flags: W
HStem: 891 39<-281.455 -211.647> 1012 36<-281.741 -213.529>
VStem: -351 63<935.092 1038.6> -206 41<935.27 1005.56> -87 66<1151.18 1196>
LayerCount: 3
Back
SplineSet
-101 1194 m 1
 -101 1194 l 0
 -103 1185 -103 1143 -147 1119 c 0
 -201 1090 -271 1108 -319 1085 c 0
 -340 1074 -345 1052 -346 1048 c 1
 -333 1058 -326 1064 -300 1064 c 0
 -262 1064 -231 1035 -231 993 c 0
 -231 949 -264 921 -303 920 c 0
 -371 920 -411 990 -395 1052 c 0
 -377 1119 -322 1142 -230 1142 c 0
 -158 1142 -166 1193 -162 1194 c 2
 -101 1194 l 1
-305 955 m 0
 -256 955 -258 1030 -307 1030 c 0
 -356 1030 -354 955 -305 955 c 0
EndSplineSet
Fore
Refer: 200 3660 N 1 0 0 1 -56 0 2
Layer: 2
Refer: 200 3660 N 1 0 0 1 -56 0 2
EndChar

StartChar: uni0E01
Encoding: 3585 3585 128
Width: 626
Flags: W
HStem: 0 21G<100 169 451 520> 532 61<186.532 400.142>
VStem: 100 69<0 377.651> 451 69<0 485.569>
LayerCount: 3
Fore
SplineSet
158 426 m 1
 132 451 65 482 23 487 c 1
 93 549 186 593 291 593 c 3
 429 593 520 530 520 422 c 2
 520 0 l 1
 451 0 l 1
 451 418 l 2
 451 500 387 532 298 532 c 3
 245 532 199 519 158 498 c 1
 176 493 254 441 271 423 c 1
 206 411 169 368 169 308 c 2
 169 0 l 1
 100 0 l 1
 100 322 l 2
 100 365 120 397 158 426 c 1
EndSplineSet
Layer: 2
SplineSet
158 426 m 1,0,1
 138 445 138 445 96 464 c 128,-1,2
 54 483 54 483 23 487 c 1,3,4
 143 593 143 593 291 593 c 259,5,6
 396 593 396 593 458 547.5 c 128,-1,7
 520 502 520 502 520 422 c 2,8,-1
 520 0 l 1,9,-1
 451 0 l 1,10,-1
 451 418 l 2,11,12
 451 473 451 473 412.5 502.5 c 128,-1,13
 374 532 374 532 298 532 c 259,14,15
 224 532 224 532 158 498 c 1,16,17
 171 494 171 494 214.5 465.5 c 128,-1,18
 258 437 258 437 271 423 c 1,19,20
 222 414 222 414 195.5 383.5 c 128,-1,21
 169 353 169 353 169 308 c 2,22,-1
 169 0 l 1,23,-1
 100 0 l 1,24,-1
 100 322 l 2,25,26
 100 382 100 382 158 426 c 1,0,1
EndSplineSet
EndChar

StartChar: uni0E02
Encoding: 3586 3586 129
Width: 648
Flags: W
HStem: 0 61<182 256 325 451.981> 352 50<91.4496 171.891> 532 61<179.676 275.162>
VStem: 34 50<409.386 487.271> 179 50<409.14 489.424> 256 69<61 365.612> 301 69<376.277 506.826> 461 69<70.8936 590>
LayerCount: 3
Fore
SplineSet
193 593 m 3xfb
 303 593 370 534 370 448 c 3xfb
 370 424 361 397 347 366 c 0
 334 338 325 310 325 293 c 2
 325 61 l 1
 409 61 l 2
 435 61 461 72 461 115 c 2
 461 590 l 1
 530 590 l 1
 530 113 l 2
 530 19 478 0 425 0 c 2
 182 0 l 1
 182 61 l 1
 256 61 l 1
 256 280 l 2xfd
 256 319 265 349 278 374 c 0
 292 401 301 426 301 447 c 3
 301 504 264 532 206 532 c 3
 196 532 187 531 179 529 c 1
 211 517 229 489 229 446 c 3
 229 394 194 352 129 352 c 3
 71 352 34 398 34 453 c 3
 34 535 99 593 193 593 c 3xfb
132 496 m 3
 101 496 84 472 84 448 c 3
 84 425 101 402 132 402 c 3
 163 402 179 426 179 450 c 3
 179 473 163 496 132 496 c 3
EndSplineSet
Layer: 2
SplineSet
193 593 m 259,0,1
 275 593 275 593 322.5 553 c 128,-1,2
 370 513 370 513 370 448 c 259,3,4
 370 417 370 417 347 366 c 0,5,6
 325 319 325 319 325 293 c 2,7,-1
 325 61 l 1,8,-1
 409 61 l 2,9,10
 461 61 461 61 461 115 c 2,11,-1
 461 590 l 1,12,-1
 530 590 l 1,13,-1
 530 113 l 2,14,15
 530 0 530 0 425 0 c 2,16,-1
 182 0 l 1,17,-1
 182 61 l 1,18,-1
 256 61 l 1,19,-1
 256 280 l 2,20,21
 256 332 256 332 278 374 c 0,22,23
 301 418 301 418 301 447 c 259,24,25
 301 489 301 489 276 510.5 c 128,-1,26
 251 532 251 532 206 532 c 259,27,28
 191 532 191 532 179 529 c 1,29,30
 229 510 229 510 229 446 c 259,31,32
 229 405 229 405 202.5 378.5 c 128,-1,33
 176 352 176 352 129 352 c 259,34,35
 87 352 87 352 60.5 381.5 c 128,-1,36
 34 411 34 411 34 453 c 259,37,38
 34 515 34 515 78.5 554 c 128,-1,39
 123 593 123 593 193 593 c 259,0,1
132 496 m 259,40,41
 110 496 110 496 97 481.5 c 128,-1,42
 84 467 84 467 84 448 c 259,43,44
 84 430 84 430 97 416 c 128,-1,45
 110 402 110 402 132 402 c 259,46,47
 154 402 154 402 166.5 416.5 c 128,-1,48
 179 431 179 431 179 450 c 259,49,50
 179 469 179 469 166.5 482.5 c 128,-1,51
 154 496 154 496 132 496 c 259,40,41
EndSplineSet
EndChar

StartChar: uni0E03
Encoding: 3587 3587 130
Width: 677
Flags: W
HStem: 0 61<239 310 379 489.42> 260 50<113.037 192.059> 407 50<111.946 191.482> 570 20G<118 189.783 280.783 334.5 497 566>
VStem: 40 65<316.998 493.122> 199 50<316.398 400.668> 310 69<61 424> 350 69<442.125 513.421> 497 69<69.4792 590>
LayerCount: 3
Fore
SplineSet
446 61 m 2xfe80
 487 61 497 88 497 114 c 2
 497 590 l 1
 566 590 l 1
 566 113 l 2
 566 15 501 0 460 0 c 2
 239 0 l 1
 239 61 l 1
 310 61 l 1
 310 424 l 1xfe80
 310 424 320 434 330 444 c 0
 343 458 350 470 350 477 c 3
 350 492 327 520 308 529 c 1
 235 492 l 1
 167 529 l 1
 131 512 106 472 106 443 c 1
 120 450 134 457 148 457 c 3
 207 457 249 418 249 357 c 3
 249 302 206 260 152 260 c 3
 85 260 40 314 40 399 c 3
 40 479 81 558 155 593 c 1
 235 547 l 1
 316 593 l 1
 353 571 419 509 419 493 c 2
 419 460 l 2xfd80
 419 452 392 426 379 417 c 1
 379 61 l 1
 446 61 l 2xfe80
152 310 m 3
 184 310 199 334 199 359 c 3
 199 383 184 407 152 407 c 3
 120 407 105 383 105 359 c 3
 105 334 120 310 152 310 c 3
EndSplineSet
Layer: 2
SplineSet
446 61 m 2,0,1
 497 61 497 61 497 114 c 2,2,-1
 497 590 l 1,3,-1
 566 590 l 1,4,-1
 566 113 l 2,5,6
 566 48 566 48 534 24 c 128,-1,7
 502 0 502 0 460 0 c 2,8,-1
 239 0 l 1,9,-1
 239 61 l 1,10,-1
 310 61 l 1,11,-1
 310 424 l 1,12,-1
 330 444 l 2,13,14
 350 466 350 466 350 477 c 259,15,16
 350 488 350 488 336 505 c 128,-1,17
 322 522 322 522 308 529 c 1,18,-1
 235 492 l 1,19,-1
 167 529 l 1,20,21
 141 517 141 517 123.5 491.5 c 128,-1,22
 106 466 106 466 106 443 c 1,23,24
 134 457 134 457 148 457 c 259,25,26
 193 457 193 457 221 429.5 c 128,-1,27
 249 402 249 402 249 357 c 259,28,29
 249 316 249 316 221 288 c 128,-1,30
 193 260 193 260 152 260 c 259,31,32
 101 260 101 260 70.5 298 c 128,-1,33
 40 336 40 336 40 399 c 259,34,35
 40 461 40 461 70.5 514 c 128,-1,36
 101 567 101 567 155 593 c 1,37,-1
 235 547 l 1,38,-1
 316 593 l 1,39,40
 345 576 345 576 382 540.5 c 128,-1,41
 419 505 419 505 419 493 c 2,42,-1
 419 460 l 2,43,44
 419 454 419 454 404.5 439.5 c 128,-1,45
 390 425 390 425 379 417 c 1,46,-1
 379 61 l 1,47,-1
 446 61 l 2,0,1
152 310 m 259,48,49
 175 310 175 310 187 324.5 c 128,-1,50
 199 339 199 339 199 359 c 259,51,52
 199 379 199 379 187 393 c 128,-1,53
 175 407 175 407 152 407 c 259,54,55
 129 407 129 407 117 393 c 128,-1,56
 105 379 105 379 105 359 c 259,57,58
 105 339 105 339 117 324.5 c 128,-1,59
 129 310 129 310 152 310 c 259,48,49
EndSplineSet
EndChar

StartChar: uni0E04
Encoding: 3588 3588 131
Width: 613
Flags: W
HStem: 0 21G<123 192 432 501> 227 50<192.616 268.169> 371 50<188.767 268.093> 532 61<174.766 365.198>
VStem: 26 69<277.197 455.788> 123 69<0 168.944> 126 56<283.067 364.933> 275 50<283.591 363.987> 432 69<0 470.827>
LayerCount: 3
Fore
SplineSet
26 377 m 3xfd80
 26 508 127 593 282 593 c 3
 419 593 501 510 501 397 c 2
 501 0 l 1
 432 0 l 1
 432 394 l 2
 432 477 375 532 267 532 c 3
 161 532 95 470 95 371 c 3
 95 327 113 266 126 253 c 1
 126 317 l 2xfb80
 126 376 167 421 224 421 c 3
 280 421 325 384 325 322 c 3
 325 266 280 227 230 227 c 3
 213 227 204 230 192 235 c 1
 192 0 l 1
 123 0 l 1
 123 98 l 2
 123 127 116 142 83 203 c 0
 43 277 26 326 26 377 c 3xfd80
228 277 m 3
 259 277 275 300 275 324 c 3
 275 348 259 371 228 371 c 3
 197 371 182 348 182 324 c 3
 182 300 197 277 228 277 c 3
EndSplineSet
Layer: 2
SplineSet
26 377 m 259,0,1
 26 475 26 475 96 534 c 128,-1,2
 166 593 166 593 282 593 c 259,3,4
 383 593 383 593 442 538 c 128,-1,5
 501 483 501 483 501 397 c 2,6,-1
 501 0 l 1,7,-1
 432 0 l 1,8,-1
 432 394 l 2,9,10
 432 458 432 458 389 495 c 128,-1,11
 346 532 346 532 267 532 c 259,12,13
 188 532 188 532 141.5 488.5 c 128,-1,14
 95 445 95 445 95 371 c 259,15,16
 95 339 95 339 105.5 301 c 128,-1,17
 116 263 116 263 126 253 c 1,18,-1
 126 317 l 2,19,20
 126 362 126 362 153.5 391.5 c 128,-1,21
 181 421 181 421 224 421 c 259,22,23
 267 421 267 421 296 394 c 128,-1,24
 325 367 325 367 325 322 c 259,25,26
 325 281 325 281 297 254 c 128,-1,27
 269 227 269 227 230 227 c 259,28,29
 211 227 211 227 192 235 c 1,30,-1
 192 0 l 1,31,-1
 123 0 l 1,32,-1
 123 98 l 2,33,34
 123 119 123 119 116 137 c 128,-1,35
 109 155 109 155 83 203 c 0,36,37
 26 308 26 308 26 377 c 259,0,1
228 277 m 259,38,39
 250 277 250 277 262.5 291 c 128,-1,40
 275 305 275 305 275 324 c 259,41,42
 275 343 275 343 262.5 357 c 128,-1,43
 250 371 250 371 228 371 c 259,44,45
 206 371 206 371 194 357 c 128,-1,46
 182 343 182 343 182 324 c 259,47,48
 182 305 182 305 194 291 c 128,-1,49
 206 277 206 277 228 277 c 259,38,39
EndSplineSet
EndChar

StartChar: uni0E05
Encoding: 3589 3589 132
Width: 591
Flags: W
HStem: 0 21G<101 173 406 475> 226 50<209.571 294.8> 377 50<210.406 294.171> 573 20G<130.5 220.769 308.154 367.5>
VStem: 10 69<257.342 456.092> 101 70<0 108.991> 303 50<284.333 368.849> 406 69<0 495.986>
LayerCount: 3
Fore
SplineSet
337 593 m 1
 398 580 475 528 475 414 c 2
 475 0 l 1
 406 0 l 1
 406 409 l 2
 406 479 381 516 343 535 c 1
 264 472 l 1
 181 535 l 1
 116 502 79 440 79 366 c 3
 79 316 106 233 123 199 c 1
 121 209 121 220 121 230 c 3
 121 352 164 427 247 427 c 3
 312 427 353 386 353 324 c 3
 353 262 312 226 244 226 c 3
 221 226 202 234 184 248 c 1
 181 231 171 172 171 80 c 3
 171 54 171 29 173 0 c 1
 101 0 l 1
 101 45 89 93 55 176 c 0
 21 258 10 304 10 359 c 3
 10 474 66 545 195 593 c 1
 262 541 l 1
 337 593 l 1
253 276 m 3
 287 276 303 301 303 326 c 3
 303 352 287 377 253 377 c 3
 219 377 201 352 201 326 c 3
 201 301 219 276 253 276 c 3
EndSplineSet
Layer: 2
SplineSet
337 593 m 1,0,1
 392 581 392 581 433.5 536.5 c 128,-1,2
 475 492 475 492 475 414 c 2,3,-1
 475 0 l 1,4,-1
 406 0 l 1,5,-1
 406 409 l 2,6,7
 406 504 406 504 343 535 c 1,8,-1
 264 472 l 1,9,-1
 181 535 l 1,10,11
 132 510 132 510 105.5 466 c 128,-1,12
 79 422 79 422 79 366 c 259,13,14
 79 332 79 332 93.5 280 c 128,-1,15
 108 228 108 228 123 199 c 1,16,17
 121 209 121 209 121 230 c 259,18,19
 121 323 121 323 153.5 375 c 128,-1,20
 186 427 186 427 247 427 c 259,21,22
 296 427 296 427 324.5 399 c 128,-1,23
 353 371 353 371 353 324 c 259,24,25
 353 278 353 278 324 252 c 128,-1,26
 295 226 295 226 244 226 c 259,27,28
 212 226 212 226 184 248 c 1,29,30
 171 174 171 174 171 80 c 259,31,32
 171 29 171 29 173 0 c 1,33,-1
 101 0 l 1,34,35
 101 64 101 64 55 176 c 0,36,37
 10 285 10 285 10 359 c 259,38,39
 10 445 10 445 54 501 c 128,-1,40
 98 557 98 557 195 593 c 1,41,-1
 262 541 l 1,42,-1
 337 593 l 1,0,1
253 276 m 259,43,44
 277 276 277 276 290 291 c 128,-1,45
 303 306 303 306 303 326 c 259,46,47
 303 347 303 347 290 362 c 128,-1,48
 277 377 277 377 253 377 c 259,49,50
 229 377 229 377 215 362 c 128,-1,51
 201 347 201 347 201 326 c 259,52,53
 201 306 201 306 215 291 c 128,-1,54
 229 276 229 276 253 276 c 259,43,44
EndSplineSet
EndChar

StartChar: uni0E06
Encoding: 3590 3590 133
Width: 770
Flags: W
HStem: -3 61<231.273 286.628 515.969 583.822> 190 61<234.984 288> 260 50<92.2706 172.064> 406 50<91.9742 171.78> 570 20G<98.5 169.783 260.783 319 589 658>
VStem: 20 65<316.323 492.653> 162 61<62.7899 177.691> 180 50<316.884 398.467> 288 69<59.9856 144 251 435.618> 331 69<444.179 512.088> 589 69<59.6354 590>
DStem2: 357 234 357 144 0.715126 -0.698995<62.9096 268.208>
LayerCount: 3
Back
SplineSet
400 460 m 2xfd60
 400 457 378 436 357 415 c 1
 357 240 l 5
 490 110 l 6
 512 89 533 58 561 58 c 0
 586 58 589 98 589 122 c 2
 589 590 l 1
 658 590 l 1
 658 134 l 2
 658 87 658 39 619 15 c 0
 601 3 583 -3 564 -3 c 0
 537 -3 509 3 484 27 c 6
 357 150 l 5
 357 83 l 2
 357 37 319 -3 271 -3 c 0
 201 -3 162 54 162 117 c 0
 162 166 187 251 288 251 c 1
 288 425 l 2xfea0
 288 428 331 456 331 477 c 0xfc60
 331 503 290 529 288 529 c 2xfca0
 215 492 l 1
 147 529 l 1
 102 508 86 458 86 443 c 1
 100 449 115 456 130 456 c 0
 208 456 230 392 230 358 c 0
 230 302 185 260 131 260 c 0
 85 260 20 294 20 399 c 0
 20 512 90 570 135 593 c 1
 215 547 l 1
 296 593 l 1
 365 553 400 492 400 492 c 1
 400 460 l 2xfd60
132 310 m 0
 164 310 180 334 180 358 c 0xfd20
 180 382 164 406 132 406 c 0
 100 406 85 382 85 358 c 0
 85 334 100 310 132 310 c 0
258 58 m 0
 287 58 288 76 288 95 c 2
 288 190 l 1
 251 190 223 177 223 118 c 0xfea0
 223 86 235 58 258 58 c 0
EndSplineSet
Fore
SplineSet
400 460 m 1xfd60
 385 442 377 434 357 415 c 1
 357 234 l 1
 490 104 l 2
 531 64 540 58 561 58 c 3
 580 58 589 80 589 122 c 2
 589 590 l 1
 658 590 l 1
 658 115 l 2
 658 34 627 -3 564 -3 c 3
 528 -3 500 5 484 21 c 2
 357 144 l 1
 357 83 l 2
 357 37 319 -3 271 -3 c 3
 201 -3 162 54 162 117 c 3
 162 196 209 251 288 251 c 1
 288 425 l 1xfea0
 316 449 331 464 331 477 c 3xfc60
 331 493 317 511 288 529 c 1xfca0
 215 492 l 1
 147 529 l 1
 102 508 86 458 86 443 c 1
 100 449 115 456 130 456 c 3
 208 456 230 392 230 358 c 3
 230 302 185 260 131 260 c 3
 69 260 20 311 20 399 c 3
 20 487 62 556 135 593 c 1
 215 547 l 1
 296 593 l 1
 342 566 374 532 400 492 c 1
 400 460 l 1xfd60
132 310 m 3
 164 310 180 334 180 358 c 3xfd20
 180 382 164 406 132 406 c 3
 100 406 85 382 85 358 c 3
 85 334 100 310 132 310 c 3
258 58 m 3
 281 58 288 68 288 95 c 2
 288 190 l 1
 243 190 223 169 223 118 c 3xfea0
 223 86 235 58 258 58 c 3
EndSplineSet
Layer: 2
SplineSet
400 460 m 1,0,1
 383 440 383 440 357 415 c 1,2,-1
 357 234 l 1,3,-1
 490 104 l 2,4,5
 521 74 521 74 533 66 c 128,-1,6
 545 58 545 58 561 58 c 259,7,8
 589 58 589 58 589 122 c 2,9,-1
 589 590 l 1,10,-1
 658 590 l 1,11,-1
 658 115 l 2,12,13
 658 -3 658 -3 564 -3 c 259,14,15
 508 -3 508 -3 484 21 c 2,16,-1
 357 144 l 1,17,-1
 357 83 l 2,18,19
 357 48 357 48 332 22.5 c 128,-1,20
 307 -3 307 -3 271 -3 c 259,21,22
 221 -3 221 -3 191.5 32 c 128,-1,23
 162 67 162 67 162 117 c 259,24,25
 162 177 162 177 196 214 c 128,-1,26
 230 251 230 251 288 251 c 1,27,-1
 288 425 l 1,28,29
 331 462 331 462 331 477 c 259,30,31
 331 502 331 502 288 529 c 1,32,-1
 215 492 l 1,33,-1
 147 529 l 1,34,35
 117 515 117 515 101.5 487.5 c 128,-1,36
 86 460 86 460 86 443 c 1,37,38
 116 456 116 456 130 456 c 259,39,40
 182 456 182 456 206 424 c 128,-1,41
 230 392 230 392 230 358 c 259,42,43
 230 316 230 316 201 288 c 128,-1,44
 172 260 172 260 131 260 c 259,45,46
 83 260 83 260 51.5 297.5 c 128,-1,47
 20 335 20 335 20 399 c 259,48,49
 20 465 20 465 50 515 c 128,-1,50
 80 565 80 565 135 593 c 1,51,-1
 215 547 l 1,52,-1
 296 593 l 1,53,54
 358 557 358 557 400 492 c 1,55,-1
 400 460 l 1,0,1
132 310 m 259,56,57
 155 310 155 310 167.5 324 c 128,-1,58
 180 338 180 338 180 358 c 259,59,60
 180 378 180 378 167.5 392 c 128,-1,61
 155 406 155 406 132 406 c 259,62,63
 109 406 109 406 97 392 c 128,-1,64
 85 378 85 378 85 358 c 259,65,66
 85 338 85 338 97 324 c 128,-1,67
 109 310 109 310 132 310 c 259,56,57
258 58 m 259,68,69
 275 58 275 58 281.5 66 c 128,-1,70
 288 74 288 74 288 95 c 2,71,-1
 288 190 l 1,72,73
 254 190 254 190 238.5 173 c 128,-1,74
 223 156 223 156 223 118 c 259,75,76
 223 93 223 93 232 75.5 c 128,-1,77
 241 58 241 58 258 58 c 259,68,69
EndSplineSet
EndChar

StartChar: uni0E07
Encoding: 3591 3591 134
Width: 496
Flags: W
HStem: -6 61<250.632 311.806> 228 63<37 110.249> 401 50<242.062 316.807> 543 50<241.939 321.709>
VStem: 185 50<458.329 535.488> 317 69<58.0537 408> 328 58<457.036 535.18>
LayerCount: 3
Fore
SplineSet
185 495 m 3xfc
 185 558 231 593 285 593 c 3
 359 593 386 543 386 490 c 2xfa
 386 120 l 2
 386 40 352 -6 285 -6 c 3
 232 -6 203 21 165 116 c 0
 129 205 106 226 37 228 c 1
 37 291 l 1
 135 291 173 260 221 137 c 0
 245 74 261 55 283 55 c 3
 306 55 317 74 317 107 c 2
 317 408 l 1
 317 408 301 401 279 401 c 3
 232 401 185 434 185 495 c 3xfc
282 451 m 3
 313 451 328 474 328 497 c 3
 328 520 313 543 282 543 c 3
 251 543 235 520 235 497 c 3
 235 474 251 451 282 451 c 3
EndSplineSet
Layer: 2
SplineSet
185 495 m 259,0,1
 185 541 185 541 214 567 c 128,-1,2
 243 593 243 593 285 593 c 259,3,4
 337 593 337 593 361.5 563.5 c 128,-1,5
 386 534 386 534 386 490 c 2,6,-1
 386 120 l 2,7,8
 386 59 386 59 360.5 26.5 c 128,-1,9
 335 -6 335 -6 285 -6 c 259,10,11
 245 -6 245 -6 219 20 c 128,-1,12
 193 46 193 46 165 116 c 0,13,14
 138 183 138 183 113.5 205 c 128,-1,15
 89 227 89 227 37 228 c 1,16,-1
 37 291 l 1,17,18
 111 291 111 291 148 260 c 128,-1,19
 185 229 185 229 221 137 c 0,20,21
 239 91 239 91 252.5 73 c 128,-1,22
 266 55 266 55 283 55 c 259,23,24
 317 55 317 55 317 107 c 2,25,-1
 317 408 l 1,26,27
 301 401 301 401 279 401 c 259,28,29
 241 401 241 401 213 426.5 c 128,-1,30
 185 452 185 452 185 495 c 259,0,1
282 451 m 259,31,32
 304 451 304 451 316 464.5 c 128,-1,33
 328 478 328 478 328 497 c 259,34,35
 328 516 328 516 316 529.5 c 128,-1,36
 304 543 304 543 282 543 c 259,37,38
 260 543 260 543 247.5 529.5 c 128,-1,39
 235 516 235 516 235 497 c 259,40,41
 235 478 235 478 247.5 464.5 c 128,-1,42
 260 451 260 451 282 451 c 259,31,32
EndSplineSet
EndChar

StartChar: uni0E08
Encoding: 3592 3592 135
Width: 551
Flags: W
HStem: -3 61<300.54 369.851> 212 50<151.361 224.807> 356 50<151.324 229.169> 532 61<139.664 323.844>
VStem: 94 50<268.4 349.6> 225 69<64.9433 219> 236 58<268.268 347.833> 376 69<62.0687 483.729>
LayerCount: 3
Fore
SplineSet
237 532 m 3xfd
 154 532 98 500 71 432 c 1
 12 460 l 1
 54 550 129 593 236 593 c 3xfb
 363 593 445 529 445 426 c 2
 445 95 l 2
 445 37 397 -3 331 -3 c 3
 270 -3 225 35 225 89 c 2
 225 219 l 1xfd
 225 219 210 212 189 212 c 3
 136 212 94 250 94 308 c 3
 94 370 138 406 192 406 c 3
 267 406 294 356 294 302 c 2xfb
 294 107 l 2
 294 78 310 58 337 58 c 3
 363 58 376 76 376 109 c 2
 376 418 l 2
 376 491 320 532 237 532 c 3xfd
190 262 m 3
 221 262 236 286 236 309 c 3
 236 332 221 356 190 356 c 3
 159 356 144 332 144 309 c 3
 144 286 159 262 190 262 c 3
EndSplineSet
Layer: 2
SplineSet
237 532 m 259,0,1
 111 532 111 532 71 432 c 1,2,-1
 12 460 l 1,3,4
 74 593 74 593 236 593 c 259,5,6
 332 593 332 593 388.5 548 c 128,-1,7
 445 503 445 503 445 426 c 2,8,-1
 445 95 l 2,9,10
 445 52 445 52 413 24.5 c 128,-1,11
 381 -3 381 -3 331 -3 c 259,12,13
 285 -3 285 -3 255 23 c 128,-1,14
 225 49 225 49 225 89 c 2,15,-1
 225 219 l 1,16,17
 210 212 210 212 189 212 c 259,18,19
 148 212 148 212 121 238.5 c 128,-1,20
 94 265 94 265 94 308 c 259,21,22
 94 353 94 353 122 379.5 c 128,-1,23
 150 406 150 406 192 406 c 259,24,25
 245 406 245 406 269.5 376.5 c 128,-1,26
 294 347 294 347 294 302 c 2,27,-1
 294 107 l 2,28,29
 294 85 294 85 305.5 71.5 c 128,-1,30
 317 58 317 58 337 58 c 259,31,32
 356 58 356 58 366 70.5 c 128,-1,33
 376 83 376 83 376 109 c 2,34,-1
 376 418 l 2,35,36
 376 472 376 472 338 502 c 128,-1,37
 300 532 300 532 237 532 c 259,0,1
190 262 m 259,38,39
 212 262 212 262 224 276 c 128,-1,40
 236 290 236 290 236 309 c 259,41,42
 236 328 236 328 224 342 c 128,-1,43
 212 356 212 356 190 356 c 259,44,45
 168 356 168 356 156 342 c 128,-1,46
 144 328 144 328 144 309 c 259,47,48
 144 290 144 290 156 276 c 128,-1,49
 168 262 168 262 190 262 c 259,38,39
EndSplineSet
EndChar

StartChar: uni0E09
Encoding: 3593 3593 136
Width: 596
Flags: W
HStem: -3 61<223.312 276.654 473.249 527.187> 182 58<472.141 518.639> 199 50<76.2715 151.977> 341 50<76.8075 155.578> 532 61<157.227 347.754>
VStem: 20 50<255.917 334.227> 152 69<59.5085 205> 163 58<255.616 334.305> 403 69<59.9593 152 240 480.684> 534 60<61.3859 168.503>
AnchorPoint: "AboveBase" 479 654 basechar 0
LayerCount: 3
Fore
SplineSet
594 112 m 3xdec0
 594 36 558 -3 497 -3 c 3
 444 -3 408 30 408 80 c 2
 408 152 l 1
 398 150 384 136 351 84 c 0
 315 27 277 -3 238 -3 c 3
 184 -3 152 31 152 90 c 2
 152 205 l 1xdec0
 152 205 136 199 115 199 c 3
 58 199 20 240 20 295 c 3
 20 356 66 391 120 391 c 3
 182 391 221 354 221 288 c 2xbdc0
 221 103 l 2
 221 71 230 58 242 58 c 3
 261 58 277 74 312 130 c 0
 356 200 375 219 403 228 c 1
 403 418 l 2
 403 489 340 532 259 532 c 3
 179 532 121 505 86 437 c 1
 34 466 l 1
 79 552 154 593 254 593 c 3
 382 593 472 531 472 428 c 2
 472 240 l 1
 544 240 594 189 594 112 c 3xdec0
534 110 m 3
 534 153 511 182 482 182 c 3
 478 182 475 181 472 179 c 1
 472 95 l 2
 472 66 480 58 500 58 c 3
 522 58 534 82 534 110 c 3
117 249 m 3xbdc0
 147 249 163 272 163 295 c 3
 163 318 147 341 117 341 c 3
 85 341 70 318 70 295 c 3
 70 272 85 249 117 249 c 3xbdc0
EndSplineSet
Layer: 2
SplineSet
594 112 m 259,0,1
 594 56 594 56 568.5 26.5 c 128,-1,2
 543 -3 543 -3 497 -3 c 259,3,4
 457 -3 457 -3 432.5 20 c 128,-1,5
 408 43 408 43 408 80 c 2,6,-1
 408 152 l 1,7,8
 392 149 392 149 351 84 c 0,9,10
 296 -3 296 -3 238 -3 c 259,11,12
 197 -3 197 -3 174.5 21.5 c 128,-1,13
 152 46 152 46 152 90 c 2,14,-1
 152 205 l 1,15,16
 136 199 136 199 115 199 c 259,17,18
 73 199 73 199 46.5 226 c 128,-1,19
 20 253 20 253 20 295 c 259,20,21
 20 339 20 339 49 365 c 128,-1,22
 78 391 78 391 120 391 c 259,23,24
 167 391 167 391 194 364 c 128,-1,25
 221 337 221 337 221 288 c 2,26,-1
 221 103 l 2,27,28
 221 58 221 58 242 58 c 259,29,30
 256 58 256 58 271 73 c 128,-1,31
 286 88 286 88 312 130 c 0,32,33
 344 182 344 182 363 201.5 c 128,-1,34
 382 221 382 221 403 228 c 1,35,-1
 403 418 l 2,36,37
 403 470 403 470 362 501 c 128,-1,38
 321 532 321 532 259 532 c 259,39,40
 135 532 135 532 86 437 c 1,41,-1
 34 466 l 1,42,43
 100 593 100 593 254 593 c 259,44,45
 351 593 351 593 411.5 548.5 c 128,-1,46
 472 504 472 504 472 428 c 2,47,-1
 472 240 l 1,48,49
 526 240 526 240 560 204.5 c 128,-1,50
 594 169 594 169 594 112 c 259,0,1
534 110 m 259,51,52
 534 142 534 142 519 162 c 128,-1,53
 504 182 504 182 482 182 c 259,54,55
 476 182 476 182 472 179 c 1,56,-1
 472 95 l 2,57,58
 472 74 472 74 478.5 66 c 128,-1,59
 485 58 485 58 500 58 c 259,60,61
 516 58 516 58 525 73 c 128,-1,62
 534 88 534 88 534 110 c 259,51,52
117 249 m 259,63,64
 138 249 138 249 150.5 262.5 c 128,-1,65
 163 276 163 276 163 295 c 259,66,67
 163 314 163 314 150.5 327.5 c 128,-1,68
 138 341 138 341 117 341 c 259,69,70
 94 341 94 341 82 327.5 c 128,-1,71
 70 314 70 314 70 295 c 259,72,73
 70 276 70 276 82 262.5 c 128,-1,74
 94 249 94 249 117 249 c 259,63,64
EndSplineSet
EndChar

StartChar: uni0E0A
Encoding: 3594 3594 137
Width: 602
Flags: W
HStem: 0 61<147 221 290 417.078> 352 50<56.7549 136.379> 532 61<146.328 240.402>
VStem: 0 50<409.39 487.465> 143 50<408.489 489.541> 221 69<61 365.121> 266 69<377.398 457.018> 425 69<70.3373 420.301>
LayerCount: 3
Back
SplineSet
144 533 m 1
 170.09 521.819 196 501.145 196 451 c 0
 196 415 176 353 94 353 c 0
 29 353 -5 402 -5 457 c 0
 -5 511 35 593 157 593 c 0
 297 593 335 508 335 452 c 0
 335 386 290 352 290 297 c 2
 290 66 l 1
 374 66 l 2
 404 66 426 82 426 120 c 2
 426 353 l 2
 426 383 423 406 400 429 c 0
 372 455 334 463 334 463 c 1
 317.333 514.332 l 1
 323.333 514.332 392 536 441 564 c 0
 492 592 529 636 529 638 c 1
 555 569 l 1
 552 567 530 543 486 524 c 0
 451 509 402 490 397 490 c 1
 406 490 493 457 493 371 c 2
 493 118 l 2
 493 27.99 449 5.24537e-06 389 0 c 2
 147 0 l 1
 147 66 l 1
 221 66 l 1
 221 284 l 2
 221 380 266 384 266 451 c 0
 266 519 211 536 171 536 c 0
 161 536 152 535 144 533 c 1
97 500 m 0
 66 500 50 476 50 453 c 0
 50 429 66 406 97 406 c 0
 128 406 143 430 143 453 c 0
 143 477 128 500 97 500 c 0
EndSplineSet
Fore
SplineSet
97 496 m 3xf9
 70 496 50 476 50 449 c 3
 50 422 69 402 97 402 c 3
 124 402 143 421 143 449 c 3
 143 477 124 496 97 496 c 3xf9
144 529 m 1
 175 516 193 489 193 447 c 3
 193 386 157 352 94 352 c 3
 35 352 0 389 0 453 c 3
 0 535 63 593 157 593 c 3
 235 593 289 567 319 511 c 1
 416 541 474 575 529 638 c 1
 555 569 l 1
 518 534 496 524 397 486 c 1
 443 486 494 425 494 367 c 2
 494 113 l 2
 494 34 461 0 389 0 c 2
 147 0 l 1
 147 61 l 1
 221 61 l 1
 221 280 l 2xfd
 221 315 227 342 243 374 c 0
 261 410 266 427 266 447 c 3xfb
 266 502 230 532 171 532 c 3
 161 532 152 531 144 529 c 1
335 459 m 1xfb
 335 448 l 2xfb
 335 423 327 397 312 366 c 0
 300 341 290 311 290 293 c 2
 290 61 l 1xfd
 374 61 l 2
 408 61 425 80 425 115 c 2
 425 349 l 2
 425 410 399 443 335 459 c 1xfb
EndSplineSet
Layer: 2
SplineSet
97 496 m 259,0,1
 77 496 77 496 63.5 482.5 c 128,-1,2
 50 469 50 469 50 449 c 259,3,4
 50 429 50 429 63 415.5 c 128,-1,5
 76 402 76 402 97 402 c 259,6,7
 117 402 117 402 130 415 c 128,-1,8
 143 428 143 428 143 449 c 259,9,10
 143 470 143 470 130 483 c 128,-1,11
 117 496 117 496 97 496 c 259,0,1
144 529 m 1,12,13
 193 508 193 508 193 447 c 259,14,15
 193 401 193 401 167 376.5 c 128,-1,16
 141 352 141 352 94 352 c 259,17,18
 50 352 50 352 25 378.5 c 128,-1,19
 0 405 0 405 0 453 c 259,20,21
 0 515 0 515 43.5 554 c 128,-1,22
 87 593 87 593 157 593 c 259,23,24
 275 593 275 593 319 511 c 1,25,26
 392 534 392 534 440 562.5 c 128,-1,27
 488 591 488 591 529 638 c 1,28,-1
 555 569 l 1,29,30
 528 544 528 544 501 529.5 c 128,-1,31
 474 515 474 515 397 486 c 1,32,33
 432 486 432 486 463 448 c 128,-1,34
 494 410 494 410 494 367 c 2,35,-1
 494 113 l 2,36,37
 494 54 494 54 468.5 27 c 128,-1,38
 443 0 443 0 389 0 c 2,39,-1
 147 0 l 1,40,-1
 147 61 l 1,41,-1
 221 61 l 1,42,-1
 221 280 l 2,43,44
 221 330 221 330 243 374 c 0,45,46
 266 420 266 420 266 447 c 259,47,48
 266 488 266 488 241 510 c 128,-1,49
 216 532 216 532 171 532 c 259,50,51
 156 532 156 532 144 529 c 1,12,13
335 459 m 1,52,-1
 335 448 l 2,53,54
 335 414 335 414 312 366 c 0,55,56
 290 320 290 320 290 293 c 2,57,-1
 290 61 l 1,58,-1
 374 61 l 2,59,60
 425 61 425 61 425 115 c 2,61,-1
 425 349 l 2,62,63
 425 395 425 395 404 421 c 128,-1,64
 383 447 383 447 335 459 c 1,52,-1
EndSplineSet
EndChar

StartChar: uni0E0B
Encoding: 3595 3595 138
Width: 648
Flags: W
HStem: 0 61<202 276 345 472.455> 276 50<74.8267 152.968> 420 50<89.4218 154.552> 581 20G<88 166.5 247 304>
VStem: 10 58<332.291 412.117> 161 50<333.494 413.685> 276 69<61 412> 481 69<69.9043 424.433>
LayerCount: 3
Back
SplineSet
431 66 m 2
 471 66 481 91.975 481 120 c 2
 481 353 l 2
 481 383 478 406 455 429 c 0
 429 455 391 463 391 463 c 1
 377 510 l 1
 380 510 448 536 497 564 c 0
 549 592 584 636 584 638 c 1
 610 569 l 1
 607 567 586 543 541 524 c 0
 506 509 457 490 452 490 c 1
 458.212 490 550 460.124 550 371 c 2
 550 118 l 2
 550 55 527 7.16867e-06 445 0 c 2
 202 0 l 1
 202 66 l 1
 276 66 l 1
 276 428 l 1
 322 475 l 1
 322 475 316 495 305 507 c 0
 287 529 274 532 274 532 c 1
 208 498 l 1
 143 532 l 1
 106.934 524.272 89 473.894 89 468 c 1
 89 468 100.481 470.816 116.493 470.816 c 0
 193.779 470.816 213.101 409.516 213.101 372.675 c 0
 213.101 329.928 188.253 273.849 116.139 273.849 c 0
 73.7948 273.849 10.2782 290.736 10.2782 402.738 c 0
 10.2782 543.439 123.196 595 126 595 c 1
 207 561 l 1
 287 593 l 1
 290 593 328 578 348 553 c 0
 359 538 374 523 379 507 c 2
 391 463 l 1
 345 412 l 1
 345 66 l 1
 431 66 l 2
115 420 m 0
 83.122 420 67.1182 395.933 67.1182 372.154 c 0
 67.1182 348.939 82.372 326 113 326 c 0
 144.378 326 160.132 350.077 160.132 373.86 c 0
 160.132 397.07 145.128 420 115 420 c 0
EndSplineSet
Fore
SplineSet
116 420 m 3
 86 420 68 400 68 372 c 3
 68 345 87 326 114 326 c 3
 141 326 161 346 161 374 c 3
 161 400 142 420 116 420 c 3
431 61 m 2
 464 61 481 79 481 115 c 2
 481 353 l 2
 481 414 454 446 391 463 c 1
 345 412 l 1
 345 61 l 1
 431 61 l 2
378 510 m 1
 496 557 538 582 584 638 c 9
 610 569 l 1
 581 539 550 524 452 490 c 1
 511 473 550 427 550 371 c 2
 550 113 l 2
 550 40 515 0 445 0 c 2
 202 0 l 1
 202 61 l 1
 276 61 l 1
 276 428 l 1
 322 475 l 1
 314 500 292 526 274 532 c 1
 208 500 l 1
 143 532 l 1
 119 527 95 497 89 467 c 1
 95 468 104 470 116 470 c 3
 177 470 211 434 211 373 c 3
 211 316 177 276 116 276 c 3
 47 276 10 316 10 403 c 3
 10 487 50 558 126 601 c 1
 207 561 l 1
 287 601 l 1
 321 589 354 558 378 510 c 1
EndSplineSet
Layer: 2
SplineSet
116 420 m 259,0,1
 94 420 94 420 81 406.5 c 128,-1,2
 68 393 68 393 68 372 c 259,3,4
 68 352 68 352 81 339 c 128,-1,5
 94 326 94 326 114 326 c 259,6,7
 134 326 134 326 147.5 339.5 c 128,-1,8
 161 353 161 353 161 374 c 259,9,10
 161 394 161 394 148 407 c 128,-1,11
 135 420 135 420 116 420 c 259,0,1
431 61 m 2,12,13
 481 61 481 61 481 115 c 2,14,-1
 481 353 l 2,15,16
 481 399 481 399 459.5 424.5 c 128,-1,17
 438 450 438 450 391 463 c 1,18,-1
 345 412 l 1,19,-1
 345 61 l 1,20,-1
 431 61 l 2,12,13
378 510 m 1,21,22
 468 546 468 546 509 571 c 128,-1,23
 550 596 550 596 584 638 c 1,24,-1
 610 569 l 1,25,26
 588 547 588 547 557 531.5 c 128,-1,27
 526 516 526 516 452 490 c 1,28,29
 497 477 497 477 523.5 445 c 128,-1,30
 550 413 550 413 550 371 c 2,31,-1
 550 113 l 2,32,33
 550 0 550 0 445 0 c 2,34,-1
 202 0 l 1,35,-1
 202 61 l 1,36,-1
 276 61 l 1,37,-1
 276 428 l 1,38,-1
 322 475 l 1,39,40
 316 494 316 494 302 510.5 c 128,-1,41
 288 527 288 527 274 532 c 1,42,-1
 208 500 l 1,43,-1
 143 532 l 1,44,45
 125 528 125 528 109.5 509 c 128,-1,46
 94 490 94 490 89 467 c 1,47,48
 107 470 107 470 116 470 c 259,49,50
 162 470 162 470 186.5 444.5 c 128,-1,51
 211 419 211 419 211 373 c 259,52,53
 211 329 211 329 186 302.5 c 128,-1,54
 161 276 161 276 116 276 c 259,55,56
 63 276 63 276 36.5 308 c 128,-1,57
 10 340 10 340 10 403 c 259,58,59
 10 471 10 471 39.5 520 c 128,-1,60
 69 569 69 569 126 601 c 1,61,-1
 207 561 l 1,62,-1
 287 601 l 1,63,64
 342 582 342 582 378 510 c 1,21,22
EndSplineSet
EndChar

StartChar: uni0E0C
Encoding: 3596 3596 139
Width: 792
Flags: W
HStem: -3 61<340.787 384.986 566.793 626.746> -3 50<134.803 215.053> 139 50<140.431 215.783> 178 61<346.223 385> 532 61<146.464 347.752>
VStem: 71 69<183 375.493> 71 58<54.5541 132.944> 222 50<53.361 132.31> 283 54<59.1432 170.634> 385 69<59.1357 149 235.186 496.081> 605 69<59.8957 590>
LayerCount: 3
Fore
SplineSet
272 95 m 3x2de0
 272 38 234 -3 173 -3 c 3
 109 -3 71 36 71 100 c 2x6be0
 71 322 l 2x6de0
 71 364 94 404 129 426 c 1
 102 451 43 480 -6 487 c 1
 59 556 144 593 245 593 c 3
 376 593 454 540 454 449 c 2
 454 228 l 1
 482 221 508 195 543 124 c 0
 570 68 580 58 590 58 c 3
 599 58 605 72 605 101 c 2
 605 590 l 1
 674 590 l 1
 674 93 l 2
 674 34 650 -3 604 -3 c 3
 567 -3 551 11 506 80 c 0
 490 105 468 132 454 149 c 1
 454 69 l 2
 454 34 422 -3 379 -3 c 3
 324 -3 283 45 283 115 c 3
 283 190 313 228 385 239 c 1x9be0
 385 446 l 2
 385 503 335 532 243 532 c 3
 191 532 154 521 130 498 c 1
 163 484 201 457 243 423 c 1
 177 410 140 368 140 308 c 2
 140 183 l 1
 150 187 162 189 174 189 c 3
 231 189 272 153 272 95 c 3x2de0
337 112 m 3
 337 73 348 58 367 58 c 3
 376 58 385 69 385 78 c 2
 385 178 l 1x99e0
 352 178 337 159 337 112 c 3
175 47 m 3x6be0
 204 47 222 66 222 93 c 3
 222 122 202 139 175 139 c 3
 148 139 129 121 129 93 c 3
 129 65 148 47 175 47 c 3x6be0
EndSplineSet
Layer: 2
SplineSet
272 95 m 259,0,1
 272 52 272 52 245 24.5 c 128,-1,2
 218 -3 218 -3 173 -3 c 259,3,4
 125 -3 125 -3 98 24.5 c 128,-1,5
 71 52 71 52 71 100 c 2,6,-1
 71 322 l 2,7,8
 71 353 71 353 87 381 c 128,-1,9
 103 409 103 409 129 426 c 1,10,11
 108 446 108 446 68.5 464 c 128,-1,12
 29 482 29 482 -6 487 c 1,13,14
 94 593 94 593 245 593 c 259,15,16
 343 593 343 593 398.5 555 c 128,-1,17
 454 517 454 517 454 449 c 2,18,-1
 454 228 l 1,19,20
 497 217 497 217 543 124 c 0,21,22
 575 58 575 58 590 58 c 259,23,24
 605 58 605 58 605 101 c 2,25,-1
 605 590 l 1,26,-1
 674 590 l 1,27,-1
 674 93 l 2,28,29
 674 48 674 48 656 22.5 c 128,-1,30
 638 -3 638 -3 604 -3 c 259,31,32
 576 -3 576 -3 558 12.5 c 128,-1,33
 540 28 540 28 506 80 c 0,34,35
 489 106 489 106 454 149 c 1,36,-1
 454 69 l 2,37,38
 454 42 454 42 432 19.5 c 128,-1,39
 410 -3 410 -3 379 -3 c 259,40,41
 337 -3 337 -3 310 30 c 128,-1,42
 283 63 283 63 283 115 c 259,43,44
 283 172 283 172 307 201.5 c 128,-1,45
 331 231 331 231 385 239 c 1,46,-1
 385 446 l 2,47,48
 385 487 385 487 351 509.5 c 128,-1,49
 317 532 317 532 243 532 c 259,50,51
 165 532 165 532 130 498 c 1,52,53
 173 480 173 480 243 423 c 1,54,55
 194 413 194 413 167 383 c 128,-1,56
 140 353 140 353 140 308 c 2,57,-1
 140 183 l 1,58,59
 155 189 155 189 174 189 c 259,60,61
 217 189 217 189 244.5 163.5 c 128,-1,62
 272 138 272 138 272 95 c 259,0,1
337 112 m 259,63,64
 337 58 337 58 367 58 c 259,65,66
 374 58 374 58 379.5 64.5 c 128,-1,67
 385 71 385 71 385 78 c 2,68,-1
 385 178 l 1,69,70
 337 178 337 178 337 112 c 259,63,64
175 47 m 259,71,72
 196 47 196 47 209 59.5 c 128,-1,73
 222 72 222 72 222 93 c 259,74,75
 222 114 222 114 209 126.5 c 128,-1,76
 196 139 196 139 175 139 c 259,77,78
 155 139 155 139 142 126.5 c 128,-1,79
 129 114 129 114 129 93 c 259,80,81
 129 72 129 72 142 59.5 c 128,-1,82
 155 47 155 47 175 47 c 259,71,72
EndSplineSet
EndChar

StartChar: uni0E0D
Encoding: 3597 3597 140
Width: 800
Flags: W
HStem: -278 61<465.857 559.242> -104 47<378.201 451.592> -3 50<148.062 227.627> 0 61<353 395 464 624.13> 138 50<152.31 227.544> 532 61<146.311 356.919>
VStem: 83 69<182 376.373> 83 58<54.5541 131.419> 234 50<53.6478 131.934> 323 50<-185.752 -109.136> 395 69<61 498.016> 457 50<-184.929 -108.743> 612 69<-160.053 -55> 627 69<64.1211 590>
LayerCount: 3
Back
SplineSet
717 110 m 1
 717 110 l 0
 717 86 719 64 707 43 c 0
 693 15 665 0 635 0 c 2
 388 0 l 5
 388 66 l 1
 431 66 l 1
 431 445 l 2
 431 503 383 532 296 532 c 0
 210 532 176 498 176 498 c 2
 179 498 208 483 233 466 c 0
 258 451 290 423 290 423 c 1
 285 423 244 415 218 386 c 0
 198 366 187 339 187 308 c 2
 187 184 l 1
 187 184 225 199 264 182 c 0
 302 167 325 129 317 77 c 0
 310 29 270 -2 219 -2 c 0
 146 -2 118 49 118 101 c 2
 118 322 l 2
 118 340 124 365 139 389 c 0
 152 412 176 426 176 426 c 1
 176 426 150 451 116 463 c 0
 86 475 69 483 41 487 c 1
 61 513 152 587 293 593 c 0
 434 599 500 527 500 448 c 2
 500 66 l 1
 612 66 l 2
 622 66 632 69 641 80 c 0
 650 90 648 101 648 113 c 2
 648 590 l 1
 717 590 l 1
 717 110 l 1
711 -61 m 1
 711 -61 l 0
 713 -78 710 -149 679 -198 c 0
 655 -239 604 -279 535 -284 c 0
 449 -288 365 -254 357 -170 c 0
 351 -123 374 -64 446 -63 c 0
 513 -63 549 -118 536 -175 c 0
 529 -212 500 -218 498 -218 c 0
 500 -218 524 -230 559 -218 c 0
 595 -207 616 -185 632 -152 c 0
 644 -121 645 -61 645 -61 c 1
 711 -61 l 1
219 49 m 0
 219 49 l 0
 282 49 282 141 219 141 c 0
 158 141 158 49 219 49 c 0
449 -110 m 0
 394 -110 392 -196 448 -196 c 0
 504 -196 506 -110 449 -110 c 0
EndSplineSet
Fore
SplineSet
590 61 m 2xdde0
 615 61 627 75 627 102 c 2
 627 590 l 1
 696 590 l 1
 696 82 l 2
 696 32 666 0 615 0 c 2
 353 0 l 1
 353 61 l 1
 395 61 l 1
 395 445 l 2
 395 503 344 532 250 532 c 3
 199 532 156 519 129 501 c 1
 162 491 202 465 254 423 c 1
 188 410 152 368 152 308 c 2
 152 182 l 1xdee4
 162 186 177 188 189 188 c 3
 245 188 284 152 284 96 c 3
 284 39 245 -3 184 -3 c 3
 120 -3 83 36 83 100 c 2xedc0
 83 322 l 2xeec0
 83 364 106 404 141 426 c 1
 116 450 55 480 6 487 c 1
 71 556 169 593 274 593 c 3
 388 593 464 538 464 448 c 2
 464 61 l 1
 590 61 l 2xdde0
188 47 m 3xedc0
 219 47 234 70 234 93 c 3
 234 115 219 138 188 138 c 7
 157 138 141 115 141 93 c 3
 141 70 157 47 188 47 c 3xedc0
507 -146 m 3xccd8
 507 -180 493 -202 465 -212 c 1
 476 -216 484 -217 495 -217 c 3
 570 -217 612 -156 612 -66 c 2
 612 -55 l 1
 681 -55 l 1
 681 -66 l 2
 681 -188 603 -278 489 -278 c 3
 389 -278 323 -232 323 -150 c 3
 323 -93 359 -57 413 -57 c 3
 468 -57 507 -95 507 -146 c 3xccd8
415 -104 m 3
 390 -104 373 -122 373 -148 c 3
 373 -173 389 -190 414 -190 c 3
 439 -190 457 -172 457 -146 c 3
 457 -122 440 -104 415 -104 c 3
EndSplineSet
Layer: 2
SplineSet
590 61 m 2,0,1
 627 61 627 61 627 102 c 2,2,-1
 627 590 l 1,3,-1
 696 590 l 1,4,-1
 696 82 l 2,5,6
 696 44 696 44 674.5 22 c 128,-1,7
 653 0 653 0 615 0 c 2,8,-1
 353 0 l 1,9,-1
 353 61 l 1,10,-1
 395 61 l 1,11,-1
 395 445 l 2,12,13
 395 489 395 489 358.5 510.5 c 128,-1,14
 322 532 322 532 250 532 c 259,15,16
 176 532 176 532 129 501 c 1,17,18
 174 487 174 487 254 423 c 1,19,20
 205 413 205 413 178.5 383 c 128,-1,21
 152 353 152 353 152 308 c 2,22,-1
 152 182 l 1,23,24
 167 188 167 188 189 188 c 259,25,26
 231 188 231 188 257.5 163 c 128,-1,27
 284 138 284 138 284 96 c 259,28,29
 284 53 284 53 256.5 25 c 128,-1,30
 229 -3 229 -3 184 -3 c 259,31,32
 136 -3 136 -3 109.5 24.5 c 128,-1,33
 83 52 83 52 83 100 c 2,34,-1
 83 322 l 2,35,36
 83 353 83 353 99 381 c 128,-1,37
 115 409 115 409 141 426 c 1,38,39
 121 445 121 445 81 463.5 c 128,-1,40
 41 482 41 482 6 487 c 1,41,42
 106 593 106 593 274 593 c 259,43,44
 360 593 360 593 412 554 c 128,-1,45
 464 515 464 515 464 448 c 2,46,-1
 464 61 l 1,47,-1
 590 61 l 2,0,1
188 47 m 259,48,49
 210 47 210 47 222 60.5 c 128,-1,50
 234 74 234 74 234 93 c 259,51,52
 234 111 234 111 222 124.5 c 128,-1,53
 210 138 210 138 188 138 c 259,54,55
 166 138 166 138 153.5 124.5 c 128,-1,56
 141 111 141 111 141 93 c 259,57,58
 141 74 141 74 153.5 60.5 c 128,-1,59
 166 47 166 47 188 47 c 259,48,49
507 -146 m 259,60,61
 507 -197 507 -197 465 -212 c 1,62,63
 479 -217 479 -217 495 -217 c 259,64,65
 550 -217 550 -217 581 -176 c 128,-1,66
 612 -135 612 -135 612 -66 c 2,67,-1
 612 -55 l 1,68,-1
 681 -55 l 1,69,-1
 681 -66 l 2,70,71
 681 -158 681 -158 627.5 -218 c 128,-1,72
 574 -278 574 -278 489 -278 c 259,73,74
 413 -278 413 -278 368 -244.5 c 128,-1,75
 323 -211 323 -211 323 -150 c 259,76,77
 323 -107 323 -107 347.5 -82 c 128,-1,78
 372 -57 372 -57 413 -57 c 259,79,80
 454 -57 454 -57 480.5 -82.5 c 128,-1,81
 507 -108 507 -108 507 -146 c 259,60,61
415 -104 m 259,82,83
 396 -104 396 -104 384.5 -116 c 128,-1,84
 373 -128 373 -128 373 -148 c 259,85,86
 373 -167 373 -167 384 -178.5 c 128,-1,87
 395 -190 395 -190 414 -190 c 259,88,89
 433 -190 433 -190 445 -177.5 c 128,-1,90
 457 -165 457 -165 457 -146 c 259,91,92
 457 -128 457 -128 445.5 -116 c 128,-1,93
 434 -104 434 -104 415 -104 c 259,82,83
EndSplineSet
Substitution2: "'ccmp' Pali-Sanskrit Descender Removal" uni0E0D.descless
Substitution2: "Thai Descender Removal Single Substitution" uni0E0D.descless
EndChar

StartChar: uni0E0E
Encoding: 3598 3598 141
Width: 668
Flags: W
HStem: -303 61<129.611 220.492> -163 61<131.668 250.502> -28 20G<320 389> -3 50<90.4807 171.29> 139 50<90.103 165.647> 532 61<245.768 444.178>
VStem: 34 50<54.3239 132.052> 57 69<-237.772 -170.649> 166 69<183 377.452> 178 57<55.4137 132.711> 320 69<-97.8256 -8> 487 69<-153 490.062>
AnchorPoint: "BelowBase" 554 -311 basechar 0
LayerCount: 3
Fore
SplineSet
222 426 m 1xfeb0
 197 450 138 480 89 487 c 1
 151 552 246 593 348 593 c 3
 486 593 556 524 556 418 c 2
 556 -162 l 1
 405 -317 l 1
 374 -278 333 -234 307 -218 c 1
 261 -273 212 -303 160 -303 c 3
 99 -303 57 -267 57 -213 c 3
 57 -150 110 -102 188 -102 c 3
 222 -102 260 -115 285 -132 c 1
 306 -98 320 -36 320 -8 c 1
 389 -8 l 1
 389 -46 372 -97 336 -164 c 1
 408 -225 l 1
 487 -153 l 1
 487 415 l 2
 487 497 442 532 355 532 c 3
 304 532 249 516 222 498 c 1
 255 488 284 465 336 423 c 1
 270 410 235 368 235 308 c 2xfdb0
 235 100 l 2xfc70
 235 38 197 -3 133 -3 c 3
 74 -3 34 37 34 94 c 3
 34 148 72 189 129 189 c 3
 145 189 156 186 166 183 c 1
 166 322 l 2
 166 364 187 404 222 426 c 1xfeb0
131 47 m 3
 158 47 178 66 178 93 c 3
 178 120 159 139 131 139 c 3
 102 139 84 119 84 93 c 3xfe70
 84 66 104 47 131 47 c 3
166 -242 m 3xfdb0
 204 -242 240 -211 251 -179 c 1
 235 -171 203 -163 180 -163 c 3
 146 -163 126 -180 126 -205 c 3
 126 -227 142 -242 166 -242 c 3xfdb0
EndSplineSet
Layer: 2
SplineSet
222 426 m 1,0,1
 202 445 202 445 163 463.5 c 128,-1,2
 124 482 124 482 89 487 c 1,3,4
 136 536 136 536 204 564.5 c 128,-1,5
 272 593 272 593 348 593 c 259,6,7
 449 593 449 593 502.5 546 c 128,-1,8
 556 499 556 499 556 418 c 2,9,-1
 556 -162 l 1,10,-1
 405 -317 l 1,11,12
 345 -241 345 -241 307 -218 c 1,13,14
 271 -261 271 -261 234.5 -282 c 128,-1,15
 198 -303 198 -303 160 -303 c 259,16,17
 114 -303 114 -303 85.5 -278 c 128,-1,18
 57 -253 57 -253 57 -213 c 259,19,20
 57 -165 57 -165 93.5 -133.5 c 128,-1,21
 130 -102 130 -102 188 -102 c 259,22,23
 241 -102 241 -102 285 -132 c 1,24,25
 300 -108 300 -108 310 -69.5 c 128,-1,26
 320 -31 320 -31 320 -8 c 1,27,-1
 389 -8 l 1,28,29
 389 -65 389 -65 336 -164 c 1,30,-1
 408 -225 l 1,31,-1
 487 -153 l 1,32,-1
 487 415 l 2,33,34
 487 475 487 475 454.5 503.5 c 128,-1,35
 422 532 422 532 355 532 c 259,36,37
 273 532 273 532 222 498 c 1,38,39
 256 488 256 488 336 423 c 1,40,41
 287 413 287 413 261 383 c 128,-1,42
 235 353 235 353 235 308 c 2,43,-1
 235 100 l 2,44,45
 235 53 235 53 208 25 c 128,-1,46
 181 -3 181 -3 133 -3 c 259,47,48
 89 -3 89 -3 61.5 24 c 128,-1,49
 34 51 34 51 34 94 c 259,50,51
 34 135 34 135 60.5 162 c 128,-1,52
 87 189 87 189 129 189 c 259,53,54
 146 189 146 189 166 183 c 1,55,-1
 166 322 l 2,56,57
 166 391 166 391 222 426 c 1,0,1
131 47 m 259,58,59
 151 47 151 47 164.5 60 c 128,-1,60
 178 73 178 73 178 93 c 259,61,62
 178 113 178 113 165 126 c 128,-1,63
 152 139 152 139 131 139 c 259,64,65
 110 139 110 139 97 126 c 128,-1,66
 84 113 84 113 84 93 c 259,67,68
 84 73 84 73 97.5 60 c 128,-1,69
 111 47 111 47 131 47 c 259,58,59
166 -242 m 259,70,71
 194 -242 194 -242 218 -223 c 128,-1,72
 242 -204 242 -204 251 -179 c 1,73,74
 219 -163 219 -163 180 -163 c 259,75,76
 155 -163 155 -163 140.5 -174.5 c 128,-1,77
 126 -186 126 -186 126 -205 c 259,78,79
 126 -222 126 -222 137 -232 c 128,-1,80
 148 -242 148 -242 166 -242 c 259,70,71
EndSplineSet
EndChar

StartChar: uni0E0F
Encoding: 3599 3599 142
Width: 663
Flags: W
HStem: -312 61<119.352 180.434> -159 61<123.52 203.163> -29 20G<264 325> -3 50<91.8936 171.143> 139 50<91.103 166.745> 532 61<246.99 449.309>
VStem: 35 50<54.0551 131.833> 61 56<-249.307 -163.75> 167 69<183 377.452> 178 58<53.2885 133.252> 264 61<-107.915 -9> 486 69<-202.051 498.643>
AnchorPoint: "BelowBase" 550 -311 basechar 0
LayerCount: 3
Fore
SplineSet
224 426 m 1xfeb0
 199 450 139 480 90 487 c 1
 152 552 247 593 349 593 c 3
 486 593 555 536 555 443 c 2
 555 -159 l 1
 536 -222 493 -279 437 -310 c 1
 369 -216 l 1
 299 -311 l 1
 247 -238 l 1
 225 -281 187 -312 148 -312 c 3
 93 -312 61 -274 61 -211 c 3
 61 -148 101 -98 150 -98 c 3
 180 -98 223 -122 233 -138 c 1
 254 -76 264 -36 264 -9 c 1
 325 -9 l 1
 325 -48 296 -152 276 -178 c 1
 296 -213 l 1
 369 -106 l 1
 445 -222 l 1
 463 -211 484 -180 486 -159 c 1
 486 440 l 2
 486 500 446 532 353 532 c 3
 302 532 251 516 224 498 c 1
 248 491 278 471 337 423 c 1
 271 410 236 368 236 308 c 2xfdb0
 236 100 l 2xfc70
 236 38 199 -3 135 -3 c 3
 76 -3 35 39 35 96 c 3
 35 150 73 189 130 189 c 3
 146 189 157 186 167 183 c 1
 167 322 l 2
 167 364 189 404 224 426 c 1xfeb0
132 47 m 3
 159 47 178 66 178 93 c 3
 178 120 160 139 132 139 c 3
 103 139 85 119 85 93 c 3xfe70
 85 66 105 47 132 47 c 3
117 -212 m 3xfd30
 117 -240 129 -251 147 -251 c 3
 166 -251 185 -230 207 -184 c 1
 185 -165 171 -159 155 -159 c 3
 132 -159 117 -180 117 -212 c 3xfd30
EndSplineSet
Layer: 2
SplineSet
224 426 m 1,0,1
 204 445 204 445 164.5 463.5 c 128,-1,2
 125 482 125 482 90 487 c 1,3,4
 137 536 137 536 205 564.5 c 128,-1,5
 273 593 273 593 349 593 c 259,6,7
 450 593 450 593 502.5 553.5 c 128,-1,8
 555 514 555 514 555 443 c 2,9,-1
 555 -159 l 1,10,11
 541 -207 541 -207 510 -247 c 128,-1,12
 479 -287 479 -287 437 -310 c 1,13,-1
 369 -216 l 1,14,-1
 299 -311 l 1,15,-1
 247 -238 l 1,16,17
 230 -271 230 -271 203.5 -291.5 c 128,-1,18
 177 -312 177 -312 148 -312 c 259,19,20
 107 -312 107 -312 84 -285 c 128,-1,21
 61 -258 61 -258 61 -211 c 259,22,23
 61 -164 61 -164 87 -131 c 128,-1,24
 113 -98 113 -98 150 -98 c 259,25,26
 171 -98 171 -98 198 -111.5 c 128,-1,27
 225 -125 225 -125 233 -138 c 1,28,29
 264 -46 264 -46 264 -9 c 1,30,-1
 325 -9 l 1,31,32
 325 -39 325 -39 308 -99 c 128,-1,33
 291 -159 291 -159 276 -178 c 1,34,-1
 296 -213 l 1,35,-1
 369 -106 l 1,36,-1
 445 -222 l 1,37,38
 459 -214 459 -214 472 -194.5 c 128,-1,39
 485 -175 485 -175 486 -159 c 2,40,-1
 486 440 l 2,41,42
 486 487 486 487 453 509.5 c 128,-1,43
 420 532 420 532 353 532 c 259,44,45
 275 532 275 532 224 498 c 1,46,47
 256 489 256 489 337 423 c 1,48,49
 288 413 288 413 262 383 c 128,-1,50
 236 353 236 353 236 308 c 2,51,-1
 236 100 l 2,52,53
 236 53 236 53 209 25 c 128,-1,54
 182 -3 182 -3 135 -3 c 259,55,56
 91 -3 91 -3 63 25 c 128,-1,57
 35 53 35 53 35 96 c 259,58,59
 35 137 35 137 61.5 163 c 128,-1,60
 88 189 88 189 130 189 c 259,61,62
 147 189 147 189 167 183 c 1,63,-1
 167 322 l 2,64,65
 167 390 167 390 224 426 c 1,0,1
132 47 m 259,66,67
 152 47 152 47 165 60 c 128,-1,68
 178 73 178 73 178 93 c 259,69,70
 178 113 178 113 165.5 126 c 128,-1,71
 153 139 153 139 132 139 c 259,72,73
 111 139 111 139 98 126 c 128,-1,74
 85 113 85 113 85 93 c 259,75,76
 85 73 85 73 98.5 60 c 128,-1,77
 112 47 112 47 132 47 c 259,66,67
117 -212 m 259,78,79
 117 -251 117 -251 147 -251 c 259,80,81
 175 -251 175 -251 207 -184 c 1,82,83
 178 -159 178 -159 155 -159 c 259,84,85
 138 -159 138 -159 127.5 -173.5 c 128,-1,86
 117 -188 117 -188 117 -212 c 259,78,79
EndSplineSet
EndChar

StartChar: uni0E10
Encoding: 3600 3600 143
Width: 530
Flags: W
HStem: -290 52<52.9465 102.504> -180 43<320.769 372.657> -174 52<52.4154 108.549> -76 42<320.708 377.5> -3 61<283.716 352.851> 157 50<135.022 207.546> 299 50<135.158 215.977> 504 61<302.75 472.436> 532 61<162.367 367.908>
VStem: 0 51<-237.857 -174.685> 77 52<213.926 292.168> 160 58<-141.587 -38> 208 69<64.9433 164> 222 55<213.056 292.701> 273 46<-135.548 -77.0321> 359 69<62.0687 374.641> 373 54<-198 -176 -136.928 -76.8704>
LayerCount: 3
Fore
SplineSet
245 593 m 3x9ee9
 269 593 294 589 333 579 c 0
 379 568 398 565 414 565 c 3
 429 565 445 569 468 579 c 1
 486 519 l 1
 456 508 441 504 426 504 c 3x9f69
 400 504 373 509 337 518 c 0
 297 528 274 532 247 532 c 3
 206 532 173 522 150 501 c 1
 190 498 230 491 273 478 c 0x9ee3
 380 445 428 398 428 324 c 2
 428 95 l 2
 428 37 380 -3 314 -3 c 3
 254 -3 208 35 208 89 c 2
 208 164 l 1x9ee9
 198 159 185 157 171 157 c 3
 116 157 77 198 77 253 c 3
 77 309 116 349 176 349 c 3
 239 349 277 312 277 247 c 2x9ee4
 277 107 l 2
 277 77 293 58 320 58 c 3
 346 58 359 76 359 109 c 2
 359 317 l 2
 359 371 319 408 236 430 c 0
 150 453 80 459 40 459 c 1
 92 557 152 593 245 593 c 3x9ee9
176 207 m 3
 203 207 222 225 222 253 c 3x9e64
 222 280 204 299 176 299 c 3
 147 299 129 280 129 253 c 3
 129 225 148 207 176 207 c 3
347 -34 m 3
 398 -34 427 -67 427 -127 c 2
 427 -225 l 1
 321 -296 l 1
 253 -250 l 1
 174 -296 l 1
 164 -274 158 -264 145 -247 c 1
 137 -259 109 -290 82 -290 c 3
 36 -290 0 -255 0 -206 c 3
 0 -160 35 -122 78 -122 c 3xbe7280
 105 -122 125 -130 138 -143 c 1
 150 -113 157 -74 160 -38 c 1
 218 -38 l 1
 216 -84 200 -152 178 -190 c 1
 195 -221 l 1
 255 -189 l 1
 321 -230 l 1
 373 -198 l 1
 373 -176 l 1
 364 -179 356 -180 347 -180 c 3
 305 -180 273 -148 273 -106 c 3xde7280
 273 -64 305 -34 347 -34 c 3
349 -76 m 3
 332 -76 319 -88 319 -106 c 3
 319 -123 331 -137 349 -137 c 3xde62
 366 -137 379 -126 379 -108 c 3
 379 -87 369 -76 349 -76 c 3
109 -195 m 1
 102 -184 84 -174 71 -174 c 3xbe60
 59 -174 51 -187 51 -205 c 3
 51 -224 61 -238 75 -238 c 3
 93 -238 103 -225 109 -195 c 1
EndSplineSet
Layer: 2
SplineSet
245 593 m 259,0,1
 278 593 278 593 333 579 c 0,2,3
 392 565 392 565 414 565 c 259,4,5
 436 565 436 565 468 579 c 1,6,-1
 486 519 l 1,7,8
 445 504 445 504 426 504 c 259,9,10
 393 504 393 504 337 518 c 128,-1,11
 281 532 281 532 247 532 c 259,12,13
 184 532 184 532 150 501 c 1,14,15
 212 496 212 496 273 478 c 0,16,17
 353 453 353 453 390.5 416 c 128,-1,18
 428 379 428 379 428 324 c 2,19,-1
 428 95 l 2,20,21
 428 52 428 52 396 24.5 c 128,-1,22
 364 -3 364 -3 314 -3 c 259,23,24
 269 -3 269 -3 238.5 23 c 128,-1,25
 208 49 208 49 208 89 c 2,26,-1
 208 164 l 1,27,28
 194 157 194 157 171 157 c 259,29,30
 130 157 130 157 103.5 184.5 c 128,-1,31
 77 212 77 212 77 253 c 259,32,33
 77 295 77 295 104 322 c 128,-1,34
 131 349 131 349 176 349 c 259,35,36
 224 349 224 349 250.5 322.5 c 128,-1,37
 277 296 277 296 277 247 c 2,38,-1
 277 107 l 2,39,40
 277 84 277 84 288.5 71 c 128,-1,41
 300 58 300 58 320 58 c 259,42,43
 339 58 339 58 349 70.5 c 128,-1,44
 359 83 359 83 359 109 c 2,45,-1
 359 317 l 2,46,47
 359 355 359 355 329.5 384 c 128,-1,48
 300 413 300 413 236 430 c 0,49,50
 128 459 128 459 40 459 c 1,51,52
 78 532 78 532 126 562.5 c 128,-1,53
 174 593 174 593 245 593 c 259,0,1
176 207 m 259,54,55
 196 207 196 207 209 219.5 c 128,-1,56
 222 232 222 232 222 253 c 259,57,58
 222 273 222 273 209.5 286 c 128,-1,59
 197 299 197 299 176 299 c 259,60,61
 154 299 154 299 141.5 286.5 c 128,-1,62
 129 274 129 274 129 253 c 259,63,64
 129 232 129 232 142 219.5 c 128,-1,65
 155 207 155 207 176 207 c 259,54,55
347 -34 m 259,66,67
 385 -34 385 -34 406 -58 c 128,-1,68
 427 -82 427 -82 427 -127 c 2,69,-1
 427 -225 l 1,70,-1
 321 -296 l 1,71,-1
 253 -250 l 1,72,-1
 174 -296 l 1,73,74
 162 -269 162 -269 145 -247 c 1,75,76
 136 -260 136 -260 118 -275 c 128,-1,77
 100 -290 100 -290 82 -290 c 259,78,79
 47 -290 47 -290 23.5 -266 c 128,-1,80
 0 -242 0 -242 0 -206 c 259,81,82
 0 -171 0 -171 23 -146.5 c 128,-1,83
 46 -122 46 -122 78 -122 c 259,84,85
 117 -122 117 -122 138 -143 c 1,86,87
 155 -101 155 -101 160 -38 c 1,88,-1
 218 -38 l 1,89,90
 216 -74 216 -74 205 -118.5 c 128,-1,91
 194 -163 194 -163 178 -190 c 1,92,-1
 195 -221 l 1,93,-1
 255 -189 l 1,94,-1
 321 -230 l 1,95,-1
 373 -198 l 1,96,-1
 373 -176 l 1,97,98
 361 -180 361 -180 347 -180 c 259,99,100
 316 -180 316 -180 294.5 -159 c 128,-1,101
 273 -138 273 -138 273 -106 c 259,102,103
 273 -75 273 -75 294 -54.5 c 128,-1,104
 315 -34 315 -34 347 -34 c 259,66,67
349 -76 m 259,105,106
 336 -76 336 -76 327.5 -84.5 c 128,-1,107
 319 -93 319 -93 319 -106 c 259,108,109
 319 -119 319 -119 327.5 -128 c 128,-1,110
 336 -137 336 -137 349 -137 c 259,111,112
 362 -137 362 -137 370.5 -129 c 128,-1,113
 379 -121 379 -121 379 -108 c 259,114,115
 379 -93 379 -93 372 -84.5 c 128,-1,116
 365 -76 365 -76 349 -76 c 259,105,106
109 -195 m 1,117,118
 104 -187 104 -187 92.5 -180.5 c 128,-1,119
 81 -174 81 -174 71 -174 c 259,120,121
 63 -174 63 -174 57 -182 c 128,-1,122
 51 -190 51 -190 51 -205 c 259,123,124
 51 -219 51 -219 58 -228.5 c 128,-1,125
 65 -238 65 -238 75 -238 c 259,126,127
 88 -238 88 -238 96 -227.5 c 128,-1,128
 104 -217 104 -217 109 -195 c 1,117,118
EndSplineSet
Substitution2: "'ccmp' Pali-Sanskrit Descender Removal" uni0E10.descless
Substitution2: "Thai Descender Removal Single Substitution" uni0E10.descless
EndChar

StartChar: uni0E11
Encoding: 3601 3601 144
Width: 815
Flags: W
HStem: 0 21G<296 369 633 702> 264 46<98.7298 178.948> 406 46<97.6361 177.988> 532 61<577.331 629.905>
VStem: 26 65<317.609 495.163> 186 44<317.5 398.548> 296 69<0 128.906 235 436.406> 337 69<443.175 512.547> 633 69<0 529.232>
LayerCount: 3
Back
SplineSet
608 590 m 0xfe80
 648 590 702 542 702 487 c 2
 702 0 l 1
 633 0 l 1
 633 474 l 2
 633 496 621 514 602 514 c 0
 587 514 572 497 567 489 c 1
 555 481 386 174 374 84 c 0
 370 52 369 32 369 0 c 1
 296 0 l 1
 296 425 l 2xfe80
 296 428 337 456 337 477 c 0
 337 503 296 529 294 529 c 2
 221 492 l 1
 153 529 l 1
 136 521 123 512 113 495 c 1
 101 477 92 457 92 443 c 1
 107 449 122 452 136 452 c 0
 213 452 230 394 230 358 c 0
 230 302 191 265 138 265 c 0
 85 265 26 301 26 400 c 0
 26 433 34 468 49 498 c 0
 71 544 97 570 141 593 c 1
 221 547 l 1
 302 593 l 1
 371 553 406 492 406 492 c 1
 406 460 l 2xfd80
 406 458 381 429 365 415 c 1
 365 235 l 1
 379 282 417 359 454 426 c 0
 488 489 546 590 608 590 c 0xfe80
138 310 m 0
 170 310 186 334 186 358 c 0
 186 382 170 406 138 406 c 0
 106 406 91 382 91 358 c 0
 91 334 106 310 138 310 c 0
EndSplineSet
Fore
SplineSet
608 593 m 3xfe80
 655 593 702 554 702 505 c 2
 702 0 l 1
 633 0 l 1
 633 492 l 2
 633 514 621 532 602 532 c 3
 588 532 571 508 510 393 c 0
 427 237 380 128 374 84 c 0
 370 52 369 32 369 0 c 1
 296 0 l 1
 296 425 l 17xfe80
 323 448 337 466 337 477 c 3
 337 493 321 513 294 529 c 9
 221 492 l 1
 153 529 l 1
 117 512 92 474 92 443 c 1
 107 449 122 452 136 452 c 3
 194 452 230 418 230 358 c 3
 230 302 191 264 138 264 c 3
 69 264 26 318 26 400 c 3
 26 486 66 554 141 593 c 1
 221 547 l 1
 302 593 l 1
 345 568 385 528 406 492 c 1
 406 460 l 17xfd80
 395 446 378 426 365 415 c 1
 365 235 l 1
 379 282 418 359 454 426 c 0
 517 542 561 593 608 593 c 3xfe80
138 310 m 3
 167 310 186 331 186 358 c 3
 186 382 170 406 138 406 c 3
 109 406 91 386 91 358 c 3
 91 329 111 310 138 310 c 3
EndSplineSet
Layer: 2
SplineSet
608 593 m 259,0,1
 644 593 644 593 673 567 c 128,-1,2
 702 541 702 541 702 505 c 2,3,-1
 702 0 l 1,4,-1
 633 0 l 1,5,-1
 633 492 l 2,6,7
 633 509 633 509 624.5 520.5 c 128,-1,8
 616 532 616 532 602 532 c 259,9,10
 591 532 591 532 573 505 c 128,-1,11
 555 478 555 478 510 393 c 0,12,13
 384 156 384 156 374 84 c 0,14,15
 369 44 369 44 369 0 c 1,16,-1
 296 0 l 1,17,-1
 296 425 l 1,18,19
 337 460 337 460 337 477 c 259,20,21
 337 504 337 504 294 529 c 1,22,-1
 221 492 l 1,23,-1
 153 529 l 1,24,25
 127 516 127 516 109.5 491.5 c 128,-1,26
 92 467 92 467 92 443 c 1,27,28
 115 452 115 452 136 452 c 259,29,30
 180 452 180 452 205 427.5 c 128,-1,31
 230 403 230 403 230 358 c 259,32,33
 230 316 230 316 204 290 c 128,-1,34
 178 264 178 264 138 264 c 259,35,36
 87 264 87 264 56.5 301 c 128,-1,37
 26 338 26 338 26 400 c 259,38,39
 26 466 26 466 56 515 c 128,-1,40
 86 564 86 564 141 593 c 1,41,-1
 221 547 l 1,42,-1
 302 593 l 1,43,44
 370 553 370 553 406 492 c 1,45,-1
 406 460 l 1,46,47
 382 429 382 429 365 415 c 1,48,-1
 365 235 l 1,49,50
 382 292 382 292 454 426 c 0,51,52
 502 515 502 515 537.5 554 c 128,-1,53
 573 593 573 593 608 593 c 259,0,1
138 310 m 259,54,55
 159 310 159 310 172.5 323.5 c 128,-1,56
 186 337 186 337 186 358 c 259,57,58
 186 378 186 378 173.5 392 c 128,-1,59
 161 406 161 406 138 406 c 259,60,61
 117 406 117 406 104 392.5 c 128,-1,62
 91 379 91 379 91 358 c 259,63,64
 91 336 91 336 104.5 323 c 128,-1,65
 118 310 118 310 138 310 c 259,54,55
EndSplineSet
EndChar

StartChar: uni0E12
Encoding: 3602 3602 145
Width: 820
Flags: W
HStem: -3 61<382.384 427.957 592.124 631.61> 199 52<392.573 428> 236 45<191.955 230> 379 45<189.293 271.022> 575 15G<136 227 333 404 633 702>
VStem: 20 69<255.149 454.565> 134 48<290.552 371.702> 135 73<0 94.6615> 280 49<287.21 370.062> 319 55<62.0578 181.456> 428 69<58.3129 151 246.968 497.848> 633 69<58.3533 590>
DStem2: 201 595 192 530 0.814365 -0.580352<19.7833 98.3416> 279 535 279 468 0.804574 0.593852<0 75.844>
LayerCount: 3
Fore
SplineSet
360 595 m 1xbdb0
 448 557 497 497 497 428 c 2
 497 230 l 17
 528 206 539 190 577 108 c 0
 595 70 606 58 620 58 c 3
 630 58 633 64 633 92 c 2
 633 590 l 1
 702 590 l 1
 702 92 l 2
 702 25 682 -3 628 -3 c 3
 594 -3 562 27 532 89 c 0
 520 114 506 135 495 151 c 1
 495 72 l 2
 495 29 465 -3 417 -3 c 3
 361 -3 319 51 319 123 c 3
 319 193 352 240 428 251 c 1xdd70
 428 428 l 2
 428 476 401 519 363 530 c 1
 279 468 l 1
 192 530 l 1
 124 498 89 442 89 362 c 3
 89 309 106 259 132 205 c 0
 151 166 162 139 172 110 c 1
 175 125 204 185 230 236 c 1
 221 236 l 2
 170 236 134 276 134 327 c 3xbe70
 134 381 175 424 230 424 c 3
 285 424 329 385 329 329 c 3
 329 304 314 264 281 206 c 0
 229 116 212 69 208 0 c 1
 135 0 l 1
 135 40 112 111 75 183 c 0
 31 269 20 301 20 355 c 3
 20 475 71 542 201 595 c 1
 279 535 l 1
 360 595 l 1xbdb0
280 328 m 3xbeb0
 280 357 259 379 230 379 c 3
 201 379 182 360 182 331 c 3
 182 302 204 281 233 281 c 3
 262 281 280 299 280 328 c 3xbeb0
428 199 m 1xdc70
 390 188 374 162 374 123 c 3
 374 85 389 58 408 58 c 3
 421 58 428 65 428 79 c 2
 428 199 l 1xdc70
EndSplineSet
Layer: 2
SplineSet
360 595 m 1,0,1
 426 567 426 567 461.5 523.5 c 128,-1,2
 497 480 497 480 497 428 c 2,3,-1
 497 230 l 1,4,5
 520 212 520 212 534.5 190.5 c 128,-1,6
 549 169 549 169 577 108 c 0,7,8
 601 58 601 58 620 58 c 259,9,10
 628 58 628 58 630.5 64.5 c 128,-1,11
 633 71 633 71 633 92 c 2,12,-1
 633 590 l 1,13,-1
 702 590 l 1,14,-1
 702 92 l 2,15,16
 702 41 702 41 685 19 c 128,-1,17
 668 -3 668 -3 628 -3 c 259,18,19
 577 -3 577 -3 532 89 c 0,20,21
 519 116 519 116 495 151 c 1,22,-1
 495 72 l 2,23,24
 495 39 495 39 473.5 18 c 128,-1,25
 452 -3 452 -3 417 -3 c 259,26,27
 375 -3 375 -3 347 33 c 128,-1,28
 319 69 319 69 319 123 c 259,29,30
 319 235 319 235 428 251 c 1,31,-1
 428 428 l 2,32,33
 428 464 428 464 409.5 493 c 128,-1,34
 391 522 391 522 363 530 c 1,35,-1
 279 468 l 1,36,-1
 192 530 l 1,37,38
 140 506 140 506 114.5 464 c 128,-1,39
 89 422 89 422 89 362 c 259,40,41
 89 329 89 329 99.5 290 c 128,-1,42
 110 251 110 251 132 205 c 0,43,44
 157 154 157 154 172 110 c 1,45,46
 176 130 176 130 230 236 c 1,47,-1
 221 236 l 2,48,49
 183 236 183 236 158.5 262 c 128,-1,50
 134 288 134 288 134 327 c 259,51,52
 134 368 134 368 161.5 396 c 128,-1,53
 189 424 189 424 230 424 c 259,54,55
 272 424 272 424 300.5 397 c 128,-1,56
 329 370 329 370 329 329 c 259,57,58
 329 290 329 290 281 206 c 0,59,60
 242 138 242 138 226.5 95 c 128,-1,61
 211 52 211 52 208 0 c 1,62,-1
 135 0 l 1,63,64
 135 66 135 66 75 183 c 0,65,66
 42 248 42 248 31 281.5 c 128,-1,67
 20 315 20 315 20 355 c 259,68,69
 20 445 20 445 61.5 500 c 128,-1,70
 103 555 103 555 201 595 c 1,71,-1
 279 535 l 1,72,-1
 360 595 l 1,0,1
280 328 m 259,73,74
 280 350 280 350 266 364.5 c 128,-1,75
 252 379 252 379 230 379 c 259,76,77
 208 379 208 379 195 366 c 128,-1,78
 182 353 182 353 182 331 c 259,79,80
 182 309 182 309 196.5 295 c 128,-1,81
 211 281 211 281 233 281 c 259,82,83
 255 281 255 281 267.5 293.5 c 128,-1,84
 280 306 280 306 280 328 c 259,73,74
428 199 m 1,85,86
 374 183 374 183 374 123 c 259,87,88
 374 95 374 95 384 76.5 c 128,-1,89
 394 58 394 58 408 58 c 259,90,91
 428 58 428 58 428 79 c 2,92,-1
 428 199 l 1,85,86
EndSplineSet
EndChar

StartChar: uni0E13
Encoding: 3603 3603 146
Width: 818
Flags: W
HStem: -3 61<696.919 755.515> -3 50<150.903 230.468> 139 50<155.193 230.386> 195 61<694 748.016> 532 61<167.345 369.304>
VStem: 86 69<183 375.493> 86 58<54.5541 132.964> 237 50<53.9378 132.198> 405 69<0 41.3042 115 498.333> 625 69<61.4727 182 256 590> 763 58<62.7543 181.017>
AnchorPoint: "AboveBase" 701 659 basechar 0
LayerCount: 3
Fore
SplineSet
694 256 m 1x7be0
 775 256 821 207 821 120 c 3
 821 44 780 -3 717 -3 c 3
 662 -3 628 30 628 86 c 2
 628 182 l 1
 567 143 510 75 472 0 c 9
 405 0 l 1
 405 443 l 2
 405 497 366 532 271 532 c 3
 220 532 171 516 144 498 c 1xbbe0
 177 488 206 465 258 423 c 1
 192 410 155 368 155 308 c 2
 155 183 l 1xbde0
 155 183 170 189 192 189 c 3
 248 189 287 152 287 96 c 3
 287 39 248 -3 187 -3 c 3
 123 -3 86 36 86 100 c 2x7be0
 86 322 l 2x7de0
 86 364 109 404 144 426 c 1
 119 450 58 480 9 487 c 1
 70 552 171 593 268 593 c 3
 409 593 474 532 474 446 c 2
 474 115 l 1
 503 168 566 228 625 250 c 1
 625 590 l 1
 694 590 l 1
 694 256 l 1x7be0
763 116 m 3
 763 172 742 195 694 195 c 1
 694 95 l 2
 694 73 708 58 725 58 c 3
 748 58 763 79 763 116 c 3
190 47 m 3x7be0
 221 47 237 70 237 93 c 3
 237 116 221 139 190 139 c 3
 159 139 144 116 144 93 c 3
 144 70 159 47 190 47 c 3x7be0
EndSplineSet
Layer: 2
SplineSet
694 256 m 1,0,1
 755 256 755 256 788 220.5 c 128,-1,2
 821 185 821 185 821 120 c 259,3,4
 821 63 821 63 792.5 30 c 128,-1,5
 764 -3 764 -3 717 -3 c 259,6,7
 676 -3 676 -3 652 20.5 c 128,-1,8
 628 44 628 44 628 86 c 2,9,-1
 628 182 l 1,10,11
 582 152 582 152 543 107 c 128,-1,12
 504 62 504 62 472 0 c 1,13,-1
 405 0 l 1,14,-1
 405 443 l 2,15,16
 405 488 405 488 371.5 510 c 128,-1,17
 338 532 338 532 271 532 c 259,18,19
 195 532 195 532 144 498 c 1,20,21
 178 488 178 488 258 423 c 1,22,23
 209 413 209 413 182 383 c 128,-1,24
 155 353 155 353 155 308 c 2,25,-1
 155 183 l 1,26,27
 170 189 170 189 192 189 c 259,28,29
 234 189 234 189 260.5 163.5 c 128,-1,30
 287 138 287 138 287 96 c 259,31,32
 287 53 287 53 259.5 25 c 128,-1,33
 232 -3 232 -3 187 -3 c 259,34,35
 139 -3 139 -3 112.5 24.5 c 128,-1,36
 86 52 86 52 86 100 c 2,37,-1
 86 322 l 2,38,39
 86 353 86 353 102 381 c 128,-1,40
 118 409 118 409 144 426 c 1,41,42
 124 445 124 445 84 463.5 c 128,-1,43
 44 482 44 482 9 487 c 1,44,45
 55 536 55 536 125 564.5 c 128,-1,46
 195 593 195 593 268 593 c 259,47,48
 370 593 370 593 422 553 c 128,-1,49
 474 513 474 513 474 446 c 2,50,-1
 474 115 l 1,51,52
 496 156 496 156 539 195 c 128,-1,53
 582 234 582 234 625 250 c 1,54,-1
 625 590 l 1,55,-1
 694 590 l 1,56,-1
 694 256 l 1,0,1
763 116 m 259,57,58
 763 158 763 158 746.5 176.5 c 128,-1,59
 730 195 730 195 694 195 c 1,60,-1
 694 95 l 2,61,62
 694 79 694 79 703 68.5 c 128,-1,63
 712 58 712 58 725 58 c 259,64,65
 742 58 742 58 752.5 73.5 c 128,-1,66
 763 89 763 89 763 116 c 259,57,58
190 47 m 259,67,68
 212 47 212 47 224.5 60.5 c 128,-1,69
 237 74 237 74 237 93 c 259,70,71
 237 112 237 112 224.5 125.5 c 128,-1,72
 212 139 212 139 190 139 c 259,73,74
 168 139 168 139 156 125.5 c 128,-1,75
 144 112 144 112 144 93 c 259,76,77
 144 74 144 74 156 60.5 c 128,-1,78
 168 47 168 47 190 47 c 259,67,68
EndSplineSet
EndChar

StartChar: uni0E14
Encoding: 3604 3604 147
Width: 614
Flags: W
HStem: 0 21G<152 214 433 502> 230 50<216.619 253> 381 50<215.529 299.087> 532 61<187.702 365.685>
VStem: 37 69<258.595 448.366> 157 50<0 69.264 288.405 373.082> 308 50<288.244 372.334> 433 69<0 471.882>
DStem2: 193 123 238 87 0.510827 0.859684<0 122.636>
LayerCount: 3
Fore
SplineSet
37 367 m 3
 37 487 136 593 271 593 c 3
 409 593 502 518 502 411 c 2
 502 0 l 1
 433 0 l 1
 433 405 l 2
 433 480 369 532 274 532 c 3
 174 532 106 465 106 356 c 3
 106 314 117 272 148 216 c 0
 165 185 182 149 193 123 c 1
 208 152 227 188 253 230 c 1
 212 232 157 269 157 330 c 3
 157 384 196 431 257 431 c 3
 312 431 358 389 358 332 c 3
 358 295 339 257 320 225 c 2
 238 87 l 2
 222 61 216 34 212 0 c 1
 152 0 l 1
 152 9 152 16 153 23 c 0
 154 28 154 37 154 42 c 3
 154 67 143 93 92 186 c 0
 53 256 37 311 37 367 c 3
258 280 m 3
 292 280 308 305 308 331 c 3
 308 356 292 381 258 381 c 3
 224 381 207 356 207 331 c 3
 207 305 224 280 258 280 c 3
EndSplineSet
Layer: 2
SplineSet
37 367 m 259,0,1
 37 459 37 459 104.5 526 c 128,-1,2
 172 593 172 593 271 593 c 259,3,4
 374 593 374 593 438 542.5 c 128,-1,5
 502 492 502 492 502 411 c 2,6,-1
 502 0 l 1,7,-1
 433 0 l 1,8,-1
 433 405 l 2,9,10
 433 461 433 461 389 496.5 c 128,-1,11
 345 532 345 532 274 532 c 259,12,13
 198 532 198 532 152 484.5 c 128,-1,14
 106 437 106 437 106 356 c 259,15,16
 106 292 106 292 148 216 c 0,17,18
 173 171 173 171 193 123 c 1,19,20
 225 184 225 184 253 230 c 1,21,22
 218 232 218 232 187.5 259.5 c 128,-1,23
 157 287 157 287 157 330 c 259,24,25
 157 372 157 372 185 401.5 c 128,-1,26
 213 431 213 431 257 431 c 259,27,28
 299 431 299 431 328.5 402.5 c 128,-1,29
 358 374 358 374 358 332 c 259,30,31
 358 289 358 289 320 225 c 2,32,-1
 238 87 l 2,33,34
 219 55 219 55 212 0 c 1,35,-1
 152 0 l 1,36,37
 152 16 152 16 153 23 c 0,38,39
 154 28 154 28 154 42 c 259,40,41
 154 61 154 61 142 89 c 128,-1,42
 130 117 130 117 92 186 c 0,43,44
 37 285 37 285 37 367 c 259,0,1
258 280 m 259,45,46
 282 280 282 280 295 295 c 128,-1,47
 308 310 308 310 308 331 c 259,48,49
 308 351 308 351 295 366 c 128,-1,50
 282 381 282 381 258 381 c 259,51,52
 234 381 234 381 220.5 366 c 128,-1,53
 207 351 207 351 207 331 c 259,54,55
 207 310 207 310 220.5 295 c 128,-1,56
 234 280 234 280 258 280 c 259,45,46
EndSplineSet
EndChar

StartChar: uni0E15
Encoding: 3605 3605 148
Width: 645
Flags: W
HStem: 0 21G<172 250 464 533> 230 50<236.345 283.669> 381 50<235.879 321.534> 575 20G<189.5 278.769 366.154 437>
VStem: 54 69<271.195 457.358> 176 74<0 80.7575> 177 50<289.131 371.761> 330 50<288.373 372.047> 464 69<0 498.285>
DStem2: 218 107 275 87 0.462566 0.886585<0.296783 139.579>
LayerCount: 3
Back
SplineSet
280 428 m 0xfb80
 336 428 378 391 378 334 c 0
 378 261 314 176 277 84 c 1
 265 57 250 40 250 0 c 1
 176 0 l 1xfd80
 172 40 173 54 156 107 c 1
 133 185 54 260 54 371 c 0
 54 461 106 556 253 595 c 1
 320 543 l 1
 395 595 l 1
 431 587 463 570 492 536 c 5
 520 506 533 468 533 415 c 2
 533 0 l 1
 464 0 l 1
 464 409 l 2
 464 446 464 464 448 489 c 4
 432 513 423 523 402 532 c 1
 322 474 l 1
 239 532 l 1
 139 495 123 424 123 357 c 0
 123 304 137 263 166 216 c 0
 199 162 215 107 218 107 c 0
 219 107 265 203 284 230 c 1
 196 234 178 301 178 332 c 0
 178 388 220 428 280 428 c 0xfb80
279 280 m 0
 313 280 330 305 330 330 c 0
 330 356 313 381 279 381 c 0
 244 381 227 356 227 330 c 0xfb80
 227 305 244 280 279 280 c 0
EndSplineSet
Fore
SplineSet
280 431 m 3xfb80
 336 431 380 391 380 334 c 3
 380 306 370 269 347 225 c 2
 275 87 l 2
 258 55 250 28 250 0 c 1
 176 0 l 1xfd80
 168 83 157 119 116 192 c 0
 69 275 54 317 54 371 c 3
 54 481 126 561 253 595 c 1
 320 543 l 1
 395 595 l 1
 479 577 533 509 533 415 c 2
 533 0 l 1
 464 0 l 1
 464 409 l 2
 464 485 438 517 402 532 c 1
 322 474 l 1
 239 532 l 1
 156 501 123 447 123 357 c 3
 123 304 137 263 166 216 c 0
 186 183 203 145 218 107 c 1
 232 137 259 189 284 230 c 1
 222 230 177 275 177 332 c 3
 177 388 220 431 280 431 c 3xfb80
279 280 m 3
 313 280 330 305 330 330 c 3
 330 356 313 381 279 381 c 3
 244 381 227 356 227 330 c 3xfb80
 227 305 244 280 279 280 c 3
EndSplineSet
Layer: 2
SplineSet
280 431 m 259,0,1
 322 431 322 431 351 403.5 c 128,-1,2
 380 376 380 376 380 334 c 259,3,4
 380 288 380 288 347 225 c 2,5,-1
 275 87 l 2,6,7
 250 40 250 40 250 0 c 1,8,-1
 176 0 l 1,9,10
 170 62 170 62 158.5 99.5 c 128,-1,11
 147 137 147 137 116 192 c 0,12,13
 81 255 81 255 67.5 293 c 128,-1,14
 54 331 54 331 54 371 c 259,15,16
 54 453 54 453 106 511 c 128,-1,17
 158 569 158 569 253 595 c 1,18,-1
 320 543 l 1,19,-1
 395 595 l 1,20,21
 458 581 458 581 495.5 533 c 128,-1,22
 533 485 533 485 533 415 c 2,23,-1
 533 0 l 1,24,-1
 464 0 l 1,25,-1
 464 409 l 2,26,27
 464 506 464 506 402 532 c 1,28,-1
 322 474 l 1,29,-1
 239 532 l 1,30,31
 177 509 177 509 150 467 c 128,-1,32
 123 425 123 425 123 357 c 259,33,34
 123 286 123 286 166 216 c 0,35,36
 192 174 192 174 218 107 c 1,37,38
 247 170 247 170 284 230 c 1,39,40
 238 230 238 230 207.5 259.5 c 128,-1,41
 177 289 177 289 177 332 c 259,42,43
 177 374 177 374 206 402.5 c 128,-1,44
 235 431 235 431 280 431 c 259,0,1
279 280 m 259,45,46
 303 280 303 280 316.5 295 c 128,-1,47
 330 310 330 310 330 330 c 259,48,49
 330 351 330 351 316.5 366 c 128,-1,50
 303 381 303 381 279 381 c 259,51,52
 254 381 254 381 240.5 366 c 128,-1,53
 227 351 227 351 227 330 c 259,54,55
 227 310 227 310 240.5 295 c 128,-1,56
 254 280 254 280 279 280 c 259,45,46
EndSplineSet
EndChar

StartChar: uni0E16
Encoding: 3606 3606 149
Width: 628
Flags: W
HStem: -3 50<166.422 245.628> 139 50<170.023 245.731> 532 61<188.094 400.386>
VStem: 101 69<183 375.493> 101 58<54.5541 132.384> 252 50<53.7057 132.9> 452 69<0 484.624>
LayerCount: 3
Fore
SplineSet
159 426 m 1xee
 133 451 67 482 25 487 c 1
 95 549 188 593 293 593 c 3
 436 593 521 526 521 422 c 2
 521 0 l 1
 452 0 l 1
 452 418 l 2
 452 492 402 532 300 532 c 3
 247 532 200 519 159 498 c 1xee
 177 493 256 441 273 423 c 1
 207 410 170 368 170 308 c 2
 170 183 l 1xf6
 170 183 185 189 207 189 c 3
 259 189 302 154 302 96 c 3
 302 34 258 -3 202 -3 c 3
 140 -3 101 36 101 100 c 2xee
 101 322 l 2xf6
 101 365 121 397 159 426 c 1xee
205 47 m 3
 237 47 252 70 252 93 c 3
 252 116 237 139 205 139 c 3
 175 139 159 116 159 93 c 3
 159 70 175 47 205 47 c 3
EndSplineSet
Layer: 2
SplineSet
159 426 m 1,0,1
 139 445 139 445 97.5 464 c 128,-1,2
 56 483 56 483 25 487 c 1,3,4
 145 593 145 593 293 593 c 259,5,6
 399 593 399 593 460 547 c 128,-1,7
 521 501 521 501 521 422 c 2,8,-1
 521 0 l 1,9,-1
 452 0 l 1,10,-1
 452 418 l 2,11,12
 452 473 452 473 414.5 502.5 c 128,-1,13
 377 532 377 532 300 532 c 259,14,15
 225 532 225 532 159 498 c 1,16,17
 172 494 172 494 216 465.5 c 128,-1,18
 260 437 260 437 273 423 c 1,19,20
 224 413 224 413 197 383 c 128,-1,21
 170 353 170 353 170 308 c 2,22,-1
 170 183 l 1,23,24
 185 189 185 189 207 189 c 259,25,26
 247 189 247 189 274.5 163.5 c 128,-1,27
 302 138 302 138 302 96 c 259,28,29
 302 51 302 51 273.5 24 c 128,-1,30
 245 -3 245 -3 202 -3 c 259,31,32
 155 -3 155 -3 128 24.5 c 128,-1,33
 101 52 101 52 101 100 c 2,34,-1
 101 322 l 2,35,36
 101 382 101 382 159 426 c 1,0,1
205 47 m 259,37,38
 228 47 228 47 240 60.5 c 128,-1,39
 252 74 252 74 252 93 c 259,40,41
 252 112 252 112 240 125.5 c 128,-1,42
 228 139 228 139 205 139 c 259,43,44
 184 139 184 139 171.5 125.5 c 128,-1,45
 159 112 159 112 159 93 c 259,46,47
 159 74 159 74 171.5 60.5 c 128,-1,48
 184 47 184 47 205 47 c 259,37,38
EndSplineSet
EndChar

StartChar: uni0E17
Encoding: 3607 3607 150
Width: 691
Flags: W
HStem: 0 21G<176 245 512 581> 401 50<100.314 175.592> 532 61<436.003 506.826> 543 50<99.9001 179.872>
VStem: 44 50<457.844 537.048> 176 69<0 183.626 300 407> 187 58<457.521 536.735> 512 69<0 530.077>
LayerCount: 3
Back
SplineSet
245 300 m 1xdd
 339 495 395 593 475 593 c 0
 580 593 581 498 581 453 c 2
 581 0 l 1
 512 0 l 1
 512 462 l 2
 512 500 511 535 478 535 c 0
 463 535 445 527 432 508 c 0
 405 467 320 349 276 219 c 0
 247 136 245 89 245 0 c 1
 176 0 l 1
 176 407 l 1xed
 176 407 161 401 139 401 c 0
 106 401 44 421 44 494 c 0
 44 553 87 593 144 593 c 0
 218 593 245 542 245 490 c 2xdb
 245 300 l 1xdd
144 450 m 0
 174 450 190 473 190 496 c 0
 190 519 174 542 144 542 c 0xdb
 112 542 97 519 97 496 c 0
 97 473 112 450 144 450 c 0
EndSplineSet
Fore
SplineSet
245 300 m 1xdd
 303 421 344 495 380 539 c 0
 413 579 442 593 475 593 c 3
 550 593 581 549 581 450 c 2
 581 0 l 1
 512 0 l 1
 512 459 l 2
 512 516 503 532 478 532 c 3
 463 532 445 524 432 505 c 0
 369 410 328 336 300 274 c 0
 259 182 245 109 245 0 c 1
 176 0 l 1
 176 407 l 1xed
 167 403 155 401 139 401 c 3
 83 401 44 439 44 494 c 3
 44 549 82 593 144 593 c 3
 206 593 245 557 245 490 c 2xdb
 245 300 l 1xdd
141 451 m 3
 168 451 187 471 187 497 c 3
 187 523 169 543 141 543 c 3xdb
 111 543 94 523 94 497 c 3
 94 470 112 451 141 451 c 3
EndSplineSet
Layer: 2
SplineSet
245 300 m 1,0,1
 331 479 331 479 380 539 c 256,2,3
 425 593 425 593 475 593 c 259,4,5
 531 593 531 593 556 559 c 128,-1,6
 581 525 581 525 581 450 c 2,7,-1
 581 0 l 1,8,-1
 512 0 l 1,9,-1
 512 459 l 2,10,11
 512 501 512 501 504.5 516.5 c 128,-1,12
 497 532 497 532 478 532 c 259,13,14
 450 532 450 532 432 505 c 256,15,16
 345 374 345 374 300 274 c 256,17,18
 269 206 269 206 257 144 c 128,-1,19
 245 82 245 82 245 0 c 1,20,-1
 176 0 l 1,21,-1
 176 407 l 1,22,23
 163 401 163 401 139 401 c 259,24,25
 97 401 97 401 70.5 427 c 128,-1,26
 44 453 44 453 44 494 c 259,27,28
 44 536 44 536 71.5 564.5 c 128,-1,29
 99 593 99 593 144 593 c 259,30,31
 191 593 191 593 218 566.5 c 128,-1,32
 245 540 245 540 245 490 c 2,33,-1
 245 300 l 1,0,1
141 451 m 259,34,35
 161 451 161 451 174 464 c 128,-1,36
 187 477 187 477 187 497 c 259,37,38
 187 517 187 517 174.5 530 c 128,-1,39
 162 543 162 543 141 543 c 259,40,41
 119 543 119 543 106.5 530 c 128,-1,42
 94 517 94 517 94 497 c 259,43,44
 94 476 94 476 107 463.5 c 128,-1,45
 120 451 120 451 141 451 c 259,34,35
EndSplineSet
EndChar

StartChar: uni0E18
Encoding: 3608 3608 151
Width: 548
Flags: W
HStem: 0 61<86 153 222 364.681> 501 61<287.048 491.222> 532 61<117.06 341.526>
VStem: 153 69<61 416> 368 69<63.4822 353.279>
LayerCount: 3
Fore
SplineSet
101 494 m 1xb8
 206 488 299 462 346 432 c 0
 399 398 418 377 437 335 c 1
 437 84 l 2
 437 39 398 0 349 0 c 2
 86 0 l 1
 86 61 l 1
 153 61 l 1
 153 433 l 1
 117 439 79 443 40 443 c 3
 31 443 26 448 26 458 c 3
 26 473 38 509 52 527 c 0
 88 575 132 593 211 593 c 3xb8
 242 593 280 586 313 578 c 0
 361 566 390 562 418 562 c 3
 452 562 484 573 503 594 c 1
 533 537 l 1
 497 513 463 501 426 501 c 3xd8
 404 501 373 505 320 516 c 0
 267 527 239 532 216 532 c 3
 145 532 124 524 101 494 c 1xb8
368 97 m 2
 368 317 l 1
 354 349 343 364 305 386 c 0
 279 400 250 412 222 416 c 1
 222 61 l 1
 332 61 l 2
 354 61 368 77 368 97 c 2
EndSplineSet
Layer: 2
SplineSet
101 494 m 1,0,1
 178 490 178 490 244 472.5 c 128,-1,2
 310 455 310 455 346 432 c 0,3,4
 385 407 385 407 404 387 c 128,-1,5
 423 367 423 367 437 335 c 1,6,-1
 437 84 l 2,7,8
 437 50 437 50 411 25 c 128,-1,9
 385 0 385 0 349 0 c 2,10,-1
 86 0 l 1,11,-1
 86 61 l 1,12,-1
 153 61 l 1,13,-1
 153 433 l 1,14,15
 93 443 93 443 40 443 c 259,16,17
 26 443 26 443 26 458 c 259,18,19
 26 470 26 470 34 492 c 128,-1,20
 42 514 42 514 52 527 c 0,21,22
 79 563 79 563 115.5 578 c 128,-1,23
 152 593 152 593 211 593 c 259,24,25
 251 593 251 593 313 578 c 0,26,27
 377 562 377 562 418 562 c 259,28,29
 474 562 474 562 503 594 c 1,30,-1
 533 537 l 1,31,32
 479 501 479 501 426 501 c 259,33,34
 392 501 392 501 320 516 c 0,35,36
 243 532 243 532 216 532 c 259,37,38
 163 532 163 532 140.5 524.5 c 128,-1,39
 118 517 118 517 101 494 c 1,0,1
368 97 m 2,40,-1
 368 317 l 1,41,42
 357 342 357 342 344.5 356 c 128,-1,43
 332 370 332 370 305 386 c 0,44,45
 259 411 259 411 222 416 c 1,46,-1
 222 61 l 1,47,-1
 332 61 l 2,48,49
 348 61 348 61 358 71.5 c 128,-1,50
 368 82 368 82 368 97 c 2,40,-1
EndSplineSet
EndChar

StartChar: uni0E19
Encoding: 3609 3609 152
Width: 668
Flags: W
HStem: -3 61<522.919 574.766> 210 61<388.245 451 520 568.844> 399 50<72.1793 146.767> 543 50<72.0615 151.143>
VStem: 15 50<455.714 536.304> 147 69<0 40.0678 119 405> 158 58<455.001 536.305> 451 69<60.4949 210 270 590> 582 64<62.8399 197.94>
AnchorPoint: "AboveBase" 527 659 basechar 0
LayerCount: 3
Fore
SplineSet
646 131 m 3xfd80
 646 50 602 -3 539 -3 c 3
 481 -3 451 36 451 115 c 2
 451 210 l 1
 367 200 252 94 216 0 c 1
 147 0 l 1
 147 405 l 1xfd80
 138 401 125 399 110 399 c 3
 57 399 15 438 15 494 c 3
 15 552 56 593 115 593 c 3
 179 593 216 556 216 490 c 2xfb80
 216 119 l 1
 266 190 352 249 451 271 c 1
 451 590 l 1
 520 590 l 1
 520 270 l 1
 596 270 646 214 646 131 c 3xfd80
582 126 m 3
 582 188 564 210 520 210 c 1
 520 116 l 2
 520 69 526 58 545 58 c 3
 569 58 582 80 582 126 c 3
112 449 m 3
 140 449 158 469 158 496 c 3xfb80
 158 524 139 543 112 543 c 3
 84 543 65 523 65 496 c 3
 65 468 85 449 112 449 c 3
EndSplineSet
Layer: 2
SplineSet
646 131 m 259,0,1
 646 71 646 71 616.5 34 c 128,-1,2
 587 -3 587 -3 539 -3 c 259,3,4
 451 -3 451 -3 451 115 c 2,5,-1
 451 210 l 1,6,7
 389 203 389 203 316 137 c 128,-1,8
 243 71 243 71 216 0 c 1,9,-1
 147 0 l 1,10,-1
 147 405 l 1,11,12
 133 399 133 399 110 399 c 259,13,14
 70 399 70 399 42.5 426 c 128,-1,15
 15 453 15 453 15 494 c 259,16,17
 15 538 15 538 43 565.5 c 128,-1,18
 71 593 71 593 115 593 c 259,19,20
 163 593 163 593 189.5 566 c 128,-1,21
 216 539 216 539 216 490 c 2,22,-1
 216 119 l 1,23,24
 254 173 254 173 316 214 c 128,-1,25
 378 255 378 255 451 271 c 1,26,-1
 451 590 l 1,27,-1
 520 590 l 1,28,-1
 520 270 l 1,29,30
 577 270 577 270 611.5 231.5 c 128,-1,31
 646 193 646 193 646 131 c 259,0,1
582 126 m 259,32,33
 582 172 582 172 567.5 191 c 128,-1,34
 553 210 553 210 520 210 c 1,35,-1
 520 116 l 2,36,37
 520 81 520 81 525 69.5 c 128,-1,38
 530 58 530 58 545 58 c 259,39,40
 582 58 582 58 582 126 c 259,32,33
112 449 m 259,41,42
 133 449 133 449 145.5 462 c 128,-1,43
 158 475 158 475 158 496 c 259,44,45
 158 517 158 517 145 530 c 128,-1,46
 132 543 132 543 112 543 c 259,47,48
 91 543 91 543 78 529.5 c 128,-1,49
 65 516 65 516 65 496 c 259,50,51
 65 475 65 475 78.5 462 c 128,-1,52
 92 449 92 449 112 449 c 259,41,42
EndSplineSet
EndChar

StartChar: uni0E1A
Encoding: 3610 3610 153
Width: 636
Flags: W
HStem: 0 61<74 147 216 458.082> 401 50<78.6945 146.644> 543 50<78.9508 154.479>
VStem: 23 50<456.367 536.886> 147 69<61 407> 161 55<457.289 536.884> 463 69<67.671 590>
LayerCount: 3
Fore
SplineSet
418 61 m 2xfa
 444 61 463 76 463 99 c 2
 463 590 l 1
 532 590 l 1
 532 84 l 2
 532 32 495 0 441 0 c 2
 74 0 l 1
 74 61 l 1
 147 61 l 1
 147 407 l 1xfa
 138 403 127 401 113 401 c 3
 65 401 23 435 23 493 c 3
 23 553 57 593 117 593 c 3
 179 593 216 552 216 490 c 2xf6
 216 61 l 1
 418 61 l 2xfa
116 451 m 3
 142 451 161 470 161 497 c 3xf6
 161 523 143 543 116 543 c 3
 90 543 73 523 73 497 c 3
 73 471 90 451 116 451 c 3
EndSplineSet
Layer: 2
SplineSet
418 61 m 2,0,1
 438 61 438 61 450.5 71.5 c 128,-1,2
 463 82 463 82 463 99 c 2,3,-1
 463 590 l 1,4,-1
 532 590 l 1,5,-1
 532 84 l 2,6,7
 532 45 532 45 507 22.5 c 128,-1,8
 482 0 482 0 441 0 c 2,9,-1
 74 0 l 1,10,-1
 74 61 l 1,11,-1
 147 61 l 1,12,-1
 147 407 l 1,13,14
 133 401 133 401 113 401 c 259,15,16
 75 401 75 401 49 426 c 128,-1,17
 23 451 23 451 23 493 c 259,18,19
 23 539 23 539 48 566 c 128,-1,20
 73 593 73 593 117 593 c 259,21,22
 163 593 163 593 189.5 565 c 128,-1,23
 216 537 216 537 216 490 c 2,24,-1
 216 61 l 1,25,-1
 418 61 l 2,0,1
116 451 m 259,26,27
 136 451 136 451 148.5 464 c 128,-1,28
 161 477 161 477 161 497 c 259,29,30
 161 517 161 517 148.5 530 c 128,-1,31
 136 543 136 543 116 543 c 259,32,33
 97 543 97 543 85 530 c 128,-1,34
 73 517 73 517 73 497 c 259,35,36
 73 477 73 477 85 464 c 128,-1,37
 97 451 97 451 116 451 c 259,26,27
EndSplineSet
EndChar

StartChar: uni0E1B
Encoding: 3611 3611 154
Width: 636
Flags: W
HStem: 0 61<74 147 216 458.082> 401 50<78.8232 146.669> 543 50<79.7995 153.922>
VStem: 23 50<457.083 537.541> 147 69<61 407> 161 55<457.036 536.884> 463 69<67.671 886>
AnchorPoint: "AboveBase" 424 659 basechar 0
LayerCount: 3
Fore
SplineSet
418 61 m 2xfa
 444 61 463 76 463 99 c 2
 463 886 l 1
 532 886 l 1
 532 84 l 2
 532 32 495 0 441 0 c 2
 74 0 l 1
 74 61 l 1
 147 61 l 1
 147 407 l 1xfa
 138 403 127 401 113 401 c 3
 65 401 23 433 23 493 c 3
 23 551 55 593 117 593 c 3
 177 593 216 552 216 490 c 2xf6
 216 61 l 1
 418 61 l 2xfa
116 451 m 3
 146 451 161 474 161 497 c 3xf6
 161 520 146 543 116 543 c 3
 87 543 73 520 73 497 c 3
 73 474 87 451 116 451 c 3
EndSplineSet
Layer: 2
SplineSet
418 61 m 2,0,1
 438 61 438 61 450.5 71.5 c 128,-1,2
 463 82 463 82 463 99 c 2,3,-1
 463 886 l 1,4,-1
 532 886 l 1,5,-1
 532 84 l 2,6,7
 532 45 532 45 507 22.5 c 128,-1,8
 482 0 482 0 441 0 c 2,9,-1
 74 0 l 1,10,-1
 74 61 l 1,11,-1
 147 61 l 1,12,-1
 147 407 l 1,13,14
 133 401 133 401 113 401 c 259,15,16
 75 401 75 401 49 425.5 c 128,-1,17
 23 450 23 450 23 493 c 259,18,19
 23 538 23 538 47.5 565.5 c 128,-1,20
 72 593 72 593 117 593 c 259,21,22
 162 593 162 593 189 565 c 128,-1,23
 216 537 216 537 216 490 c 2,24,-1
 216 61 l 1,25,-1
 418 61 l 2,0,1
116 451 m 259,26,27
 137 451 137 451 149 464.5 c 128,-1,28
 161 478 161 478 161 497 c 259,29,30
 161 516 161 516 149 529.5 c 128,-1,31
 137 543 137 543 116 543 c 259,32,33
 96 543 96 543 84.5 529.5 c 128,-1,34
 73 516 73 516 73 497 c 259,35,36
 73 478 73 478 84.5 464.5 c 128,-1,37
 96 451 96 451 116 451 c 259,26,27
EndSplineSet
EndChar

StartChar: uni0E1C
Encoding: 3612 3612 155
Width: 639
Flags: W
HStem: 0 21G<81 161.5 443 523> 401 50<150.296 217.758> 543 50<144.065 217.655>
VStem: 81 69<0 55.2959 130 407> 81 57<455.736 536.501> 224 50<456.986 537.202> 454 69<0 52.2518 130 590>
LayerCount: 3
Fore
SplineSet
274 493 m 3xee
 274 438 237 401 186 401 c 3
 171 401 161 403 150 407 c 1
 150 130 l 1
 183 192 253 271 302 303 c 1
 358 265 413 198 454 130 c 1
 454 590 l 1
 523 590 l 1
 523 0 l 1
 454 0 l 1
 432 73 359 184 302 227 c 1
 239 179 173 82 150 0 c 1
 81 0 l 1xf6
 81 490 l 2
 81 546 121 593 181 593 c 3
 237 593 274 554 274 493 c 3xee
181 451 m 3
 207 451 224 471 224 497 c 3
 224 524 207 543 181 543 c 3
 156 543 138 526 138 497 c 3xee
 138 470 154 451 181 451 c 3
EndSplineSet
Layer: 2
SplineSet
274 493 m 259,0,1
 274 452 274 452 249.5 426.5 c 128,-1,2
 225 401 225 401 186 401 c 259,3,4
 166 401 166 401 150 407 c 1,5,-1
 150 130 l 1,6,7
 175 176 175 176 220 227.5 c 128,-1,8
 265 279 265 279 302 303 c 1,9,10
 383 248 383 248 454 130 c 1,11,-1
 454 590 l 1,12,-1
 523 590 l 1,13,-1
 523 0 l 1,14,-1
 454 0 l 1,15,16
 437 55 437 55 390.5 125 c 128,-1,17
 344 195 344 195 302 227 c 1,18,19
 254 191 254 191 210.5 126 c 128,-1,20
 167 61 167 61 150 0 c 1,21,-1
 81 0 l 1,22,-1
 81 490 l 2,23,24
 81 533 81 533 109 563 c 128,-1,25
 137 593 137 593 181 593 c 259,26,27
 223 593 223 593 248.5 566 c 128,-1,28
 274 539 274 539 274 493 c 259,0,1
181 451 m 259,29,30
 200 451 200 451 212 464 c 128,-1,31
 224 477 224 477 224 497 c 259,32,33
 224 517 224 517 212 530 c 128,-1,34
 200 543 200 543 181 543 c 259,35,36
 162 543 162 543 150 530.5 c 128,-1,37
 138 518 138 518 138 497 c 259,38,39
 138 476 138 476 149.5 463.5 c 128,-1,40
 161 451 161 451 181 451 c 259,29,30
EndSplineSet
EndChar

StartChar: uni0E1D
Encoding: 3613 3613 156
Width: 639
Flags: W
HStem: 0 21G<455 535> 401 50<162.259 229.63> 543 50<156.332 229.527>
VStem: 93 69<2 52.6799 130 407> 93 57<456.48 536.501> 236 50<457.009 537.077> 466 69<0 52.2518 130 886>
AnchorPoint: "AboveBase" 427 659 basechar 0
LayerCount: 3
Fore
SplineSet
286 493 m 3xee
 286 438 249 401 198 401 c 3
 183 401 173 403 162 407 c 1
 162 130 l 1
 195 192 265 271 314 303 c 1
 370 265 425 198 466 130 c 9
 466 886 l 1
 535 886 l 1
 535 0 l 1
 466 0 l 1
 444 73 371 184 314 227 c 1
 276 198 200 115 162 2 c 1
 93 2 l 1xf6
 93 490 l 2
 93 546 133 593 193 593 c 3
 249 593 286 554 286 493 c 3xee
193 451 m 3
 222 451 236 474 236 497 c 3
 236 520 222 543 193 543 c 3
 164 543 150 520 150 497 c 3xee
 150 474 164 451 193 451 c 3
EndSplineSet
Layer: 2
SplineSet
286 493 m 259,0,1
 286 452 286 452 261.5 426.5 c 128,-1,2
 237 401 237 401 198 401 c 259,3,4
 178 401 178 401 162 407 c 1,5,-1
 162 130 l 1,6,7
 187 176 187 176 232 227.5 c 128,-1,8
 277 279 277 279 314 303 c 1,9,10
 395 248 395 248 466 130 c 1,11,-1
 466 886 l 1,12,-1
 535 886 l 1,13,-1
 535 0 l 1,14,-1
 466 0 l 1,15,16
 449 55 449 55 402.5 125 c 128,-1,17
 356 195 356 195 314 227 c 1,18,19
 277 199 277 199 232 138.5 c 128,-1,20
 187 78 187 78 162 2 c 1,21,-1
 93 2 l 1,22,-1
 93 490 l 2,23,24
 93 533 93 533 121 563 c 128,-1,25
 149 593 149 593 193 593 c 259,26,27
 235 593 235 593 260.5 566 c 128,-1,28
 286 539 286 539 286 493 c 259,0,1
193 451 m 259,29,30
 213 451 213 451 224.5 464.5 c 128,-1,31
 236 478 236 478 236 497 c 259,32,33
 236 516 236 516 224.5 529.5 c 128,-1,34
 213 543 213 543 193 543 c 259,35,36
 172 543 172 543 161 529.5 c 128,-1,37
 150 516 150 516 150 497 c 259,38,39
 150 478 150 478 161 464.5 c 128,-1,40
 172 451 172 451 193 451 c 259,29,30
EndSplineSet
EndChar

StartChar: uni0E1E
Encoding: 3614 3614 157
Width: 698
Flags: W
HStem: 0 21G<143 222.5 513 586> 401 50<73.4426 142.653> 543 50<74.0609 150.7>
VStem: 18 50<456.578 537.666> 143 69<0 81.0124 196 407> 157 55<456.748 537.382> 327 69<469.395 590> 517 69<0 89.238 196 590>
LayerCount: 3
Fore
SplineSet
18 493 m 3xfb
 18 551 53 593 112 593 c 3
 176 593 212 548 212 490 c 2xf7
 212 196 l 1
 273 316 327 498 327 590 c 1
 396 590 l 1
 396 498 441 362 517 196 c 1
 517 590 l 1
 586 590 l 1
 586 0 l 1
 518 0 l 1
 508 61 485 132 428 254 c 0
 396 323 374 398 362 463 c 1
 356 397 331 316 298 247 c 0
 255 157 231 86 214 0 c 1
 143 0 l 1
 143 407 l 1
 134 403 123 401 108 401 c 3
 55 401 18 437 18 493 c 3xfb
112 451 m 3
 140 451 157 470 157 497 c 3
 157 525 139 543 112 543 c 3
 84 543 68 524 68 497 c 3
 68 469 85 451 112 451 c 3
EndSplineSet
Layer: 2
SplineSet
18 493 m 259,0,1
 18 537 18 537 43.5 565 c 128,-1,2
 69 593 69 593 112 593 c 259,3,4
 159 593 159 593 185.5 564 c 128,-1,5
 212 535 212 535 212 490 c 2,6,-1
 212 196 l 1,7,8
 258 287 258 287 292.5 404.5 c 128,-1,9
 327 522 327 522 327 590 c 1,10,-1
 396 590 l 1,11,12
 396 460 396 460 517 196 c 1,13,-1
 517 590 l 1,14,-1
 586 590 l 1,15,-1
 586 0 l 1,16,-1
 518 0 l 1,17,18
 503 95 503 95 428 254 c 0,19,20
 382 352 382 352 362 463 c 1,21,22
 353 362 353 362 298 247 c 0,23,24
 238 121 238 121 214 0 c 1,25,-1
 143 0 l 1,26,-1
 143 407 l 1,27,28
 129 401 129 401 108 401 c 259,29,30
 68 401 68 401 43 426 c 128,-1,31
 18 451 18 451 18 493 c 259,0,1
112 451 m 259,32,33
 133 451 133 451 145 463.5 c 128,-1,34
 157 476 157 476 157 497 c 259,35,36
 157 518 157 518 144.5 530.5 c 128,-1,37
 132 543 132 543 112 543 c 259,38,39
 91 543 91 543 79.5 530.5 c 128,-1,40
 68 518 68 518 68 497 c 259,41,42
 68 476 68 476 80 463.5 c 128,-1,43
 92 451 92 451 112 451 c 259,32,33
EndSplineSet
EndChar

StartChar: uni0E1F
Encoding: 3615 3615 158
Width: 698
Flags: W
HStem: 0 21G<143 222.5 513 586> 401 50<73.4426 142.653> 543 50<74.0609 150.7>
VStem: 18 50<456.578 537.666> 143 69<0 81.0124 196 407> 157 55<456.748 537.382> 327 69<469.395 590> 517 69<0 89.238 196 886>
AnchorPoint: "AboveBase" 487 659 basechar 0
LayerCount: 3
Fore
SplineSet
18 493 m 3xfb
 18 551 53 593 112 593 c 3
 176 593 212 548 212 490 c 2xf7
 212 196 l 1
 273 316 327 498 327 590 c 1
 396 590 l 1
 396 498 441 362 517 196 c 1
 517 886 l 1
 586 886 l 1
 586 0 l 1
 518 0 l 1
 508 61 485 132 428 254 c 0
 396 323 374 398 362 463 c 1
 356 397 331 316 298 247 c 0
 255 157 231 86 214 0 c 1
 143 0 l 1
 143 407 l 1
 134 403 123 401 108 401 c 3
 55 401 18 437 18 493 c 3xfb
112 451 m 3
 140 451 157 470 157 497 c 3
 157 525 139 543 112 543 c 3
 84 543 68 524 68 497 c 3
 68 469 85 451 112 451 c 3
EndSplineSet
Layer: 2
SplineSet
18 493 m 259,0,1
 18 537 18 537 43.5 565 c 128,-1,2
 69 593 69 593 112 593 c 259,3,4
 159 593 159 593 185.5 564 c 128,-1,5
 212 535 212 535 212 490 c 2,6,-1
 212 196 l 1,7,8
 258 287 258 287 292.5 404.5 c 128,-1,9
 327 522 327 522 327 590 c 1,10,-1
 396 590 l 1,11,12
 396 460 396 460 517 196 c 1,13,-1
 517 886 l 1,14,-1
 586 886 l 1,15,-1
 586 0 l 1,16,-1
 518 0 l 1,17,18
 503 95 503 95 428 254 c 0,19,20
 382 352 382 352 362 463 c 1,21,22
 353 362 353 362 298 247 c 0,23,24
 238 121 238 121 214 0 c 1,25,-1
 143 0 l 1,26,-1
 143 407 l 1,27,28
 129 401 129 401 108 401 c 259,29,30
 68 401 68 401 43 426 c 128,-1,31
 18 451 18 451 18 493 c 259,0,1
112 451 m 259,32,33
 133 451 133 451 145 463.5 c 128,-1,34
 157 476 157 476 157 497 c 259,35,36
 157 518 157 518 144.5 530.5 c 128,-1,37
 132 543 132 543 112 543 c 259,38,39
 91 543 91 543 79.5 530.5 c 128,-1,40
 68 518 68 518 68 497 c 259,41,42
 68 476 68 476 80 463.5 c 128,-1,43
 92 451 92 451 112 451 c 259,32,33
EndSplineSet
EndChar

StartChar: uni0E20
Encoding: 3616 3616 159
Width: 712
Flags: W
HStem: -3 50<102.894 182.143> 139 50<102.103 177.745> 532 61<259.593 475.224>
VStem: 46 50<54.0551 131.833> 178 69<183 377.452> 189 58<53.2885 133.252> 529 69<0 485.426>
LayerCount: 3
Fore
SplineSet
235 426 m 1xfa
 210 450 150 480 101 487 c 1
 163 552 267 593 369 593 c 3
 507 593 598 528 598 422 c 2
 598 0 l 1
 529 0 l 1
 529 418 l 2
 529 500 463 532 376 532 c 3
 325 532 261 516 235 498 c 1
 267 488 296 465 348 423 c 1
 282 410 247 368 247 308 c 2xfa
 247 100 l 2xf6
 247 38 210 -3 146 -3 c 3
 87 -3 46 39 46 96 c 3
 46 150 84 189 141 189 c 3
 157 189 168 186 178 183 c 1
 178 322 l 2
 178 364 200 404 235 426 c 1xfa
143 47 m 3
 170 47 189 66 189 93 c 3xf6
 189 120 171 139 143 139 c 3
 114 139 96 119 96 93 c 3
 96 66 116 47 143 47 c 3
EndSplineSet
Layer: 2
SplineSet
235 426 m 1,0,1
 215 445 215 445 175.5 463.5 c 128,-1,2
 136 482 136 482 101 487 c 1,3,4
 147 536 147 536 219.5 564.5 c 128,-1,5
 292 593 292 593 369 593 c 259,6,7
 473 593 473 593 535.5 547 c 128,-1,8
 598 501 598 501 598 422 c 2,9,-1
 598 0 l 1,10,-1
 529 0 l 1,11,-1
 529 418 l 2,12,13
 529 476 529 476 487.5 504 c 128,-1,14
 446 532 446 532 376 532 c 259,15,16
 338 532 338 532 296.5 522 c 128,-1,17
 255 512 255 512 235 498 c 1,18,19
 268 488 268 488 348 423 c 1,20,21
 299 413 299 413 273 383 c 128,-1,22
 247 353 247 353 247 308 c 2,23,-1
 247 100 l 2,24,25
 247 53 247 53 220 25 c 128,-1,26
 193 -3 193 -3 146 -3 c 259,27,28
 102 -3 102 -3 74 25 c 128,-1,29
 46 53 46 53 46 96 c 259,30,31
 46 137 46 137 72.5 163 c 128,-1,32
 99 189 99 189 141 189 c 259,33,34
 158 189 158 189 178 183 c 1,35,-1
 178 322 l 2,36,37
 178 390 178 390 235 426 c 1,0,1
143 47 m 259,38,39
 163 47 163 47 176 60 c 128,-1,40
 189 73 189 73 189 93 c 259,41,42
 189 113 189 113 176.5 126 c 128,-1,43
 164 139 164 139 143 139 c 259,44,45
 122 139 122 139 109 126 c 128,-1,46
 96 113 96 113 96 93 c 259,47,48
 96 73 96 73 109.5 60 c 128,-1,49
 123 47 123 47 143 47 c 259,38,39
EndSplineSet
EndChar

